%TF.GenerationSoftware,Novarm,DipTrace,4.3.0.5*%
%TF.CreationDate,2023-08-31T12:43:09+01:00*%
%FSLAX26Y26*%
%MOIN*%
%TF.FileFunction,Copper,L1,Top*%
%TF.Part,Single*%
%TA.AperFunction,Conductor*%
%ADD13C,0.009843*%
%ADD14C,0.03937*%
%TA.AperFunction,ComponentPad*%
%ADD17R,0.062992X0.062992*%
%ADD18C,0.062992*%
%ADD19C,0.19685*%
%ADD20R,0.056693X0.056693*%
%ADD21C,0.056693*%
%ADD22C,0.062992*%
%ADD23R,0.070866X0.173228*%
%ADD24O,0.070866X0.15748*%
%ADD25O,0.15748X0.070866*%
%ADD26R,0.066929X0.066929*%
%ADD27C,0.066929*%
%ADD28R,0.051181X0.051181*%
%ADD29C,0.051181*%
%ADD30R,0.075X0.07874*%
%ADD31O,0.075X0.07874*%
%ADD32C,0.07874*%
%TA.AperFunction,ViaPad*%
%ADD33C,0.04*%
G75*
G01*
%LPD*%
X2063780Y1917913D2*
D13*
X1913386Y1918110D1*
X813386Y1116535D2*
X911811D1*
X1313386Y1518110D1*
X3513189Y1717717D2*
X3513386Y1868110D1*
X3113386Y4018110D2*
X2963386D1*
X2813386Y3868110D1*
X3914961Y1368110D2*
D14*
X3974016Y1427165D1*
X4254331D1*
X4413386Y1268110D1*
X2063780Y3117913D2*
D13*
X1913386Y3118110D1*
X3713386Y3668110D2*
Y3718110D1*
X4013386Y4018110D1*
X1613386Y2818110D2*
X1313386D1*
X1913386Y1918110D2*
X1326500D1*
X1286811Y1957799D1*
X3113386Y4018110D2*
X3159649Y4064374D1*
X3967122D1*
X4013386Y4018110D1*
X3293272Y1708504D2*
X3253744D1*
X3223901Y1738347D1*
X2078858D1*
X2063779Y1723268D1*
X1286811Y2499138D2*
X1470307D1*
X1538693Y2567524D1*
X1690744D1*
X1710429Y2547839D1*
Y2381170D1*
X1730114Y2361485D1*
X1860791D1*
X2063780Y3117913D2*
X2121772D1*
X2167835Y3071851D1*
X2376508D1*
X2403795Y3099138D1*
X2063780Y1917913D2*
Y1932878D1*
X2095275Y1964374D1*
X2259649D1*
X2513386Y2218110D1*
X1485240Y3899138D2*
X1356657D1*
X2579335Y2318819D2*
X3288032D1*
X3288741Y2318110D1*
X3413386D1*
X1491264Y1754729D2*
X1836815D1*
X1856500Y1735044D1*
Y1486414D1*
X1876185Y1466729D1*
X2136815D1*
X2156500Y1486414D1*
Y1541540D1*
X2176185Y1561225D1*
X2436815D1*
X2456500Y1541540D1*
Y1455319D1*
X1613386Y2918110D2*
X1356657Y2918114D1*
Y3899138D2*
X1188307D1*
X3113386Y3118110D2*
X2959649Y3118114D1*
X1856500Y1238461D2*
X2013386D1*
X904646Y1992563D2*
X1542425D1*
X1549000Y1999138D1*
X1791264D1*
X879177Y2902721D2*
Y2764374D1*
X1321894Y3264374D2*
X879177D1*
X2013386Y1238461D2*
X2959649D1*
X1613386Y4018110D2*
X1659649Y4064374D1*
X2614098D1*
X2633783Y4044689D1*
Y3584059D1*
X2653468Y3564374D1*
X3139964D1*
X3159649Y3544689D1*
Y3484059D1*
X3139964Y3464374D1*
X2808354D1*
X2788669Y3444689D1*
Y3337800D1*
X2808359Y3318110D1*
X3113386D1*
X1813386Y1719965D2*
X1394413D1*
X3613386Y1568110D2*
X3502165Y1456890D1*
X2862799D1*
Y1387362D1*
X2513386Y3718110D2*
X2559649Y3764374D1*
Y3847839D1*
X2539964Y3867524D1*
X1595807D1*
X1592657Y3864374D1*
X1067122D1*
X1013386Y3918110D1*
X2862799Y1387362D2*
Y1292910D1*
X2843114Y1273225D1*
X1433075D1*
X1413386Y1253535D1*
Y918110D1*
X3113386Y3618110D2*
X2673154D1*
X2653468Y3637796D1*
Y4064374D1*
X2633783Y4084059D1*
X972996D1*
X953311Y4064374D1*
Y3878185D1*
X1013386Y3818110D1*
X3713386Y1568110D2*
X3582480Y1437205D1*
X3014098D1*
X2994413Y1417520D1*
Y1052354D1*
X2974726Y1032667D1*
X2076185D1*
X2056500Y1012982D1*
Y877166D1*
X2036815Y857481D1*
X1376185D1*
X1356500Y877166D1*
Y1541540D1*
X1376185Y1561225D1*
X1470271D1*
X1513386Y1518110D1*
X1013386Y3718110D2*
X1059647D1*
X1070548Y3707209D1*
X1287130D1*
X1413386Y1518110D2*
X1519216Y1412280D1*
X2536815D1*
X2556500Y1431965D1*
Y1594685D1*
X2576185Y1614370D1*
X3767126D1*
X3813386Y1568110D1*
X1287130Y3707209D2*
X1490665D1*
X1550980Y3767524D1*
X2462799D1*
X2513386Y3818110D1*
X1313386Y918110D2*
Y857481D1*
X1333071Y837796D1*
X2136815D1*
X2156500Y857481D1*
Y941540D1*
X2176185Y961225D1*
X2994413D1*
X3014098Y980910D1*
Y1275784D1*
X3033786Y1295472D1*
X3743114D1*
X3762799Y1315157D1*
Y1481300D1*
X3782484Y1500985D1*
X3846260D1*
X3913386Y1568110D1*
X4013386D2*
X3759646Y1821850D1*
Y1914369D1*
X3739960Y1934055D1*
X3441106D1*
X3421421Y1914370D1*
Y1688504D1*
X3401736Y1668819D1*
X2148153D1*
X2688232Y3918111D2*
Y4030028D1*
X2777027Y4118823D1*
X3959646D1*
X3047441Y3764374D2*
X2688232D1*
X2274728Y3902288D2*
X2408071D1*
X4213386Y1746296D2*
X4259646Y1792556D1*
Y3192414D1*
X4321350Y3254118D1*
Y4064374D1*
X4301665Y4084059D1*
X3053664D1*
X3007401Y4037796D1*
X2777445D1*
X2757760Y4018111D1*
Y3824736D1*
X2513386Y3018110D2*
X3024307D1*
X3070570Y3064374D1*
X3459646D1*
X3479331Y3044689D1*
Y2684059D1*
X3459646Y2664374D1*
X3347441D1*
X3327756Y2644689D1*
Y2437799D1*
X3347445Y2418110D1*
X3413386D1*
X2113386Y1307988D2*
X2759649D1*
X2383622Y3013906D2*
X2379418Y3018110D1*
X1613386D1*
X1177772Y3079449D2*
X1216434Y3118110D1*
X1613386D1*
X1448153Y1128859D2*
X1802637D1*
X2013386Y918110D1*
X2513386Y3118110D2*
X2835059D1*
X2881322Y3164374D1*
X3479331D1*
X3499016Y3144689D1*
Y2603741D1*
X3413386Y2518110D1*
X1613386Y3118110D2*
X1659649Y3164374D1*
X2467122D1*
X2513386Y3118110D1*
X1613386Y3218110D2*
X1776981D1*
X1823244Y3264374D1*
X2401477D1*
X2447741Y3218110D1*
X2513386D1*
X2559649Y3264374D1*
X3518701D1*
X3538386Y3244689D1*
Y2484059D1*
X3518701Y2464374D1*
X3386811D1*
X3367126Y2484059D1*
Y2571851D1*
X3413386Y2618110D1*
X1613386Y3318110D2*
X1659649Y3364374D1*
X2360796D1*
X2407060Y3318110D1*
X2513386D1*
X1713386Y1447044D2*
X1756500Y1490158D1*
Y1595988D1*
X2017520Y3967524D2*
X2020670Y3964374D1*
X2559650D1*
X2579335Y3944689D1*
Y3437800D1*
X2559646Y3418110D1*
X2513386D1*
X1613386Y3518110D2*
X1725142D1*
X1778878Y3464374D1*
X2352141D1*
X2405878Y3518110D1*
X2513386D1*
X913941Y3664374D2*
X1036516D1*
X1082780Y3618110D1*
X1613386D1*
X1097559Y1942721D2*
X889567D1*
X869882Y1962406D1*
Y2166063D1*
X850197Y2185748D1*
X702047D1*
X1613386Y3618110D2*
X1835497D1*
X1886083Y3567524D1*
X2462799D1*
X2513386Y3618110D1*
X1212535Y3667524D2*
X1562799D1*
X1613386Y3718110D1*
X1226460Y1635359D2*
X1496137D1*
X1613386Y1518110D1*
Y3718110D2*
X1663972Y3667524D1*
X2539964D1*
X2559649Y3647839D1*
Y3484059D1*
X2539964Y3464374D1*
X2467126D1*
X2447441Y3444689D1*
Y3384059D1*
X2467126Y3364374D1*
X2648862D1*
X2802599Y3518110D1*
X3113386D1*
X3179335Y3999138D2*
Y3437800D1*
X3159646Y3418110D1*
X3113386D1*
X1613386Y3818110D2*
X1195492D1*
X1141755Y3764374D1*
X953311D1*
X933626Y3784059D1*
Y4084059D1*
X953311Y4103744D1*
X2708374D1*
X1421736Y1670122D2*
X1561374D1*
X1713386Y1518110D1*
X2992992Y3661485D2*
X3062520D1*
X3013386Y2218110D2*
X2963976Y2267520D1*
X2881697D1*
X2862799Y2248622D1*
X2843901Y2267520D1*
X2463390D1*
X2363394Y2167524D1*
X1321575D1*
X1013386Y2418110D2*
X1321575Y2418111D1*
X2862799Y2248622D2*
Y2103524D1*
X2913386Y2052937D1*
X2513386Y2818110D2*
X2579335D1*
X2625598Y2864374D1*
X3367122D1*
X3413386Y2818110D1*
X3298697Y3999138D2*
Y3564374D1*
X2142677Y2068705D2*
X2093272Y2118110D1*
X1913386D1*
X2513386Y2718110D2*
X2585733D1*
X2651681Y2784059D1*
X3015153D1*
X3034838Y2764374D1*
X3439961D1*
X3459646Y2784059D1*
Y2871850D1*
X3413386Y2918110D1*
X1913386Y2218110D2*
X2103402D1*
X2149665Y2264374D1*
X2343861D1*
X2448149Y2368662D1*
X2067838Y1203697D2*
X1466748D1*
X1456500Y1213945D1*
X1223071Y3779453D2*
X1463941D1*
X2717677Y2964374D2*
X3359649D1*
X3413386Y3018110D1*
X1483398Y1164103D2*
X2086158D1*
X2119047Y1196992D1*
X2559649D1*
X1104602Y4158193D2*
X1793626D1*
X1853543Y4218110D1*
X2667835Y2964374D2*
X2556760D1*
X2513386Y2618110D2*
X2463232Y2567957D1*
X1959646D1*
X3113386Y2518110D2*
X2882914D1*
X2779020Y2414217D1*
X913941Y3714217D2*
Y4103744D1*
X933626Y4123429D1*
X1858862D1*
X1953543Y4218110D1*
X844413Y3629611D2*
Y3714217D1*
X1247299Y2599138D2*
X1131181D1*
X1062795Y2667524D1*
X864098D1*
X844413Y2687209D1*
Y2852878D1*
X2613386Y1518110D2*
Y1397200D1*
X2593701Y1377516D1*
X1391264D1*
X2779020Y2414217D2*
X2284567D1*
X2234724Y2364374D1*
X1967122D1*
X1913386Y2418110D1*
X3113386Y2618110D2*
X3159649Y2571847D1*
Y2375441D1*
X2614098Y2464374D2*
X2158394D1*
X2104658Y2518110D1*
X1913386D1*
X2574728Y3999138D2*
X2614098Y3959768D1*
Y3418823D1*
X3059649Y1703583D2*
X2513386D1*
X3159649Y2375441D2*
X2614098D1*
X3113386Y2718110D2*
X2992312D1*
X2946048Y2764374D1*
X2738390D1*
X2638390Y2664374D1*
X2413386D1*
X3413386Y3318110D2*
X3459646D1*
X3479331Y3337796D1*
Y3964375D1*
X3514094Y3999138D1*
Y4153587D2*
X3499015Y4138508D1*
X2233146D1*
X2153543Y4218110D1*
X2413386Y2664374D2*
X2167472D1*
X2121209Y2618110D1*
X1913386D1*
X3113386Y2818110D2*
X2625886D1*
X2572149Y2764374D1*
X1959649D1*
X1913386Y2718110D1*
X3413386Y3418110D2*
X3248863D1*
X3229177Y3437796D1*
Y3999138D1*
X3113386Y2918110D2*
X2586520D1*
X2532783Y2864374D1*
X2010953D1*
X3413386Y3518110D2*
X3348539Y3582957D1*
Y3999138D1*
Y4173272D2*
X3333460Y4158193D1*
X2413461D1*
X2353543Y4218110D1*
X2010953Y2864374D2*
X1959649D1*
X1913386Y2818110D1*
X2152043Y2018111D2*
X2016465D1*
X1962728Y1964374D1*
X1717244D1*
Y2968666D2*
X2259646D1*
X1059646Y2964374D2*
X1123323Y3028051D1*
Y3133189D1*
X1143008Y3152874D1*
X1447842D1*
X1559342Y3264374D1*
X1717244D1*
X2020405Y3064374D2*
X1375342D1*
X1229079Y2918110D1*
X1013386D1*
X2213386Y3318110D2*
X2110039Y3318111D1*
X2363937Y2933902D2*
X1752008D1*
X1682480Y2864374D1*
X986811D1*
X967126Y2884059D1*
Y2971851D1*
X1013386Y3018110D1*
X2274724Y3418111D2*
X2363937D1*
X2213386Y2318110D2*
X2070615D1*
X2016878Y2264374D1*
X1860791D1*
X1826027Y2299138D1*
X2213386Y3518110D2*
X2067086Y3518111D1*
X1826027Y2299138D2*
X1779520D1*
X1744756Y2264374D1*
X721736D1*
X702051Y2284059D1*
Y3098426D1*
X721736Y3118110D1*
X1013386D1*
X2213386Y2418110D2*
X2049004D1*
X2002740Y2464374D1*
X1749799D1*
X1730114Y2484059D1*
Y2644689D1*
X1710429Y2664374D1*
X1182480D1*
X1082480Y2764374D1*
X967126D1*
X947441Y2784059D1*
Y3044689D1*
X967126Y3064374D1*
X1039961D1*
X1059646Y3084059D1*
Y3171850D1*
X1013386Y3218110D1*
X2092835Y2068705D2*
X2088504Y2064374D1*
X909252D1*
X889567Y2084059D1*
Y2200827D1*
X869882Y2220512D1*
X702051D1*
X682366Y2240197D1*
Y3298426D1*
X702051Y3318110D1*
X1013386D1*
X2213386Y3818110D2*
X1977874Y3818111D1*
X1826027Y3567524D2*
X967126D1*
X947441Y3547839D1*
Y3484055D1*
X1013386Y3418110D1*
X1791264Y3416150D2*
X1736755D1*
X1688531Y3464374D1*
X1067122D1*
X1013386Y3518110D1*
X1791264Y2664374D2*
X2034157D1*
X2087894Y2718110D1*
X2213386D1*
Y3918110D2*
X1977874Y3918111D1*
X813386Y1018110D2*
X1013386Y818110D1*
X2513386D1*
X2613386Y918110D1*
X2063780Y2817913D2*
X2213386Y2818110D1*
X4013386Y1368110D2*
D14*
X4245374D1*
X4313386Y1300098D1*
Y1268110D1*
X1013386Y4018110D2*
D13*
X1263386D1*
X1313386Y3968110D1*
X3713386Y2518110D2*
Y2418110D1*
X4013386Y2118110D1*
X2513386Y2518110D2*
X2613386D1*
X2813386Y2718110D1*
X2063780Y4017913D2*
X2213386Y4018110D1*
X4413189Y1717717D2*
X4413386Y1568110D1*
X4313386Y1268110D2*
D14*
Y1018110D1*
X4213386Y918110D1*
X2613386D2*
D13*
X3363386D1*
X3513386Y1068110D1*
X3113386Y1918110D2*
X3067126Y1964370D1*
X2733075D1*
X2713386Y1984059D1*
Y2218110D1*
X1313386Y3968110D2*
X1934744D1*
X1984547Y4017913D1*
X2063780D1*
X2813386Y2718110D2*
X2867122Y2664374D1*
X3188779D1*
X3208464Y2644689D1*
Y2424894D1*
X3413386Y1368110D2*
X3363976Y1417520D1*
X3262795D1*
X3213386Y1368110D1*
X2948153Y3199138D2*
X2787205D1*
X2688232Y3864374D2*
X2722996Y3829610D1*
Y3803744D1*
X2742681Y3784059D1*
X2933074D1*
X2948153Y3799138D1*
X2513386Y2518110D2*
X2274724Y2518114D1*
X3513386Y1068110D2*
X3562795Y1117520D1*
X3663976D1*
X3713386Y1068110D1*
X2713386Y2218110D2*
X2613386D1*
X3913386Y4203425D2*
X3841417Y4275394D1*
X1610827D1*
X1553543Y4218110D1*
X4239964Y3618111D2*
Y3287209D1*
X4220279Y3267524D1*
X3644366D1*
X3624678Y3247836D1*
Y2329403D1*
X3413386Y2118110D1*
X3514094Y3567524D2*
X4066583D1*
X4166583Y3667524D1*
X1613386Y2318110D2*
X1563972Y2367524D1*
X813972D1*
X763386Y2418110D1*
X1613386Y2618110D2*
X1425209D1*
X1371472Y2564374D1*
X817122D1*
X763386Y2618110D1*
X924331Y2164374D2*
X1121767D1*
X1175504Y2218110D1*
X1613386D1*
X824728Y2299138D2*
X924331D1*
X2713386Y1918110D2*
X2813386D1*
X4213386Y1868110D2*
X4162795Y1817520D1*
Y1500984D1*
X4143110Y1481299D1*
X3802169D1*
X3782484Y1461614D1*
Y1236267D1*
X3762798Y1216581D1*
X3261856D1*
X3113386Y1068110D1*
X4313386Y1868110D2*
Y1691960D1*
X4259646Y1638221D1*
Y1481300D1*
X4239960Y1461614D1*
X3852176D1*
X3832491Y1441929D1*
Y1180122D1*
X3812806Y1160437D1*
X3405712D1*
X3313386Y1068110D1*
X4213386Y1268110D2*
D14*
Y1084932D1*
X4046564Y918110D1*
X3985039D1*
X3113386Y3018110D2*
D13*
X3297445Y3018111D1*
X2113386Y1518110D2*
Y1614369D1*
X2133071Y1634055D1*
X3693701D1*
X3713386Y1653739D1*
Y1868110D1*
X2213386Y1918110D2*
X2513386D1*
X2144803Y1918111D2*
X2093940Y1867248D1*
X1062795D1*
X2613386Y1918110D2*
X2679326Y1852170D1*
X3159650D1*
X3179335Y1871855D1*
Y1952161D1*
X2913386Y2218110D1*
X2513386Y1918110D2*
X2613386D1*
X3583622Y3617362D2*
Y3699138D1*
X959094Y1832485D2*
X3239980D1*
X3366972Y1959477D1*
X1841106Y2029611D2*
X1836815Y2033902D1*
X1515240D1*
X1510949Y2029611D1*
X763386Y2518110D2*
X817122Y2464374D1*
X1137248D1*
X2843118Y3364374D2*
X3439961D1*
X3459646Y3384059D1*
Y3971850D1*
X3413386Y4018110D1*
X1137248Y2767524D2*
X1705886D1*
X1837500Y2899138D1*
X2418870D1*
X2438555Y2918823D1*
Y3044689D1*
X2458240Y3064374D1*
X2843118D1*
X1137248Y2464374D2*
X1567122D1*
X1613386Y2418110D1*
X3113386Y2218110D2*
X3187237D1*
X3401736Y2003611D1*
Y1777717D1*
X3382051Y1758032D1*
X1933075D1*
X1913386Y1738342D1*
Y1518110D1*
X813386Y1818110D2*
X876767Y1754729D1*
X1358386D1*
X1401378Y1797721D1*
X3332209D1*
D33*
X1286811Y1957799D3*
X2063779Y1723268D3*
X1860791Y2361485D3*
X2403795Y3099138D3*
X3293272Y1708504D3*
X1286811Y2499138D3*
X1188307Y3899138D3*
X2456500Y1455319D3*
X1491264Y1754729D3*
X1485240Y3899138D3*
X1356657D3*
X2579335Y2318819D3*
X1356657Y2918114D3*
X2959649Y3118114D3*
Y1238461D3*
X1856500D3*
X1791264Y1999138D3*
X904646Y1992563D3*
X879177Y2764374D3*
Y2902721D3*
Y3264374D3*
X1321894D3*
X2013386Y1238461D3*
X1394413Y1719965D3*
X1813386D3*
X2862799Y1387362D3*
X1287130Y3707209D3*
X2148153Y1668819D3*
X3959646Y4118823D3*
X2688232Y3918111D3*
Y3764374D3*
X3047441D3*
X2408071Y3902288D3*
X2274728D3*
X2757760Y3824736D3*
X4213386Y1746296D3*
X2759649Y1307988D3*
X2113386D3*
X2383622Y3013906D3*
X1177772Y3079449D3*
X1448153Y1128859D3*
X2017520Y3967524D3*
X1756500Y1595988D3*
X1713386Y1447044D3*
X913941Y3664374D3*
X702047Y2185748D3*
X1097559Y1942721D3*
X1226460Y1635359D3*
X1212535Y3667524D3*
X3179335Y3999138D3*
X2708374Y4103744D3*
X1421736Y1670122D3*
X3062520Y3661485D3*
X2992992D3*
X1321575Y2418111D3*
Y2167524D3*
X2913386Y2052937D3*
X3298697Y3564374D3*
Y3999138D3*
X2142677Y2068705D3*
X2448149Y2368662D3*
X1456500Y1213945D3*
X1463941Y3779453D3*
X1223071D3*
X2067838Y1203697D3*
X2559649Y1196992D3*
X1483398Y1164103D3*
X1104602Y4158193D3*
X2556760Y2964374D3*
X2667835D3*
X1959646Y2567957D3*
X2717677Y2964374D3*
X913941Y3714217D3*
X844413D3*
Y3629611D3*
Y2852878D3*
X1247299Y2599138D3*
X1391264Y1377516D3*
X2779020Y2414217D3*
X2614098Y3418823D3*
X2574728Y3999138D3*
X2513386Y1703583D3*
X3059649D3*
X3159649Y2375441D3*
X2614098D3*
Y2464374D3*
X3514094Y3999138D3*
Y4153587D3*
X2413386Y2664374D3*
X3229177Y3999138D3*
X2010953Y2864374D3*
X3348539Y3999138D3*
Y4173272D3*
X1717244Y1964374D3*
X2152043Y2018111D3*
X2259646Y2968666D3*
X1717244Y3264374D3*
X1059646Y2964374D3*
X1717244Y2968666D3*
X2020405Y3064374D3*
X2110039Y3318111D3*
X2363937Y3418111D3*
X2274724D3*
X2363937Y2933902D3*
X2067086Y3518111D3*
X1826027Y2299138D3*
X2092835Y2068705D3*
X1977874Y3818111D3*
X1826027Y3567524D3*
X1791264Y2664374D3*
X1977874Y3918111D3*
X1791264Y3416150D3*
X3208464Y2424894D3*
X2787205Y3199138D3*
X2948153D3*
Y3799138D3*
X2688232Y3864374D3*
X2274724Y2518114D3*
X3913386Y4203425D3*
X4239964Y3618111D3*
X4166583Y3667524D3*
X3514094Y3567524D3*
X924331Y2164374D3*
Y2299138D3*
X824728D3*
X3297445Y3018111D3*
X1062795Y1867248D3*
X2144803Y1918111D3*
X3583622Y3699138D3*
Y3617362D3*
X3366972Y1959477D3*
X959094Y1832485D3*
X1510949Y2029611D3*
X1841106D3*
X2843118Y3364374D3*
Y3064374D3*
X1137248Y2767524D3*
Y2464374D3*
X3332209Y1797721D3*
D17*
X2513386Y4018110D3*
D18*
Y3918110D3*
Y3818110D3*
Y3718110D3*
Y3618110D3*
Y3518110D3*
Y3418110D3*
Y3318110D3*
Y3218110D3*
Y3118110D3*
Y3018110D3*
Y2918110D3*
Y2818110D3*
Y2718110D3*
Y2618110D3*
Y2518110D3*
X3113386D3*
Y2618110D3*
Y2718110D3*
Y2818110D3*
Y2918110D3*
Y3018110D3*
Y3118110D3*
Y3218110D3*
Y3318110D3*
Y3418110D3*
Y3518110D3*
Y3618110D3*
Y3718110D3*
Y3818110D3*
Y3918110D3*
Y4018110D3*
D17*
X1613386Y2118110D3*
D18*
Y2218110D3*
Y2318110D3*
Y2418110D3*
Y2518110D3*
Y2618110D3*
Y2718110D3*
Y2818110D3*
Y2918110D3*
Y3018110D3*
Y3118110D3*
Y3218110D3*
Y3318110D3*
Y3418110D3*
Y3518110D3*
Y3618110D3*
Y3718110D3*
Y3818110D3*
Y3918110D3*
Y4018110D3*
X1013386D3*
Y3918110D3*
Y3818110D3*
Y3718110D3*
Y3618110D3*
Y3518110D3*
Y3418110D3*
Y3318110D3*
Y3218110D3*
Y3118110D3*
Y3018110D3*
Y2918110D3*
Y2818110D3*
Y2718110D3*
Y2618110D3*
Y2518110D3*
Y2418110D3*
Y2318110D3*
Y2218110D3*
Y2118110D3*
D19*
X4413386Y518110D3*
D20*
X1313386Y918110D3*
D21*
X1413386D3*
X1513386D3*
X1613386D3*
X1713386D3*
X1813386D3*
X1913386D3*
X2013386D3*
X2113386D3*
X2213386D3*
X2313386D3*
X2413386D3*
X2513386D3*
X2613386D3*
Y1518110D3*
X2513386D3*
X2413386D3*
X2313386D3*
X2213386D3*
X2113386D3*
X2013386D3*
X1913386D3*
X1813386D3*
X1713386D3*
X1613386D3*
X1513386D3*
X1413386D3*
X1313386D3*
D17*
X3513386Y1568110D3*
D18*
X3613386D3*
X3713386D3*
X3813386D3*
X3913386D3*
X4013386D3*
X4113386D3*
X4213386D3*
X4313386D3*
X4413386D3*
Y1868110D3*
X4313386D3*
X4213386D3*
X4113386D3*
X4013386D3*
X3913386D3*
X3813386D3*
X3713386D3*
X3613386D3*
X3513386D3*
D22*
X3513189Y1717717D3*
X4413189D3*
X2063780Y1917913D3*
Y2817913D3*
D17*
X3113386Y568110D3*
D22*
X3713386D3*
Y868110D3*
X3113386D3*
D17*
X3914961Y1368110D3*
D22*
X4013386D3*
D23*
X3985039Y918110D3*
D24*
X4213386D3*
D25*
X4103150Y1107087D3*
D19*
X713386Y518110D3*
D26*
X4413386Y2618110D3*
D27*
Y2718110D3*
Y2818110D3*
Y2918110D3*
Y3018110D3*
Y3118110D3*
Y3218110D3*
Y3318110D3*
Y3418110D3*
Y3518110D3*
Y3618110D3*
Y3718110D3*
D17*
X4013386Y2118110D3*
D18*
Y2218110D3*
Y2318110D3*
Y2418110D3*
Y2518110D3*
Y2618110D3*
Y2718110D3*
Y2818110D3*
Y2918110D3*
Y3018110D3*
Y3118110D3*
Y3218110D3*
Y3318110D3*
Y3418110D3*
Y3518110D3*
Y3618110D3*
Y3718110D3*
Y3818110D3*
Y3918110D3*
Y4018110D3*
X3413386D3*
Y3918110D3*
Y3818110D3*
Y3718110D3*
Y3618110D3*
Y3518110D3*
Y3418110D3*
Y3318110D3*
Y3218110D3*
Y3118110D3*
Y3018110D3*
Y2918110D3*
Y2818110D3*
Y2718110D3*
Y2618110D3*
Y2518110D3*
Y2418110D3*
Y2318110D3*
Y2218110D3*
Y2118110D3*
D28*
X813386Y1818110D3*
D29*
X763386Y1768110D3*
X713386Y1818110D3*
D17*
X763386Y2318110D3*
D18*
Y2418110D3*
Y2518110D3*
Y2618110D3*
Y2718110D3*
Y2818110D3*
D22*
X2813386Y3868110D3*
Y2718110D3*
D17*
X2213386Y1918110D3*
D18*
Y2018110D3*
Y2118110D3*
Y2218110D3*
Y2318110D3*
Y2418110D3*
Y2518110D3*
Y2618110D3*
Y2718110D3*
Y2818110D3*
X1913386D3*
Y2718110D3*
Y2618110D3*
Y2518110D3*
Y2418110D3*
Y2318110D3*
Y2218110D3*
Y2118110D3*
Y2018110D3*
Y1918110D3*
D17*
X3113386Y1068110D3*
D18*
X3213386D3*
X3313386D3*
X3413386D3*
X3513386D3*
X3613386D3*
X3713386D3*
Y1368110D3*
X3613386D3*
X3513386D3*
X3413386D3*
X3313386D3*
X3213386D3*
X3113386D3*
D17*
X2513386Y1918110D3*
D18*
X2613386D3*
X2713386D3*
X2813386D3*
X2913386D3*
X3013386D3*
X3113386D3*
Y2218110D3*
X3013386D3*
X2913386D3*
X2813386D3*
X2713386D3*
X2613386D3*
X2513386D3*
D22*
X1313386Y2818110D3*
Y3968110D3*
D17*
X2213386Y3118110D3*
D18*
Y3218110D3*
Y3318110D3*
Y3418110D3*
Y3518110D3*
Y3618110D3*
Y3718110D3*
Y3818110D3*
Y3918110D3*
Y4018110D3*
X1913386D3*
Y3918110D3*
Y3818110D3*
Y3718110D3*
Y3618110D3*
Y3518110D3*
Y3418110D3*
Y3318110D3*
Y3218110D3*
Y3118110D3*
D30*
X4213386Y1268110D3*
D31*
X4313386D3*
X4413386D3*
D22*
X2063780Y3117913D3*
Y4017913D3*
D19*
X753543Y4218110D3*
Y2054331D3*
D32*
X1253543Y4218110D3*
X2453543D3*
X2553543D3*
D19*
X4413386D3*
Y2054331D3*
D32*
X1053543Y4218110D3*
X1153543D3*
X1353543D3*
X1453543D3*
X1553543D3*
X1653543D3*
X1753543D3*
X1853543D3*
X1953543D3*
X2053543D3*
X2153543D3*
X2253543D3*
X2353543D3*
D22*
X3713386Y3668110D3*
Y2518110D3*
X813386Y1116535D3*
Y1018110D3*
M02*
