%TF.GenerationSoftware,Novarm,DipTrace,4.3.0.5*%
%TF.CreationDate,2023-08-31T12:43:09+01:00*%
%FSLAX26Y26*%
%MOIN*%
%TF.FileFunction,Copper,L2,Bot*%
%TF.Part,Single*%
%TA.AperFunction,Conductor*%
%ADD13C,0.009843*%
%TA.AperFunction,ComponentPad*%
%ADD17R,0.062992X0.062992*%
%ADD18C,0.062992*%
%ADD19C,0.19685*%
%ADD20R,0.056693X0.056693*%
%ADD21C,0.056693*%
%ADD22C,0.062992*%
%ADD23R,0.070866X0.173228*%
%ADD24O,0.070866X0.15748*%
%ADD25O,0.15748X0.070866*%
%ADD26R,0.066929X0.066929*%
%ADD27C,0.066929*%
%ADD28R,0.051181X0.051181*%
%ADD29C,0.051181*%
%ADD30R,0.075X0.07874*%
%ADD31O,0.075X0.07874*%
%ADD32C,0.07874*%
%TA.AperFunction,ViaPad*%
%ADD33C,0.04*%
G75*
G01*
%LPD*%
X1313386Y1518110D2*
D13*
Y1881382D1*
X1286811Y1907957D1*
Y1957799D1*
X3113386Y868110D2*
X3159649Y914374D1*
Y1302953D1*
X3178547Y1321851D1*
X3239964D1*
X3259649Y1341536D1*
Y1589228D1*
X3293272Y1622851D1*
Y1708504D1*
X1286811Y2499138D2*
Y2720103D1*
X1252370Y2754544D1*
Y2818111D1*
X1247299Y2823182D1*
Y3702288D1*
X1153543Y3796044D1*
Y4218110D1*
X763386Y2318110D2*
Y2250374D1*
X869882Y2143878D1*
Y1971555D1*
X763386Y1865058D1*
Y1768110D1*
X3178547Y1321851D2*
X3159645D1*
X3113386Y1368110D1*
X4413386Y1268110D2*
X4465653D1*
Y1597835D1*
X4445968Y1617520D1*
X4279331D1*
X4259646Y1637205D1*
Y2564371D1*
X4413386Y2718110D1*
X2063780Y1917913D2*
X2063779Y1723268D1*
X1913386Y3118110D2*
X1860791Y3065516D1*
Y2361485D1*
X2813386Y3868110D2*
Y3584058D1*
X2793701Y3564374D1*
X2423480D1*
X2403795Y3544689D1*
Y3099138D1*
X1313386Y2818110D2*
X1252370Y2818111D1*
X1286811Y1957799D2*
Y2499138D1*
X3513189Y1717717D2*
X3559646Y1671259D1*
Y1491658D1*
X3579331Y1471973D1*
X3811098D1*
X3914961Y1368110D1*
X3293272Y1708504D2*
X3414984D1*
X3424197Y1717717D1*
X3513189D1*
X763386Y1768110D2*
X813386Y1718110D1*
Y1116535D1*
X2513386Y2918110D2*
X2559650D1*
X2579335Y2898425D1*
Y2318819D1*
X1188307Y3899138D2*
Y4123091D1*
X1207992Y4142776D1*
X1278209D1*
X1353543Y4218110D1*
X1485240Y3899138D2*
X1520004Y3864374D1*
X1639961D1*
X1659646Y3844689D1*
Y3684060D1*
X1639960Y3664374D1*
X1495870D1*
X1476185Y3644689D1*
Y1769808D1*
X1491264Y1754729D1*
X1356657Y2918114D2*
Y3899138D1*
X2456500Y1455319D2*
X2406657D1*
Y1307992D1*
X2213386Y1114720D1*
Y918110D1*
X2579335Y2318819D2*
X2476185D1*
X2456500Y2299134D1*
Y1455319D1*
X2013386Y1238461D2*
Y1518110D1*
X2959649Y1238461D2*
Y3118114D1*
X1791264Y1999138D2*
Y1844047D1*
X1856500Y1778811D1*
Y1238461D1*
X879177Y3264374D2*
Y2902721D1*
X1321894Y3264374D2*
Y3867244D1*
X1252051Y3937087D1*
Y4044689D1*
X1271736Y4064374D1*
X1639961D1*
X1659646Y4044689D1*
Y3964371D1*
X1613386Y3918110D1*
X879177Y2764374D2*
X889567Y2753984D1*
Y2007642D1*
X904646Y1992563D1*
X1613386Y4018110D2*
X1414098D1*
X1394413Y3998426D1*
Y1719965D1*
X1813386Y1518110D2*
Y1719965D1*
X2513386Y3718110D2*
X2703311D1*
X2722996Y3737796D1*
Y3894689D1*
X2742681Y3914374D1*
X2858197D1*
X2877882Y3894689D1*
Y2791556D1*
X2862799Y2776473D1*
Y1387362D1*
X3113386Y3618110D2*
X3159649Y3664374D1*
X3639961D1*
X3659646Y3644689D1*
Y1621850D1*
X3713386Y1568110D1*
X1413386Y1518110D2*
X1359649Y1571847D1*
Y2864375D1*
X1287130Y2936894D1*
Y3707209D1*
X3913386Y1568110D2*
X3859646Y1621850D1*
Y3944688D1*
X3839960Y3964374D1*
X3159649D1*
X3113386Y3918110D1*
X1313386Y918110D2*
X1152009D1*
X1132323Y937796D1*
Y2280370D1*
X1094409Y2318284D1*
Y3537087D1*
X1013386Y3618110D1*
X2148153Y1668819D2*
X2035240D1*
X2015555Y1688504D1*
Y2709843D1*
X1959646Y2765752D1*
Y3171850D1*
X1913386Y3218110D1*
X4013386Y1568110D2*
X3959646Y1621850D1*
Y4118823D1*
X2513386Y3918110D2*
X2688232Y3918111D1*
X3047441Y3764374D2*
Y3818110D1*
X3113386D1*
X2688232Y3764374D2*
X2329177D1*
X2309492Y3784059D1*
Y3944689D1*
X2289807Y3964374D1*
X2149409D1*
X2129724Y3944689D1*
Y3820555D1*
X2032323Y3723154D1*
Y3437048D1*
X1913386Y3318110D1*
X3113386Y3818110D2*
X3167122Y3764374D1*
X3739964D1*
X3759649Y3744689D1*
Y1538387D1*
X3779335Y1518701D1*
X4063976D1*
X4113386Y1568110D1*
X2513386Y4018110D2*
X2408071D1*
X2361807Y4064374D1*
X2185689D1*
X2012638Y3891323D1*
Y3517363D1*
X1913386Y3418110D1*
X2408071Y3902288D2*
Y4018110D1*
X2757760Y3824736D2*
Y3684059D1*
X2738075Y3664374D1*
X2299016D1*
X2279331Y3684059D1*
Y3897685D1*
X2274728Y3902288D1*
X4213386Y1746296D2*
Y1568110D1*
X2759649Y1307988D2*
Y2240453D1*
X2813783Y2294587D1*
Y2621497D1*
X2752441Y2682839D1*
Y3433902D1*
X2732756Y3453587D1*
X2579334D1*
X2559649Y3433902D1*
Y3064374D1*
X2513386Y3018110D1*
X2113386Y918110D2*
Y1307988D1*
X2513386Y3018110D2*
Y3032878D1*
X2481890Y3064374D1*
X2434090D1*
X2383622Y3013906D1*
X1448153Y1128859D2*
X1191697Y1385315D1*
Y3065524D1*
X1177772Y3079449D1*
X1613386Y3218110D2*
X1556500Y3161225D1*
Y875000D1*
X1576185Y855315D1*
X1850590D1*
X1913386Y918110D1*
X1613386Y3318110D2*
X1662796D1*
X1682480Y3298426D1*
Y1580910D1*
X1702165Y1561225D1*
X1736815D1*
X1756500Y1541540D1*
Y974996D1*
X1813386Y918110D1*
X1756500Y1595988D2*
Y3399213D1*
X1737602Y3418111D1*
X1756500Y3437009D1*
Y3947839D1*
X1776185Y3967524D1*
X2017520D1*
X1713386Y918110D2*
Y1447044D1*
X1737602Y3418111D2*
Y3418110D1*
X1613386D1*
Y3518110D2*
X1567126Y3471851D1*
Y3284059D1*
X1586811Y3264374D1*
X1643110D1*
X1662795Y3244689D1*
Y967520D1*
X1613386Y918110D1*
X702047Y2185748D2*
Y3644689D1*
X721732Y3664374D1*
X913941D1*
X1097559Y1942721D2*
Y875004D1*
X1117244Y855319D1*
X1450594D1*
X1513386Y918110D1*
X1212535Y3667524D2*
Y1649284D1*
X1226460Y1635359D1*
X2708374Y4103744D2*
X3159650D1*
X3179335Y4084059D1*
Y3999138D1*
X1613386Y3818110D2*
X1448862D1*
X1429177Y3798426D1*
Y1677563D1*
X1421736Y1670122D1*
X3062520Y3661485D2*
Y3584059D1*
X3082205Y3564374D1*
X3132779D1*
X3186516Y3618110D1*
X3413386D1*
X3013386Y2218110D2*
Y2264370D1*
X2994413Y2283343D1*
Y3660064D1*
X2992992Y3661485D1*
X1321575Y2167524D2*
Y2418111D1*
X2913386Y1918110D2*
Y841536D1*
X2933071Y821851D1*
X3193701D1*
X3213386Y841535D1*
Y1068110D1*
X2913386Y2052937D2*
Y1918110D1*
X2513386Y2818110D2*
X2368543Y2673268D1*
Y2090433D1*
X2327917Y2049807D1*
Y1821134D1*
X2356500Y1792551D1*
Y1430768D1*
X2156500Y1230768D1*
Y894685D1*
X2176185Y875000D1*
X2270275D1*
X2313386Y918110D1*
X3413386Y2818110D2*
X3459646Y2864371D1*
Y3544688D1*
X3439960Y3564374D1*
X3298697D1*
Y3999138D2*
Y4255709D1*
X3279012Y4275394D1*
X1710827D1*
X1653543Y4218110D1*
X2327917Y2049807D2*
X2309019Y2068705D1*
X2142677D1*
X1913386Y2218110D2*
X1976185Y2155311D1*
Y1580910D1*
X1995870Y1561225D1*
X2048153D1*
X2067838Y1541540D1*
Y1203697D1*
X2513386Y2718110D2*
X2448149Y2652874D1*
Y2368662D1*
X1223071Y3779453D2*
Y4084059D1*
X1242756Y4103744D1*
X1639177D1*
X1753543Y4218110D1*
X2067838Y1203697D2*
Y875000D1*
X2087523Y855315D1*
X2350590D1*
X2413386Y918110D1*
X1463941Y3779453D2*
X1456500Y3772012D1*
Y1213945D1*
X2513386Y918110D2*
X2559649Y964374D1*
Y1196992D1*
X2513386Y2618110D2*
X2559649Y2664374D1*
Y2844693D1*
X2539964Y2864378D1*
X2486811D1*
X2467126Y2884063D1*
Y2944689D1*
X2486811Y2964374D1*
X2556760D1*
X1959646Y2567957D2*
Y2364371D1*
X1913386Y2318110D1*
X2667835Y2964374D2*
X2717677D1*
X2559649Y1196992D2*
Y2229960D1*
X2667835Y2338146D1*
Y2964374D1*
X1104602Y4158193D2*
X1114094Y4148701D1*
Y3052249D1*
X1172012Y2994331D1*
Y1094095D1*
X1191697Y1074410D1*
X1463713D1*
X1483398Y1094095D1*
Y1164103D1*
X3113386Y2518110D2*
X3218705D1*
X3238390Y2537796D1*
Y3098426D1*
X3258075Y3118110D1*
X3413386D1*
X2613386Y1518110D2*
X2659649Y1564374D1*
Y2264370D1*
X2737362Y2342083D1*
Y2372559D1*
X2779020Y2414217D1*
X844413Y3714217D2*
X913941D1*
X844413Y2852878D2*
Y3629611D1*
X1391264Y1377516D2*
X1261224Y1507556D1*
Y1833339D1*
X1247299Y1847264D1*
Y2599138D1*
X3113386Y2618110D2*
X3199020D1*
X3218705Y2637796D1*
Y3198426D1*
X3238390Y3218110D1*
X3413386D1*
X2614098Y2375441D2*
Y2464374D1*
X2574728Y3999138D2*
Y4064374D1*
X2555043Y4084059D1*
X2187595D1*
X2053543Y4218110D1*
X2513386Y1518110D2*
Y1703583D1*
X3159649Y2375441D2*
Y2062185D1*
X3059649Y1962185D1*
Y1703583D1*
X2614098Y2464374D2*
Y3418823D1*
X3113386Y2718110D2*
X3179335D1*
X3199020Y2737796D1*
Y3298426D1*
X3218705Y3318110D1*
X3413386D1*
X2413386Y2664374D2*
Y1518110D1*
X3514094Y4153587D2*
Y3999138D1*
X1913386Y2718110D2*
X1995870Y2635626D1*
Y1600595D1*
X2015555Y1580910D1*
X2136815D1*
X2156500Y1561225D1*
Y1475000D1*
X2176185Y1455315D1*
X2250590D1*
X2313386Y1518110D1*
X3113386Y2818110D2*
X3159649Y2864374D1*
Y3144689D1*
X3139964Y3164374D1*
X3086811D1*
X3067126Y3184059D1*
Y3244689D1*
X3086811Y3264374D1*
X3139964D1*
X3159649Y3284059D1*
Y3398425D1*
X3179335Y3418110D1*
X3413386D1*
X3229177Y3999138D2*
Y4118823D1*
X3209492Y4138508D1*
X2333146D1*
X2253543Y4218110D1*
X3113386Y2918110D2*
X3047441Y2984055D1*
Y3444689D1*
X3067126Y3464374D1*
X3359649D1*
X3413386Y3518110D1*
X2010953Y2864374D2*
Y2769630D1*
X2035240Y2745343D1*
Y2038976D1*
X2110039Y1964177D1*
Y1852166D1*
X2213386Y1748819D1*
Y1518110D1*
X3348539Y4173272D2*
Y3999138D1*
X1717244Y3264374D2*
Y2968666D1*
X2213386Y2018110D2*
X2152043Y2018111D1*
X2259646Y2968666D2*
Y3171850D1*
X2213386Y3218110D1*
X1059646Y2964374D2*
Y2864371D1*
X1013386Y2818110D1*
X1717244Y2968666D2*
Y1964374D1*
X2213386Y3318110D2*
X2309488Y3222008D1*
Y2484059D1*
X2289803Y2464374D1*
X2186807D1*
X2167122Y2444689D1*
Y2164374D1*
X2213386Y2118110D1*
X2110039Y3318111D2*
Y3084059D1*
X2090354Y3064374D1*
X2020405D1*
X2363937Y3418111D2*
X2348858Y3403032D1*
Y2983745D1*
X2363937Y2968666D1*
Y2933902D1*
X2213386Y3418110D2*
X2274724Y3418111D1*
X2363937Y2933902D2*
Y2886993D1*
X2348858Y2871914D1*
Y2353583D1*
X2213386Y2218110D1*
X1826027Y2299138D2*
Y3244689D1*
X1845712Y3264374D1*
X2047401D1*
X2067086Y3284059D1*
Y3518111D1*
X2213386Y2418110D2*
X2309488D1*
X2329173Y2437796D1*
Y3502323D1*
X2213386Y3618110D1*
Y2518110D2*
Y2532877D1*
X2181889Y2564374D1*
X2163701D1*
X2144803Y2583272D1*
Y3698426D1*
X2164488Y3718110D1*
X2213386D1*
X2163701Y2564374D2*
X2092835Y2493508D1*
Y2068705D1*
X2213386Y3818110D2*
X2259646Y3771850D1*
Y3684060D1*
X2239960Y3664374D1*
X2184173D1*
X2164488Y3644689D1*
Y2667008D1*
X2213386Y2618110D1*
X1826027Y3567524D2*
X1958189D1*
X1977874Y3587209D1*
Y3818111D1*
Y3918111D2*
Y3867524D1*
X1810949D1*
X1791264Y3847839D1*
Y3416150D1*
Y2664374D1*
X4413189Y1717717D2*
Y1779232D1*
X4413386Y1779428D1*
Y1868110D1*
X813386Y1018110D2*
X713386Y1118110D1*
Y1818110D1*
X3713386Y568110D2*
X3513386Y768110D1*
Y1068110D1*
X4413386Y1568110D2*
Y1451889D1*
X4313386Y1351889D1*
Y1268110D1*
X4013386Y1368110D2*
X3944291Y1299016D1*
X3713386D1*
X3682480D1*
X3613386Y1368110D1*
X1013386Y4018110D2*
Y4103354D1*
X1053543Y4143512D1*
Y4218110D1*
X3213386Y1368110D2*
Y1690127D1*
X3189567Y1713946D1*
Y1918111D1*
X3208464Y1937008D1*
Y2424894D1*
X3713386Y1068110D2*
Y1299016D1*
X2274724Y2518114D2*
Y2756772D1*
X2213386Y2818110D1*
X2813386Y2718110D2*
Y2892662D1*
X2787205Y2918843D1*
Y3199138D1*
X2948153Y3799138D2*
Y3199138D1*
X2213386Y4018110D2*
X2353623D1*
X2373307Y3998426D1*
Y3884059D1*
X2392992Y3864374D1*
X2688232D1*
X3113386Y1918110D2*
X3189567Y1918111D1*
X4413386Y2618110D2*
X4461618Y2666343D1*
Y2746654D1*
X4441933Y2766339D1*
X4259645D1*
X4239960Y2746654D1*
Y2344685D1*
X4013386Y2118110D1*
X4413386Y1868110D2*
X4279331Y2002165D1*
Y2484056D1*
X4413386Y2618110D1*
X3513386Y1068110D2*
Y1268110D1*
X3413386Y1368110D1*
X2213386Y2818110D2*
Y3118110D1*
X3813386Y1868110D2*
Y3798425D1*
X3793701Y3818110D1*
X3413386D1*
X3913386Y4203425D2*
Y1868110D1*
X4413386Y3518110D2*
X4082481D1*
X4062795Y3498425D1*
Y2967520D1*
X4013386Y2918110D1*
X4413386Y3618110D2*
X4239964Y3618111D1*
X4166583Y3667524D2*
X4217170Y3718110D1*
X4413386D1*
X3514094Y3567524D2*
Y2318819D1*
X3413386Y2218110D1*
X4413386Y2818110D2*
X4239961D1*
X4220275Y2798425D1*
Y2425000D1*
X4013386Y2218110D1*
X4413386Y2918110D2*
X4220276D1*
X4200590Y2898425D1*
Y2505315D1*
X4013386Y2318110D1*
X4413386Y3018110D2*
X4180906D1*
X4161220Y2998425D1*
Y2565945D1*
X4013386Y2418110D1*
X4413386Y3118110D2*
X4161221D1*
X4141535Y3098425D1*
Y2646260D1*
X4013386Y2518110D1*
X4413386Y3218110D2*
X4141536D1*
X4121850Y3198425D1*
Y2726575D1*
X4013386Y2618110D1*
X4413386Y3318110D2*
X4121851D1*
X4102165Y3298425D1*
Y2806890D1*
X4013386Y2718110D1*
X4413386Y3418110D2*
X4102166D1*
X4082480Y3398425D1*
Y2887205D1*
X4013386Y2818110D1*
X924331Y2299138D2*
Y2164374D1*
X824728Y2299138D2*
Y2656768D1*
X763386Y2718110D1*
X1013386Y2518110D2*
X913941Y2617555D1*
Y2798425D1*
X894256Y2818110D1*
X763386D1*
X3513386Y1568110D2*
Y1476996D1*
X3562799Y1427583D1*
Y1018697D1*
X3713386Y868110D1*
X3297445Y3018111D2*
Y1782642D1*
X3317130Y1762957D1*
X3431429D1*
X3432449Y1763977D1*
X3509252D1*
X3613386Y1868110D1*
X2913386Y2218110D2*
Y3844688D1*
X2933071Y3864374D1*
X3359649D1*
X3413386Y3918110D1*
X1062795Y1867248D2*
Y2668701D1*
X1013386Y2718110D1*
X2213386Y1918110D2*
X2144803Y1918111D1*
X1013386Y2718110D2*
X963980Y2767516D1*
Y4255709D1*
X983665Y4275394D1*
X1396260D1*
X1453543Y4218110D1*
X3583622Y3699138D2*
X3564650Y3718110D1*
X3413386D1*
X3366972Y1959477D2*
X3583622Y2176127D1*
Y3617362D1*
X959094Y1832485D2*
Y2163819D1*
X1013386Y2218110D1*
X1510949Y2029611D2*
Y3544689D1*
X1530634Y3564374D1*
X1714177D1*
X1733862Y3584059D1*
Y3998425D1*
X1753548Y4018110D1*
X1913386D1*
X1841106Y2029611D2*
Y1888812D1*
X1956500Y1773418D1*
Y802166D1*
X1976185Y782481D1*
X3393701D1*
X3413386Y802165D1*
Y1068110D1*
X1913386Y2018110D2*
Y2032877D1*
X1881889Y2064374D1*
X1861106D1*
X1841106Y2044374D1*
Y2029611D1*
X2843118Y3064374D2*
Y3364374D1*
X1137248Y2464374D2*
Y2767524D1*
X3113386Y2218110D2*
Y2339473D1*
X3067126Y2385733D1*
Y2744689D1*
X3086811Y2764374D1*
X3159650D1*
X3179335Y2784059D1*
Y3198425D1*
X3159650Y3218110D1*
X3113386D1*
X813386Y1818110D2*
X833775Y1797721D1*
X1013386D1*
Y2118110D1*
X3332209Y1797721D2*
Y2636934D1*
X3413386Y2718110D1*
X3013386Y1918110D2*
Y2127078D1*
X3059649Y2173342D1*
Y2268107D1*
X3027756Y2300000D1*
Y3698426D1*
X3047441Y3718110D1*
X3113386D1*
D33*
X1286811Y1957799D3*
X2063779Y1723268D3*
X1860791Y2361485D3*
X2403795Y3099138D3*
X3293272Y1708504D3*
X1286811Y2499138D3*
X1188307Y3899138D3*
X2456500Y1455319D3*
X1491264Y1754729D3*
X1485240Y3899138D3*
X1356657D3*
X2579335Y2318819D3*
X1356657Y2918114D3*
X2959649Y3118114D3*
Y1238461D3*
X1856500D3*
X1791264Y1999138D3*
X904646Y1992563D3*
X879177Y2764374D3*
Y2902721D3*
Y3264374D3*
X1321894D3*
X2013386Y1238461D3*
X1394413Y1719965D3*
X1813386D3*
X2862799Y1387362D3*
X1287130Y3707209D3*
X2148153Y1668819D3*
X3959646Y4118823D3*
X2688232Y3918111D3*
Y3764374D3*
X3047441D3*
X2408071Y3902288D3*
X2274728D3*
X2757760Y3824736D3*
X4213386Y1746296D3*
X2759649Y1307988D3*
X2113386D3*
X2383622Y3013906D3*
X1177772Y3079449D3*
X1448153Y1128859D3*
X2017520Y3967524D3*
X1756500Y1595988D3*
X1713386Y1447044D3*
X913941Y3664374D3*
X702047Y2185748D3*
X1097559Y1942721D3*
X1226460Y1635359D3*
X1212535Y3667524D3*
X3179335Y3999138D3*
X2708374Y4103744D3*
X1421736Y1670122D3*
X3062520Y3661485D3*
X2992992D3*
X1321575Y2418111D3*
Y2167524D3*
X2913386Y2052937D3*
X3298697Y3564374D3*
Y3999138D3*
X2142677Y2068705D3*
X2448149Y2368662D3*
X1456500Y1213945D3*
X1463941Y3779453D3*
X1223071D3*
X2067838Y1203697D3*
X2559649Y1196992D3*
X1483398Y1164103D3*
X1104602Y4158193D3*
X2556760Y2964374D3*
X2667835D3*
X1959646Y2567957D3*
X2717677Y2964374D3*
X913941Y3714217D3*
X844413D3*
Y3629611D3*
Y2852878D3*
X1247299Y2599138D3*
X1391264Y1377516D3*
X2779020Y2414217D3*
X2614098Y3418823D3*
X2574728Y3999138D3*
X2513386Y1703583D3*
X3059649D3*
X3159649Y2375441D3*
X2614098D3*
Y2464374D3*
X3514094Y3999138D3*
Y4153587D3*
X2413386Y2664374D3*
X3229177Y3999138D3*
X2010953Y2864374D3*
X3348539Y3999138D3*
Y4173272D3*
X1717244Y1964374D3*
X2152043Y2018111D3*
X2259646Y2968666D3*
X1717244Y3264374D3*
X1059646Y2964374D3*
X1717244Y2968666D3*
X2020405Y3064374D3*
X2110039Y3318111D3*
X2363937Y3418111D3*
X2274724D3*
X2363937Y2933902D3*
X2067086Y3518111D3*
X1826027Y2299138D3*
X2092835Y2068705D3*
X1977874Y3818111D3*
X1826027Y3567524D3*
X1791264Y2664374D3*
X1977874Y3918111D3*
X1791264Y3416150D3*
X3208464Y2424894D3*
X2787205Y3199138D3*
X2948153D3*
Y3799138D3*
X2688232Y3864374D3*
X2274724Y2518114D3*
X3913386Y4203425D3*
X4239964Y3618111D3*
X4166583Y3667524D3*
X3514094Y3567524D3*
X924331Y2164374D3*
Y2299138D3*
X824728D3*
X3297445Y3018111D3*
X1062795Y1867248D3*
X2144803Y1918111D3*
X3583622Y3699138D3*
Y3617362D3*
X3366972Y1959477D3*
X959094Y1832485D3*
X1510949Y2029611D3*
X1841106D3*
X2843118Y3364374D3*
Y3064374D3*
X1137248Y2767524D3*
Y2464374D3*
X3332209Y1797721D3*
D17*
X2513386Y4018110D3*
D18*
Y3918110D3*
Y3818110D3*
Y3718110D3*
Y3618110D3*
Y3518110D3*
Y3418110D3*
Y3318110D3*
Y3218110D3*
Y3118110D3*
Y3018110D3*
Y2918110D3*
Y2818110D3*
Y2718110D3*
Y2618110D3*
Y2518110D3*
X3113386D3*
Y2618110D3*
Y2718110D3*
Y2818110D3*
Y2918110D3*
Y3018110D3*
Y3118110D3*
Y3218110D3*
Y3318110D3*
Y3418110D3*
Y3518110D3*
Y3618110D3*
Y3718110D3*
Y3818110D3*
Y3918110D3*
Y4018110D3*
D17*
X1613386Y2118110D3*
D18*
Y2218110D3*
Y2318110D3*
Y2418110D3*
Y2518110D3*
Y2618110D3*
Y2718110D3*
Y2818110D3*
Y2918110D3*
Y3018110D3*
Y3118110D3*
Y3218110D3*
Y3318110D3*
Y3418110D3*
Y3518110D3*
Y3618110D3*
Y3718110D3*
Y3818110D3*
Y3918110D3*
Y4018110D3*
X1013386D3*
Y3918110D3*
Y3818110D3*
Y3718110D3*
Y3618110D3*
Y3518110D3*
Y3418110D3*
Y3318110D3*
Y3218110D3*
Y3118110D3*
Y3018110D3*
Y2918110D3*
Y2818110D3*
Y2718110D3*
Y2618110D3*
Y2518110D3*
Y2418110D3*
Y2318110D3*
Y2218110D3*
Y2118110D3*
D19*
X4413386Y518110D3*
D20*
X1313386Y918110D3*
D21*
X1413386D3*
X1513386D3*
X1613386D3*
X1713386D3*
X1813386D3*
X1913386D3*
X2013386D3*
X2113386D3*
X2213386D3*
X2313386D3*
X2413386D3*
X2513386D3*
X2613386D3*
Y1518110D3*
X2513386D3*
X2413386D3*
X2313386D3*
X2213386D3*
X2113386D3*
X2013386D3*
X1913386D3*
X1813386D3*
X1713386D3*
X1613386D3*
X1513386D3*
X1413386D3*
X1313386D3*
D17*
X3513386Y1568110D3*
D18*
X3613386D3*
X3713386D3*
X3813386D3*
X3913386D3*
X4013386D3*
X4113386D3*
X4213386D3*
X4313386D3*
X4413386D3*
Y1868110D3*
X4313386D3*
X4213386D3*
X4113386D3*
X4013386D3*
X3913386D3*
X3813386D3*
X3713386D3*
X3613386D3*
X3513386D3*
D22*
X3513189Y1717717D3*
X4413189D3*
X2063780Y1917913D3*
Y2817913D3*
D17*
X3113386Y568110D3*
D22*
X3713386D3*
Y868110D3*
X3113386D3*
D17*
X3914961Y1368110D3*
D22*
X4013386D3*
D23*
X3985039Y918110D3*
D24*
X4213386D3*
D25*
X4103150Y1107087D3*
D19*
X713386Y518110D3*
D26*
X4413386Y2618110D3*
D27*
Y2718110D3*
Y2818110D3*
Y2918110D3*
Y3018110D3*
Y3118110D3*
Y3218110D3*
Y3318110D3*
Y3418110D3*
Y3518110D3*
Y3618110D3*
Y3718110D3*
D17*
X4013386Y2118110D3*
D18*
Y2218110D3*
Y2318110D3*
Y2418110D3*
Y2518110D3*
Y2618110D3*
Y2718110D3*
Y2818110D3*
Y2918110D3*
Y3018110D3*
Y3118110D3*
Y3218110D3*
Y3318110D3*
Y3418110D3*
Y3518110D3*
Y3618110D3*
Y3718110D3*
Y3818110D3*
Y3918110D3*
Y4018110D3*
X3413386D3*
Y3918110D3*
Y3818110D3*
Y3718110D3*
Y3618110D3*
Y3518110D3*
Y3418110D3*
Y3318110D3*
Y3218110D3*
Y3118110D3*
Y3018110D3*
Y2918110D3*
Y2818110D3*
Y2718110D3*
Y2618110D3*
Y2518110D3*
Y2418110D3*
Y2318110D3*
Y2218110D3*
Y2118110D3*
D28*
X813386Y1818110D3*
D29*
X763386Y1768110D3*
X713386Y1818110D3*
D17*
X763386Y2318110D3*
D18*
Y2418110D3*
Y2518110D3*
Y2618110D3*
Y2718110D3*
Y2818110D3*
D22*
X2813386Y3868110D3*
Y2718110D3*
D17*
X2213386Y1918110D3*
D18*
Y2018110D3*
Y2118110D3*
Y2218110D3*
Y2318110D3*
Y2418110D3*
Y2518110D3*
Y2618110D3*
Y2718110D3*
Y2818110D3*
X1913386D3*
Y2718110D3*
Y2618110D3*
Y2518110D3*
Y2418110D3*
Y2318110D3*
Y2218110D3*
Y2118110D3*
Y2018110D3*
Y1918110D3*
D17*
X3113386Y1068110D3*
D18*
X3213386D3*
X3313386D3*
X3413386D3*
X3513386D3*
X3613386D3*
X3713386D3*
Y1368110D3*
X3613386D3*
X3513386D3*
X3413386D3*
X3313386D3*
X3213386D3*
X3113386D3*
D17*
X2513386Y1918110D3*
D18*
X2613386D3*
X2713386D3*
X2813386D3*
X2913386D3*
X3013386D3*
X3113386D3*
Y2218110D3*
X3013386D3*
X2913386D3*
X2813386D3*
X2713386D3*
X2613386D3*
X2513386D3*
D22*
X1313386Y2818110D3*
Y3968110D3*
D17*
X2213386Y3118110D3*
D18*
Y3218110D3*
Y3318110D3*
Y3418110D3*
Y3518110D3*
Y3618110D3*
Y3718110D3*
Y3818110D3*
Y3918110D3*
Y4018110D3*
X1913386D3*
Y3918110D3*
Y3818110D3*
Y3718110D3*
Y3618110D3*
Y3518110D3*
Y3418110D3*
Y3318110D3*
Y3218110D3*
Y3118110D3*
D30*
X4213386Y1268110D3*
D31*
X4313386D3*
X4413386D3*
D22*
X2063780Y3117913D3*
Y4017913D3*
D19*
X753543Y4218110D3*
Y2054331D3*
D32*
X1253543Y4218110D3*
X2453543D3*
X2553543D3*
D19*
X4413386D3*
Y2054331D3*
D32*
X1053543Y4218110D3*
X1153543D3*
X1353543D3*
X1453543D3*
X1553543D3*
X1653543D3*
X1753543D3*
X1853543D3*
X1953543D3*
X2053543D3*
X2153543D3*
X2253543D3*
X2353543D3*
D22*
X3713386Y3668110D3*
Y2518110D3*
X813386Y1116535D3*
Y1018110D3*
M02*
