%TF.GenerationSoftware,Novarm,DipTrace,4.3.0.5*%
%TF.CreationDate,2023-08-31T12:43:09+01:00*%
%FSLAX26Y26*%
%MOIN*%
%TF.FileFunction,Soldermask,Bot*%
%TF.Part,Single*%
%ADD26R,0.066929X0.066929*%
%ADD27C,0.066929*%
%ADD43C,0.082677*%
%ADD45O,0.078937X0.082677*%
%ADD47R,0.078937X0.082677*%
%ADD49C,0.055118*%
%ADD51R,0.055118X0.055118*%
%ADD53C,0.070866*%
%ADD54R,0.070866X0.070866*%
%ADD55O,0.161417X0.074803*%
%ADD57O,0.074803X0.161417*%
%ADD59R,0.074803X0.177165*%
%ADD61C,0.066929*%
%ADD63C,0.06063*%
%ADD65R,0.06063X0.06063*%
%ADD67C,0.200787*%
G75*
G01*
%LPD*%
D26*
X2513386Y4018110D3*
D27*
Y3918110D3*
Y3818110D3*
Y3718110D3*
Y3618110D3*
Y3518110D3*
Y3418110D3*
Y3318110D3*
Y3218110D3*
Y3118110D3*
Y3018110D3*
Y2918110D3*
Y2818110D3*
Y2718110D3*
Y2618110D3*
Y2518110D3*
X3113386D3*
Y2618110D3*
Y2718110D3*
Y2818110D3*
Y2918110D3*
Y3018110D3*
Y3118110D3*
Y3218110D3*
Y3318110D3*
Y3418110D3*
Y3518110D3*
Y3618110D3*
Y3718110D3*
Y3818110D3*
Y3918110D3*
Y4018110D3*
D26*
X1613386Y2118110D3*
D27*
Y2218110D3*
Y2318110D3*
Y2418110D3*
Y2518110D3*
Y2618110D3*
Y2718110D3*
Y2818110D3*
Y2918110D3*
Y3018110D3*
Y3118110D3*
Y3218110D3*
Y3318110D3*
Y3418110D3*
Y3518110D3*
Y3618110D3*
Y3718110D3*
Y3818110D3*
Y3918110D3*
Y4018110D3*
X1013386D3*
Y3918110D3*
Y3818110D3*
Y3718110D3*
Y3618110D3*
Y3518110D3*
Y3418110D3*
Y3318110D3*
Y3218110D3*
Y3118110D3*
Y3018110D3*
Y2918110D3*
Y2818110D3*
Y2718110D3*
Y2618110D3*
Y2518110D3*
Y2418110D3*
Y2318110D3*
Y2218110D3*
Y2118110D3*
D67*
X4413386Y518110D3*
D65*
X1313386Y918110D3*
D63*
X1413386D3*
X1513386D3*
X1613386D3*
X1713386D3*
X1813386D3*
X1913386D3*
X2013386D3*
X2113386D3*
X2213386D3*
X2313386D3*
X2413386D3*
X2513386D3*
X2613386D3*
Y1518110D3*
X2513386D3*
X2413386D3*
X2313386D3*
X2213386D3*
X2113386D3*
X2013386D3*
X1913386D3*
X1813386D3*
X1713386D3*
X1613386D3*
X1513386D3*
X1413386D3*
X1313386D3*
D26*
X3513386Y1568110D3*
D27*
X3613386D3*
X3713386D3*
X3813386D3*
X3913386D3*
X4013386D3*
X4113386D3*
X4213386D3*
X4313386D3*
X4413386D3*
Y1868110D3*
X4313386D3*
X4213386D3*
X4113386D3*
X4013386D3*
X3913386D3*
X3813386D3*
X3713386D3*
X3613386D3*
X3513386D3*
D61*
X3513189Y1717717D3*
X4413189D3*
X2063780Y1917913D3*
Y2817913D3*
D26*
X3113386Y568110D3*
D61*
X3713386D3*
Y868110D3*
X3113386D3*
D26*
X3914961Y1368110D3*
D61*
X4013386D3*
D59*
X3985039Y918110D3*
D57*
X4213386D3*
D55*
X4103150Y1107087D3*
D67*
X713386Y518110D3*
D54*
X4413386Y2618110D3*
D53*
Y2718110D3*
Y2818110D3*
Y2918110D3*
Y3018110D3*
Y3118110D3*
Y3218110D3*
Y3318110D3*
Y3418110D3*
Y3518110D3*
Y3618110D3*
Y3718110D3*
D26*
X4013386Y2118110D3*
D27*
Y2218110D3*
Y2318110D3*
Y2418110D3*
Y2518110D3*
Y2618110D3*
Y2718110D3*
Y2818110D3*
Y2918110D3*
Y3018110D3*
Y3118110D3*
Y3218110D3*
Y3318110D3*
Y3418110D3*
Y3518110D3*
Y3618110D3*
Y3718110D3*
Y3818110D3*
Y3918110D3*
Y4018110D3*
X3413386D3*
Y3918110D3*
Y3818110D3*
Y3718110D3*
Y3618110D3*
Y3518110D3*
Y3418110D3*
Y3318110D3*
Y3218110D3*
Y3118110D3*
Y3018110D3*
Y2918110D3*
Y2818110D3*
Y2718110D3*
Y2618110D3*
Y2518110D3*
Y2418110D3*
Y2318110D3*
Y2218110D3*
Y2118110D3*
D51*
X813386Y1818110D3*
D49*
X763386Y1768110D3*
X713386Y1818110D3*
D26*
X763386Y2318110D3*
D27*
Y2418110D3*
Y2518110D3*
Y2618110D3*
Y2718110D3*
Y2818110D3*
D61*
X2813386Y3868110D3*
Y2718110D3*
D26*
X2213386Y1918110D3*
D27*
Y2018110D3*
Y2118110D3*
Y2218110D3*
Y2318110D3*
Y2418110D3*
Y2518110D3*
Y2618110D3*
Y2718110D3*
Y2818110D3*
X1913386D3*
Y2718110D3*
Y2618110D3*
Y2518110D3*
Y2418110D3*
Y2318110D3*
Y2218110D3*
Y2118110D3*
Y2018110D3*
Y1918110D3*
D26*
X3113386Y1068110D3*
D27*
X3213386D3*
X3313386D3*
X3413386D3*
X3513386D3*
X3613386D3*
X3713386D3*
Y1368110D3*
X3613386D3*
X3513386D3*
X3413386D3*
X3313386D3*
X3213386D3*
X3113386D3*
D26*
X2513386Y1918110D3*
D27*
X2613386D3*
X2713386D3*
X2813386D3*
X2913386D3*
X3013386D3*
X3113386D3*
Y2218110D3*
X3013386D3*
X2913386D3*
X2813386D3*
X2713386D3*
X2613386D3*
X2513386D3*
D61*
X1313386Y2818110D3*
Y3968110D3*
D26*
X2213386Y3118110D3*
D27*
Y3218110D3*
Y3318110D3*
Y3418110D3*
Y3518110D3*
Y3618110D3*
Y3718110D3*
Y3818110D3*
Y3918110D3*
Y4018110D3*
X1913386D3*
Y3918110D3*
Y3818110D3*
Y3718110D3*
Y3618110D3*
Y3518110D3*
Y3418110D3*
Y3318110D3*
Y3218110D3*
Y3118110D3*
D47*
X4213386Y1268110D3*
D45*
X4313386D3*
X4413386D3*
D61*
X2063780Y3117913D3*
Y4017913D3*
D67*
X753543Y4218110D3*
Y2054331D3*
D43*
X1253543Y4218110D3*
X2453543D3*
X2553543D3*
D67*
X4413386D3*
Y2054331D3*
D43*
X1053543Y4218110D3*
X1153543D3*
X1353543D3*
X1453543D3*
X1553543D3*
X1653543D3*
X1753543D3*
X1853543D3*
X1953543D3*
X2053543D3*
X2153543D3*
X2253543D3*
X2353543D3*
D61*
X3713386Y3668110D3*
Y2518110D3*
X813386Y1116535D3*
Y1018110D3*
M02*
