M48
INCH
T01C0.0191
T02C0.0295
T03C0.0315
T04C0.0354
T05C0.0394
T06C0.0433
T07C0.0984
%
T01
X+013134Y+020036
X+013944Y+021177
X+012589Y+021637
X+012427Y+022644
X+011187Y+024041
X+012079Y+025328
X+010596Y+026675
X+010596Y+027615
X+012474Y+030142
X+013134Y+029644
X+014913Y+026644
X+014913Y+025328
X+018481Y+023181
X+019747Y+023991
X+020141Y+023066
X+021096Y+020644
X+020134Y+019833
X+018324Y+019833
X+017369Y+019833
X+016134Y+019833
X+014913Y+017852
X+015217Y+017354
X+014217Y+017354
X+013944Y+018593
X+011187Y+020683
X+010747Y+021181
X+009700Y+021644
X+010215Y+020036
X+010215Y+018847
X+013482Y+014419
X+018913Y+017354
X+020134Y+017354
X+022646Y+018593
X+022134Y+019485
X+023565Y+021142
X+024169Y+020644
X+023781Y+023024
X+025047Y+023024
X+025400Y+023381
X+025962Y+022676
X+027654Y+023582
X+026762Y+024869
X+024517Y+024174
X+023781Y+024522
X+023397Y+026188
X+023822Y+027644
X+023126Y+028644
X+026141Y+027991
X+028694Y+029644
X+029041Y+031181
X+029141Y+033181
X+030625Y+032644
X+030033Y+035343
X+031568Y+035644
X+033324Y+034991
X+033324Y+037991
X+035187Y+038296
X+035596Y+037691
X+037596Y+035991
X+038944Y+034675
X+035944Y+032644
X+032141Y+029991
X+032134Y+025529
X+031635Y+024480
X+032134Y+024128
X+031474Y+022644
X+030033Y+021142
X+028482Y+020529
X+029489Y+019341
X+029041Y+018246
X+028482Y+018246
X+027457Y+019289
X+027109Y+016144
X+024067Y+017701
X+023565Y+014419
X+023565Y+011876
X+020217Y+009575
X+020565Y+008833
X+034134Y+009742
X+037134Y+019341
X+037944Y+019688
X+038944Y+020371
X+034596Y+022615
X+028416Y+034644
X+027654Y+035644
X+026095Y+035991
X+025747Y+035142
X+025747Y+034644
X+025596Y+033644
X+024054Y+032991
X+021246Y+032675
X+021489Y+035181
X+022779Y+036023
X+022779Y+037023
X+023882Y+039177
X+022628Y+039675
X+024324Y+040493
X+025944Y+038644
X+026297Y+038145
X+029141Y+040726
X+029981Y+039644
X+030520Y+038181
X+031747Y+040644
X+020200Y+038644
X+019944Y+039142
X+019747Y+037296
X+017566Y+035644
X+016568Y+035644
X+015520Y+036181
X+014565Y+036181
X+014489Y+036991
X+013596Y+037644
X+010944Y+036833
X+009127Y+036719
X+010596Y+038644
X+011188Y+040644
X+009127Y+042677
X+015700Y+040644
X+017095Y+038991
X+016747Y+038181
X+017763Y+034644
X+018134Y+031644
X+017611Y+030926
X+018700Y+029644
T02
X+027634Y+021681
X+028134Y+022181
X+028634Y+021681
T03
X+025134Y+040181
X+025134Y+039181
X+025134Y+038181
X+025134Y+037181
X+025134Y+036181
X+025134Y+035181
X+025134Y+034181
X+025134Y+033181
X+025134Y+032181
X+025134Y+031181
X+025134Y+030181
X+025134Y+029181
X+025134Y+028181
X+025134Y+027181
X+025134Y+026181
X+025134Y+025181
X+022134Y+025181
X+022134Y+024181
X+022134Y+023181
X+022134Y+022181
X+022134Y+021181
X+022134Y+020181
X+020634Y+022181
X+019134Y+022181
X+019134Y+021181
X+019134Y+020181
X+019134Y+023181
X+019134Y+024181
X+019134Y+025181
X+019134Y+026181
X+019134Y+027181
X+019134Y+028181
X+019134Y+029181
X+019134Y+031181
X+019134Y+032181
X+019134Y+033181
X+019134Y+034181
X+019134Y+035181
X+019134Y+036181
X+019134Y+037181
X+019134Y+038181
X+019134Y+039181
X+019134Y+040181
X+020634Y+038181
X+022134Y+038181
X+022134Y+039181
X+022134Y+040181
X+022134Y+037181
X+022134Y+036181
X+022134Y+035181
X+022134Y+034181
X+022134Y+033181
X+022134Y+032181
X+022134Y+031181
X+022134Y+029181
X+022134Y+028181
X+022134Y+027181
X+022134Y+026181
X+020634Y+027181
X+016134Y+027181
X+016134Y+028181
X+016134Y+029181
X+016134Y+030181
X+016134Y+031181
X+016134Y+032181
X+016134Y+033181
X+016134Y+034181
X+016134Y+035181
X+016134Y+036181
X+016134Y+037181
X+016134Y+038181
X+016134Y+039181
X+016134Y+040181
X+013134Y+039681
X+010134Y+039181
X+010134Y+040181
X+010134Y+038181
X+010134Y+037181
X+010134Y+036181
X+010134Y+035181
X+010134Y+034181
X+010134Y+033181
X+010134Y+032181
X+010134Y+031181
X+010134Y+030181
X+010134Y+029181
X+010134Y+028181
X+010134Y+027181
X+010134Y+026181
X+010134Y+025181
X+010134Y+024181
X+010134Y+023181
X+010134Y+022181
X+010134Y+021181
X+007634Y+023181
X+007634Y+024181
X+007634Y+025181
X+007634Y+026181
X+007634Y+027181
X+007634Y+028181
X+013134Y+028181
X+016134Y+026181
X+016134Y+025181
X+016134Y+024181
X+016134Y+023181
X+016134Y+022181
X+016134Y+021181
X+008134Y+012165
X+008134Y+011181
X+031134Y+010681
X+032134Y+010681
X+033134Y+010681
X+034134Y+010681
X+035134Y+010681
X+036134Y+010681
X+037134Y+010681
X+037134Y+008681
X+040134Y+013681
X+039150Y+013681
X+039134Y+015681
X+038134Y+015681
X+037134Y+015681
X+036134Y+015681
X+035134Y+015681
X+034134Y+015681
X+033134Y+015681
X+032134Y+015681
X+031134Y+015681
X+031134Y+013681
X+032134Y+013681
X+033134Y+013681
X+034134Y+013681
X+035134Y+013681
X+036134Y+013681
X+037134Y+013681
X+040134Y+015681
X+038134Y+017181
X+038134Y+018681
X+037134Y+018681
X+036134Y+018681
X+035134Y+018681
X+034134Y+018681
X+033134Y+018681
X+032134Y+018681
X+031134Y+018681
X+033134Y+017181
X+034134Y+021181
X+034134Y+022181
X+034134Y+023181
X+034134Y+024181
X+034134Y+025181
X+034134Y+026181
X+034134Y+027181
X+034134Y+028181
X+034134Y+029181
X+034134Y+030181
X+034134Y+031181
X+034134Y+032181
X+034134Y+033181
X+034134Y+034181
X+034134Y+035181
X+034134Y+036181
X+034134Y+037181
X+034134Y+038181
X+034134Y+039181
X+034134Y+040181
X+031134Y+040181
X+031134Y+039181
X+031134Y+038181
X+031134Y+037181
X+031134Y+036181
X+031134Y+035181
X+031134Y+034181
X+031134Y+033181
X+031134Y+032181
X+031134Y+031181
X+031134Y+030181
X+031134Y+029181
X+031134Y+028181
X+031134Y+027181
X+031134Y+026181
X+031134Y+025181
X+028134Y+027181
X+037134Y+025181
X+040134Y+025181
X+040134Y+024181
X+040134Y+023181
X+040134Y+022181
X+040134Y+021181
X+040134Y+018681
X+039134Y+018681
X+040134Y+026181
X+040134Y+027181
X+040134Y+028181
X+040134Y+029181
X+040134Y+030181
X+040134Y+031181
X+040134Y+032181
X+040134Y+033181
X+040134Y+034181
X+040134Y+035181
X+040134Y+036181
X+040134Y+037181
X+040134Y+038181
X+040134Y+039181
X+040134Y+040181
X+037134Y+036681
X+028134Y+038681
X+020634Y+033181
X+031134Y+008681
X+031134Y+005681
X+037134Y+005681
T04
X+012535Y+042181
X+013535Y+042181
X+014535Y+042181
X+015535Y+042181
X+016535Y+042181
X+017535Y+042181
X+018535Y+042181
X+019535Y+042181
X+020535Y+042181
X+021535Y+042181
X+022535Y+042181
X+023535Y+042181
X+024535Y+042181
X+025535Y+042181
X+011535Y+042181
X+010535Y+042181
T05
X+013134Y+010181
X+014134Y+010181
X+015134Y+010181
X+016134Y+010181
X+017134Y+010181
X+018134Y+010181
X+019134Y+010181
X+020134Y+010181
X+021134Y+010181
X+022134Y+010181
X+023134Y+010181
X+024134Y+010181
X+025134Y+010181
X+026134Y+010181
X+026134Y+016181
X+025134Y+016181
X+024134Y+016181
X+023134Y+016181
X+022134Y+016181
X+021134Y+016181
X+020134Y+016181
X+019134Y+016181
X+018134Y+016181
X+017134Y+016181
X+016134Y+016181
X+015134Y+016181
X+014134Y+016181
X+013134Y+016181
X+044134Y+026181
X+044134Y+027181
X+044134Y+028181
X+044134Y+029181
X+044134Y+030181
X+044134Y+031181
X+044134Y+032181
X+044134Y+033181
X+044134Y+034181
X+044134Y+035181
X+044134Y+036181
X+044134Y+037181
T06
X+042134Y+012681
X+043134Y+012681
X+044134Y+012681
T07
X+044134Y+005181
X+044134Y+020543
X+044134Y+042181
X+007535Y+042181
X+007535Y+020543
X+007134Y+005181
T00
M30
