M48
INCH
T01C0.0191
T02C0.0295
T03C0.0315
T04C0.0354
T05C0.0394
T06C0.0433
T07C0.0984
%
T01
X+012868Y+019578
X+010976Y+019427
X+010628Y+018672
X+009591Y+018325
X+009046Y+019926
X+009243Y+021644
X+009243Y+022991
X+008247Y+022991
X+007020Y+021857
X+011372Y+024644
X+012868Y+024991
X+013216Y+024181
X+012473Y+025991
X+011372Y+027675
X+010596Y+029644
X+011778Y+030794
X+013219Y+032644
X+013567Y+029181
X+017172Y+029687
X+017172Y+032644
X+017913Y+034161
X+018260Y+035675
X+020671Y+035181
X+021100Y+033181
X+022747Y+034181
X+023639Y+034181
X+026141Y+034188
X+028431Y+033644
X+027872Y+031991
X+028431Y+030644
X+029596Y+031181
X+029482Y+031991
X+027177Y+029644
X+026678Y+029644
X+025568Y+029644
X+023836Y+030139
X+023639Y+029339
X+022596Y+029687
X+024038Y+030991
X+020204Y+030644
X+020110Y+028644
X+017913Y+026644
X+019596Y+025680
X+018608Y+023615
X+018260Y+022991
X+018411Y+020296
X+017913Y+019991
X+017172Y+019644
X+015109Y+020296
X+013216Y+021675
X+014913Y+017547
X+013944Y+017200
X+014217Y+016701
X+012265Y+016354
X+013913Y+013775
X+014565Y+012139
X+014834Y+011641
X+014482Y+011289
X+017134Y+014470
X+017565Y+015960
X+018134Y+017200
X+020638Y+017233
X+021482Y+016688
X+021448Y+019181
X+021520Y+020181
X+021427Y+020687
X+020928Y+020687
X+024481Y+023687
X+025793Y+023188
X+026141Y+023754
X+026141Y+024644
X+027790Y+024142
X+031596Y+023754
X+032085Y+024249
X+029134Y+020529
X+030596Y+017036
X+032933Y+017085
X+033322Y+017977
X+033670Y+019595
X+028628Y+013874
X+027596Y+013080
X+029596Y+012385
X+025596Y+011970
X+024565Y+014553
X+025134Y+017036
X+021134Y+013080
X+020678Y+012037
X+020134Y+012385
X+018565Y+012385
X+022747Y+025181
X+024134Y+026644
X+032974Y+030181
X+032987Y+035644
X+035141Y+035675
X+035836Y+036174
X+035836Y+036991
X+035141Y+039991
X+035141Y+041536
X+033485Y+041733
X+033485Y+039991
X+032987Y+039991
X+032292Y+039991
X+031793Y+039991
X+030474Y+037644
X+030625Y+036615
X+029930Y+036615
X+029482Y+037991
X+027578Y+038247
X+026882Y+038644
X+026882Y+039181
X+025747Y+039991
X+027084Y+041037
X+026882Y+037644
X+024081Y+039023
X+022747Y+039023
X+020175Y+039675
X+019779Y+039181
X+019779Y+038181
X+014852Y+038991
X+014639Y+037795
X+013567Y+038991
X+011883Y+038991
X+012231Y+037795
X+012871Y+037072
X+012125Y+036675
X+009139Y+036644
X+009139Y+037142
X+008444Y+037142
X+008444Y+036296
X+008792Y+032644
X+008792Y+029027
X+008444Y+028529
X+008792Y+027644
X+011046Y+041582
X+039134Y+042034
X+039596Y+041188
X+041666Y+036675
X+042400Y+036181
X+042134Y+017463
T02
X+008134Y+018181
X+007634Y+017681
X+007134Y+018181
T03
X+025134Y+040181
X+025134Y+039181
X+025134Y+038181
X+025134Y+037181
X+025134Y+036181
X+025134Y+035181
X+025134Y+034181
X+025134Y+033181
X+025134Y+032181
X+025134Y+031181
X+025134Y+030181
X+025134Y+029181
X+025134Y+028181
X+025134Y+027181
X+025134Y+026181
X+025134Y+025181
X+025134Y+022181
X+026134Y+022181
X+027134Y+022181
X+028134Y+022181
X+029134Y+022181
X+030134Y+022181
X+031134Y+022181
X+034134Y+022181
X+034134Y+021181
X+034134Y+023181
X+034134Y+024181
X+034134Y+025181
X+034134Y+026181
X+034134Y+027181
X+034134Y+028181
X+034134Y+029181
X+034134Y+030181
X+034134Y+031181
X+034134Y+032181
X+034134Y+033181
X+034134Y+034181
X+034134Y+035181
X+034134Y+036181
X+034134Y+037181
X+034134Y+038181
X+034134Y+039181
X+034134Y+040181
X+031134Y+040181
X+031134Y+039181
X+031134Y+038181
X+031134Y+037181
X+031134Y+036181
X+031134Y+035181
X+031134Y+034181
X+031134Y+033181
X+031134Y+032181
X+031134Y+031181
X+031134Y+030181
X+031134Y+029181
X+031134Y+028181
X+031134Y+027181
X+031134Y+026181
X+031134Y+025181
X+028134Y+027181
X+022134Y+027181
X+022134Y+026181
X+022134Y+025181
X+022134Y+024181
X+022134Y+023181
X+022134Y+022181
X+022134Y+021181
X+022134Y+020181
X+022134Y+019181
X+020638Y+019179
X+019134Y+019181
X+019134Y+020181
X+019134Y+021181
X+019134Y+022181
X+019134Y+023181
X+019134Y+024181
X+019134Y+025181
X+019134Y+026181
X+019134Y+027181
X+019134Y+028181
X+020638Y+028179
X+022134Y+028181
X+022134Y+031181
X+022134Y+032181
X+022134Y+033181
X+022134Y+034181
X+022134Y+035181
X+022134Y+036181
X+022134Y+037181
X+022134Y+038181
X+022134Y+039181
X+022134Y+040181
X+020638Y+040179
X+019134Y+040181
X+019134Y+039181
X+019134Y+038181
X+019134Y+037181
X+019134Y+036181
X+019134Y+035181
X+019134Y+034181
X+019134Y+033181
X+019134Y+032181
X+019134Y+031181
X+020638Y+031179
X+016134Y+031181
X+016134Y+030181
X+016134Y+029181
X+016134Y+028181
X+016134Y+027181
X+016134Y+026181
X+016134Y+025181
X+016134Y+024181
X+016134Y+023181
X+016134Y+022181
X+016134Y+021181
X+010134Y+021181
X+010134Y+022181
X+010134Y+023181
X+010134Y+024181
X+010134Y+025181
X+010134Y+026181
X+010134Y+027181
X+010134Y+028181
X+010134Y+029181
X+010134Y+030181
X+010134Y+031181
X+010134Y+032181
X+010134Y+033181
X+010134Y+034181
X+010134Y+035181
X+010134Y+036181
X+010134Y+037181
X+010134Y+038181
X+010134Y+039181
X+010134Y+040181
X+013134Y+039681
X+016134Y+039181
X+016134Y+040181
X+016134Y+038181
X+016134Y+037181
X+016134Y+036181
X+016134Y+035181
X+016134Y+034181
X+016134Y+033181
X+016134Y+032181
X+013134Y+028181
X+007634Y+028181
X+007634Y+027181
X+007634Y+026181
X+007634Y+025181
X+007634Y+024181
X+007634Y+023181
X+008134Y+011165
X+008134Y+010181
X+025134Y+019181
X+026134Y+019181
X+027134Y+019181
X+028134Y+019181
X+029134Y+019181
X+030134Y+019181
X+031134Y+019181
X+035134Y+018681
X+036134Y+018681
X+037134Y+018681
X+038134Y+018681
X+039134Y+018681
X+040134Y+018681
X+041134Y+018681
X+042134Y+018681
X+043134Y+018681
X+044134Y+018681
X+044132Y+017177
X+044134Y+015681
X+043134Y+015681
X+042134Y+015681
X+041134Y+015681
X+040134Y+015681
X+039134Y+015681
X+038134Y+015681
X+037134Y+015681
X+036134Y+015681
X+035134Y+015681
X+035132Y+017177
X+035134Y+013681
X+034134Y+013681
X+033134Y+013681
X+032134Y+013681
X+031134Y+013681
X+031134Y+010681
X+032134Y+010681
X+033134Y+010681
X+034134Y+010681
X+035134Y+010681
X+036134Y+010681
X+037134Y+010681
X+037134Y+008681
X+040134Y+013681
X+039150Y+013681
X+037134Y+013681
X+036134Y+013681
X+031134Y+008681
X+031134Y+005681
X+037134Y+005681
X+040134Y+021181
X+040134Y+022181
X+040134Y+023181
X+040134Y+024181
X+040134Y+025181
X+040134Y+026181
X+040134Y+027181
X+040134Y+028181
X+040134Y+029181
X+040134Y+030181
X+040134Y+031181
X+040134Y+032181
X+040134Y+033181
X+040134Y+034181
X+040134Y+035181
X+040134Y+036181
X+040134Y+037181
X+040134Y+038181
X+040134Y+039181
X+040134Y+040181
X+037134Y+036681
X+028134Y+038681
X+037134Y+025181
T04
X+012535Y+042181
X+013535Y+042181
X+014535Y+042181
X+015535Y+042181
X+016535Y+042181
X+017535Y+042181
X+018535Y+042181
X+019535Y+042181
X+020535Y+042181
X+021535Y+042181
X+022535Y+042181
X+023535Y+042181
X+024535Y+042181
X+025535Y+042181
X+011535Y+042181
X+010535Y+042181
T05
X+013134Y+009181
X+014134Y+009181
X+015134Y+009181
X+016134Y+009181
X+017134Y+009181
X+018134Y+009181
X+019134Y+009181
X+020134Y+009181
X+021134Y+009181
X+022134Y+009181
X+023134Y+009181
X+024134Y+009181
X+025134Y+009181
X+026134Y+009181
X+026134Y+015181
X+025134Y+015181
X+024134Y+015181
X+023134Y+015181
X+022134Y+015181
X+021134Y+015181
X+020134Y+015181
X+019134Y+015181
X+018134Y+015181
X+017134Y+015181
X+016134Y+015181
X+015134Y+015181
X+014134Y+015181
X+013134Y+015181
X+044134Y+026181
X+044134Y+027181
X+044134Y+028181
X+044134Y+029181
X+044134Y+030181
X+044134Y+031181
X+044134Y+032181
X+044134Y+033181
X+044134Y+034181
X+044134Y+035181
X+044134Y+036181
X+044134Y+037181
T06
X+042134Y+012681
X+043134Y+012681
X+044134Y+012681
T07
X+044134Y+005181
X+044134Y+020543
X+044134Y+042181
X+007535Y+042181
X+007535Y+020543
X+007134Y+005181
T00
M30
