%TF.GenerationSoftware,Novarm,DipTrace,4.3.0.5*%
%TF.CreationDate,2023-08-31T12:43:11+01:00*%
%FSLAX26Y26*%
%MOIN*%
%TF.FileFunction,Plated,1,2,PTH,Drill*%
%TF.Part,Single*%
%TA.AperFunction,ComponentDrill*%
%ADD14C,0.03937*%
%TA.AperFunction,ViaDrill*%
%ADD34C,0.019121*%
%TA.AperFunction,ComponentDrill*%
%ADD35C,0.031496*%
%ADD36C,0.098425*%
%ADD37C,0.029528*%
%ADD38C,0.043307*%
%ADD39C,0.035433*%
G75*
G01*
D35*
X2513386Y4018110D3*
Y3918110D3*
Y3818110D3*
Y3718110D3*
Y3618110D3*
Y3518110D3*
Y3418110D3*
Y3318110D3*
Y3218110D3*
Y3118110D3*
Y3018110D3*
Y2918110D3*
Y2818110D3*
Y2718110D3*
Y2618110D3*
Y2518110D3*
X3113386D3*
Y2618110D3*
Y2718110D3*
Y2818110D3*
Y2918110D3*
Y3018110D3*
Y3118110D3*
Y3218110D3*
Y3318110D3*
Y3418110D3*
Y3518110D3*
Y3618110D3*
Y3718110D3*
Y3818110D3*
Y3918110D3*
Y4018110D3*
X1613386Y2118110D3*
Y2218110D3*
Y2318110D3*
Y2418110D3*
Y2518110D3*
Y2618110D3*
Y2718110D3*
Y2818110D3*
Y2918110D3*
Y3018110D3*
Y3118110D3*
Y3218110D3*
Y3318110D3*
Y3418110D3*
Y3518110D3*
Y3618110D3*
Y3718110D3*
Y3818110D3*
Y3918110D3*
Y4018110D3*
X1013386D3*
Y3918110D3*
Y3818110D3*
Y3718110D3*
Y3618110D3*
Y3518110D3*
Y3418110D3*
Y3318110D3*
Y3218110D3*
Y3118110D3*
Y3018110D3*
Y2918110D3*
Y2818110D3*
Y2718110D3*
Y2618110D3*
Y2518110D3*
Y2418110D3*
Y2318110D3*
Y2218110D3*
Y2118110D3*
D36*
X4413386Y518110D3*
D14*
X1313386Y918110D3*
X1413386D3*
X1513386D3*
X1613386D3*
X1713386D3*
X1813386D3*
X1913386D3*
X2013386D3*
X2113386D3*
X2213386D3*
X2313386D3*
X2413386D3*
X2513386D3*
X2613386D3*
Y1518110D3*
X2513386D3*
X2413386D3*
X2313386D3*
X2213386D3*
X2113386D3*
X2013386D3*
X1913386D3*
X1813386D3*
X1713386D3*
X1613386D3*
X1513386D3*
X1413386D3*
X1313386D3*
D35*
X3513386Y1568110D3*
X3613386D3*
X3713386D3*
X3813386D3*
X3913386D3*
X4013386D3*
X4113386D3*
X4213386D3*
X4313386D3*
X4413386D3*
Y1868110D3*
X4313386D3*
X4213386D3*
X4113386D3*
X4013386D3*
X3913386D3*
X3813386D3*
X3713386D3*
X3613386D3*
X3513386D3*
X3513189Y1717717D3*
X4413189D3*
X2063780Y1917913D3*
Y2817913D3*
X3113386Y568110D3*
X3713386D3*
Y868110D3*
X3113386D3*
X3914961Y1368110D3*
X4013386D3*
X3985039Y969291D2*
Y866929D1*
X4213386Y961417D2*
Y874803D1*
X4059843Y1107087D2*
X4146457D1*
D36*
X713386Y518110D3*
D14*
X4413386Y2618110D3*
Y2718110D3*
Y2818110D3*
Y2918110D3*
Y3018110D3*
Y3118110D3*
Y3218110D3*
Y3318110D3*
Y3418110D3*
Y3518110D3*
Y3618110D3*
Y3718110D3*
D35*
X4013386Y2118110D3*
Y2218110D3*
Y2318110D3*
Y2418110D3*
Y2518110D3*
Y2618110D3*
Y2718110D3*
Y2818110D3*
Y2918110D3*
Y3018110D3*
Y3118110D3*
Y3218110D3*
Y3318110D3*
Y3418110D3*
Y3518110D3*
Y3618110D3*
Y3718110D3*
Y3818110D3*
Y3918110D3*
Y4018110D3*
X3413386D3*
Y3918110D3*
Y3818110D3*
Y3718110D3*
Y3618110D3*
Y3518110D3*
Y3418110D3*
Y3318110D3*
Y3218110D3*
Y3118110D3*
Y3018110D3*
Y2918110D3*
Y2818110D3*
Y2718110D3*
Y2618110D3*
Y2518110D3*
Y2418110D3*
Y2318110D3*
Y2218110D3*
Y2118110D3*
D37*
X813386Y1818110D3*
X763386Y1768110D3*
X713386Y1818110D3*
D35*
X763386Y2318110D3*
Y2418110D3*
Y2518110D3*
Y2618110D3*
Y2718110D3*
Y2818110D3*
X2813386Y3868110D3*
Y2718110D3*
X2213386Y1918110D3*
Y2018110D3*
Y2118110D3*
Y2218110D3*
Y2318110D3*
Y2418110D3*
Y2518110D3*
Y2618110D3*
Y2718110D3*
Y2818110D3*
X1913386D3*
Y2718110D3*
Y2618110D3*
Y2518110D3*
Y2418110D3*
Y2318110D3*
Y2218110D3*
Y2118110D3*
Y2018110D3*
Y1918110D3*
X3113386Y1068110D3*
X3213386D3*
X3313386D3*
X3413386D3*
X3513386D3*
X3613386D3*
X3713386D3*
Y1368110D3*
X3613386D3*
X3513386D3*
X3413386D3*
X3313386D3*
X3213386D3*
X3113386D3*
X2513386Y1918110D3*
X2613386D3*
X2713386D3*
X2813386D3*
X2913386D3*
X3013386D3*
X3113386D3*
Y2218110D3*
X3013386D3*
X2913386D3*
X2813386D3*
X2713386D3*
X2613386D3*
X2513386D3*
X1313386Y2818110D3*
Y3968110D3*
X2213386Y3118110D3*
Y3218110D3*
Y3318110D3*
Y3418110D3*
Y3518110D3*
Y3618110D3*
Y3718110D3*
Y3818110D3*
Y3918110D3*
Y4018110D3*
X1913386D3*
Y3918110D3*
Y3818110D3*
Y3718110D3*
Y3618110D3*
Y3518110D3*
Y3418110D3*
Y3318110D3*
Y3218110D3*
Y3118110D3*
D38*
X4213386Y1268110D3*
X4313386D3*
X4413386D3*
D35*
X2063780Y3117913D3*
Y4017913D3*
D36*
X753543Y4218110D3*
Y2054331D3*
D39*
X1253543Y4218110D3*
X2453543D3*
X2553543D3*
D36*
X4413386D3*
Y2054331D3*
D39*
X1053543Y4218110D3*
X1153543D3*
X1353543D3*
X1453543D3*
X1553543D3*
X1653543D3*
X1753543D3*
X1853543D3*
X1953543D3*
X2053543D3*
X2153543D3*
X2253543D3*
X2353543D3*
D35*
X3713386Y3668110D3*
Y2518110D3*
X813386Y1116535D3*
Y1018110D3*
D34*
X1286811Y1957799D3*
X2063779Y1723268D3*
X1860791Y2361485D3*
X2403795Y3099138D3*
X3293272Y1708504D3*
X1286811Y2499138D3*
X1188307Y3899138D3*
X2456500Y1455319D3*
X1491264Y1754729D3*
X1485240Y3899138D3*
X1356657D3*
X2579335Y2318819D3*
X1356657Y2918114D3*
X2959649Y3118114D3*
Y1238461D3*
X1856500D3*
X1791264Y1999138D3*
X904646Y1992563D3*
X879177Y2764374D3*
Y2902721D3*
Y3264374D3*
X1321894D3*
X2013386Y1238461D3*
X1394413Y1719965D3*
X1813386D3*
X2862799Y1387362D3*
X1287130Y3707209D3*
X2148153Y1668819D3*
X3959646Y4118823D3*
X2688232Y3918111D3*
Y3764374D3*
X3047441D3*
X2408071Y3902288D3*
X2274728D3*
X2757760Y3824736D3*
X4213386Y1746296D3*
X2759649Y1307988D3*
X2113386D3*
X2383622Y3013906D3*
X1177772Y3079449D3*
X1448153Y1128859D3*
X2017520Y3967524D3*
X1756500Y1595988D3*
X1713386Y1447044D3*
X913941Y3664374D3*
X702047Y2185748D3*
X1097559Y1942721D3*
X1226460Y1635359D3*
X1212535Y3667524D3*
X3179335Y3999138D3*
X2708374Y4103744D3*
X1421736Y1670122D3*
X3062520Y3661485D3*
X2992992D3*
X1321575Y2418111D3*
Y2167524D3*
X2913386Y2052937D3*
X3298697Y3564374D3*
Y3999138D3*
X2142677Y2068705D3*
X2448149Y2368662D3*
X1456500Y1213945D3*
X1463941Y3779453D3*
X1223071D3*
X2067838Y1203697D3*
X2559649Y1196992D3*
X1483398Y1164103D3*
X1104602Y4158193D3*
X2556760Y2964374D3*
X2667835D3*
X1959646Y2567957D3*
X2717677Y2964374D3*
X913941Y3714217D3*
X844413D3*
Y3629611D3*
Y2852878D3*
X1247299Y2599138D3*
X1391264Y1377516D3*
X2779020Y2414217D3*
X2614098Y3418823D3*
X2574728Y3999138D3*
X2513386Y1703583D3*
X3059649D3*
X3159649Y2375441D3*
X2614098D3*
Y2464374D3*
X3514094Y3999138D3*
Y4153587D3*
X2413386Y2664374D3*
X3229177Y3999138D3*
X2010953Y2864374D3*
X3348539Y3999138D3*
Y4173272D3*
X1717244Y1964374D3*
X2152043Y2018111D3*
X2259646Y2968666D3*
X1717244Y3264374D3*
X1059646Y2964374D3*
X1717244Y2968666D3*
X2020405Y3064374D3*
X2110039Y3318111D3*
X2363937Y3418111D3*
X2274724D3*
X2363937Y2933902D3*
X2067086Y3518111D3*
X1826027Y2299138D3*
X2092835Y2068705D3*
X1977874Y3818111D3*
X1826027Y3567524D3*
X1791264Y2664374D3*
X1977874Y3918111D3*
X1791264Y3416150D3*
X3208464Y2424894D3*
X2787205Y3199138D3*
X2948153D3*
Y3799138D3*
X2688232Y3864374D3*
X2274724Y2518114D3*
X3913386Y4203425D3*
X4239964Y3618111D3*
X4166583Y3667524D3*
X3514094Y3567524D3*
X924331Y2164374D3*
Y2299138D3*
X824728D3*
X3297445Y3018111D3*
X1062795Y1867248D3*
X2144803Y1918111D3*
X3583622Y3699138D3*
Y3617362D3*
X3366972Y1959477D3*
X959094Y1832485D3*
X1510949Y2029611D3*
X1841106D3*
X2843118Y3364374D3*
Y3064374D3*
X1137248Y2767524D3*
Y2464374D3*
X3332209Y1797721D3*
M02*
