%TF.GenerationSoftware,Novarm,DipTrace,4.3.0.5*%
%TF.CreationDate,2023-08-31T01:17:17+01:00*%
%FSLAX26Y26*%
%MOIN*%
%TF.FileFunction,Plated,1,2,PTH,Drill*%
%TF.Part,Single*%
%TA.AperFunction,ComponentDrill*%
%ADD14C,0.03937*%
%TA.AperFunction,ViaDrill*%
%ADD34C,0.019121*%
%TA.AperFunction,ComponentDrill*%
%ADD35C,0.031496*%
%ADD36C,0.098425*%
%ADD37C,0.029528*%
%ADD38C,0.043307*%
%ADD39C,0.035433*%
G75*
G01*
D35*
X2513386Y4018110D3*
Y3918110D3*
Y3818110D3*
Y3718110D3*
Y3618110D3*
Y3518110D3*
Y3418110D3*
Y3318110D3*
Y3218110D3*
Y3118110D3*
Y3018110D3*
Y2918110D3*
Y2818110D3*
Y2718110D3*
Y2618110D3*
Y2518110D3*
X3113386D3*
Y2618110D3*
Y2718110D3*
Y2818110D3*
Y2918110D3*
Y3018110D3*
Y3118110D3*
Y3218110D3*
Y3318110D3*
Y3418110D3*
Y3518110D3*
Y3618110D3*
Y3718110D3*
Y3818110D3*
Y3918110D3*
Y4018110D3*
X1613386Y2118110D3*
Y2218110D3*
Y2318110D3*
Y2418110D3*
Y2518110D3*
Y2618110D3*
Y2718110D3*
Y2818110D3*
Y2918110D3*
Y3018110D3*
Y3118110D3*
Y3218110D3*
Y3318110D3*
Y3418110D3*
Y3518110D3*
Y3618110D3*
Y3718110D3*
Y3818110D3*
Y3918110D3*
Y4018110D3*
X1013386D3*
Y3918110D3*
Y3818110D3*
Y3718110D3*
Y3618110D3*
Y3518110D3*
Y3418110D3*
Y3318110D3*
Y3218110D3*
Y3118110D3*
Y3018110D3*
Y2918110D3*
Y2818110D3*
Y2718110D3*
Y2618110D3*
Y2518110D3*
Y2418110D3*
Y2318110D3*
Y2218110D3*
Y2118110D3*
D36*
X4413386Y518110D3*
D14*
X1313386Y1018110D3*
X1413386D3*
X1513386D3*
X1613386D3*
X1713386D3*
X1813386D3*
X1913386D3*
X2013386D3*
X2113386D3*
X2213386D3*
X2313386D3*
X2413386D3*
X2513386D3*
X2613386D3*
Y1618110D3*
X2513386D3*
X2413386D3*
X2313386D3*
X2213386D3*
X2113386D3*
X2013386D3*
X1913386D3*
X1813386D3*
X1713386D3*
X1613386D3*
X1513386D3*
X1413386D3*
X1313386D3*
D35*
X3113386Y1568110D3*
X3213386D3*
X3313386D3*
X3413386D3*
X3513386D3*
X3613386D3*
X3713386D3*
X3813386D3*
X3913386D3*
X4013386D3*
Y1868110D3*
X3913386D3*
X3813386D3*
X3713386D3*
X3613386D3*
X3513386D3*
X3413386D3*
X3313386D3*
X3213386D3*
X3113386D3*
X3313386Y1718110D3*
X3813386D3*
X2063386Y2218110D3*
Y2718110D3*
X3113386Y568110D3*
X3713386D3*
Y868110D3*
X3113386D3*
X3914961Y1368110D3*
X4013386D3*
X3985039Y969291D2*
Y866929D1*
X4213386Y961417D2*
Y874803D1*
X4059843Y1107087D2*
X4146457D1*
D36*
X713386Y518110D3*
D14*
X4413386Y2618110D3*
Y2718110D3*
Y2818110D3*
Y2918110D3*
Y3018110D3*
Y3118110D3*
Y3218110D3*
Y3318110D3*
Y3418110D3*
Y3518110D3*
Y3618110D3*
Y3718110D3*
D35*
X4013386Y2118110D3*
Y2218110D3*
Y2318110D3*
Y2418110D3*
Y2518110D3*
Y2618110D3*
Y2718110D3*
Y2818110D3*
Y2918110D3*
Y3018110D3*
Y3118110D3*
Y3218110D3*
Y3318110D3*
Y3418110D3*
Y3518110D3*
Y3618110D3*
Y3718110D3*
Y3818110D3*
Y3918110D3*
Y4018110D3*
X3413386D3*
Y3918110D3*
Y3818110D3*
Y3718110D3*
Y3618110D3*
Y3518110D3*
Y3418110D3*
Y3318110D3*
Y3218110D3*
Y3118110D3*
Y3018110D3*
Y2918110D3*
Y2818110D3*
Y2718110D3*
Y2618110D3*
Y2518110D3*
Y2418110D3*
Y2318110D3*
Y2218110D3*
Y2118110D3*
D37*
X2763386Y2168110D3*
X2813386Y2218110D3*
X2863386Y2168110D3*
D35*
X763386Y2318110D3*
Y2418110D3*
Y2518110D3*
Y2618110D3*
Y2718110D3*
Y2818110D3*
X2813386Y3868110D3*
Y2718110D3*
X2213386Y2018110D3*
Y2118110D3*
Y2218110D3*
Y2318110D3*
Y2418110D3*
Y2518110D3*
Y2618110D3*
Y2718110D3*
Y2818110D3*
Y2918110D3*
X1913386D3*
Y2818110D3*
Y2718110D3*
Y2618110D3*
Y2518110D3*
Y2418110D3*
Y2318110D3*
Y2218110D3*
Y2118110D3*
Y2018110D3*
X3113386Y1068110D3*
X3213386D3*
X3313386D3*
X3413386D3*
X3513386D3*
X3613386D3*
X3713386D3*
Y1368110D3*
X3613386D3*
X3513386D3*
X3413386D3*
X3313386D3*
X3213386D3*
X3113386D3*
X1313386Y2818110D3*
Y3968110D3*
X1913386Y4018110D3*
Y3918110D3*
Y3818110D3*
Y3718110D3*
Y3618110D3*
Y3518110D3*
Y3418110D3*
Y3318110D3*
Y3218110D3*
Y3118110D3*
X2213386D3*
Y3218110D3*
Y3318110D3*
Y3418110D3*
Y3518110D3*
Y3618110D3*
Y3718110D3*
Y3818110D3*
Y3918110D3*
Y4018110D3*
D38*
X4213386Y1268110D3*
X4313386D3*
X4413386D3*
D35*
X2063386Y3818110D3*
Y3318110D3*
D36*
X753543Y4218110D3*
Y2054331D3*
D39*
X1253543Y4218110D3*
X2453543D3*
X2553543D3*
D36*
X4413386D3*
Y2054331D3*
D39*
X1053543Y4218110D3*
X1153543D3*
X1353543D3*
X1453543D3*
X1553543D3*
X1653543D3*
X1753543D3*
X1853543D3*
X1953543D3*
X2053543D3*
X2153543D3*
X2253543D3*
X2353543D3*
D35*
X3713386Y3668110D3*
Y2518110D3*
X813386Y1216535D3*
Y1118110D3*
D34*
X1313390Y2003583D3*
X1247441Y3014217D3*
X2539964Y2338114D3*
X2904138Y3118111D3*
Y1824571D3*
X1756614Y3564374D3*
X1656760D3*
X1521736Y1735359D3*
X1891264D3*
X1832358Y1983311D3*
X2013390D3*
Y1735359D3*
X2914098Y3318111D3*
Y4072559D3*
X1421736Y1735362D3*
X2594413Y3864374D3*
X2432362Y4049292D3*
X2710949Y1614370D3*
X1359649Y3764374D3*
X912681Y3671855D3*
Y4267717D3*
X3559646Y3769138D3*
X2998149Y3964374D3*
X2629657Y3814536D3*
X1974724Y3729611D3*
X2277874Y3702284D3*
X3052047Y3818111D3*
X3332362Y3799138D3*
X3759649Y3599138D3*
X3174728Y4064374D3*
X2148898Y3518111D3*
X2277874Y3602284D3*
X2765398Y3564374D3*
X2559649Y3364374D3*
X1761110Y3092567D3*
X1456500Y3618111D3*
X1552047D3*
X3156760Y3564374D3*
X1736929Y1983311D3*
X1613386D3*
X2574728Y3464374D3*
X1994409Y3914217D3*
X1709488Y3899138D3*
X3062520Y3264370D3*
X1394413Y2117681D3*
Y1859335D3*
X2264571D3*
X2109649Y2064378D3*
X2416929D3*
X1570012Y4064374D3*
X1118779D3*
X1242677Y2264374D3*
X1848149Y2318111D3*
X3163547Y2448040D3*
X2451693Y2417402D3*
X1491264Y1785201D3*
X2406657Y1770122D3*
X1207913Y2532760D3*
X1094409Y3683347D3*
X1448862Y3699138D3*
X1491264Y2532760D3*
X3459646Y2261485D3*
X3147441Y2264374D3*
X2596185Y2267591D3*
X2504720Y2302355D3*
X2378142D3*
Y2452166D3*
X2021736Y957481D3*
X2356500Y1187646D3*
X2676185Y2486929D3*
X2841583Y3464374D3*
X2574728Y3514217D3*
X2382165Y2764374D3*
X2614098Y2799138D3*
X2339689Y2618827D3*
X2869374Y2964374D3*
X1974724Y2399138D3*
X1491264Y2664374D3*
X1674724Y3818107D3*
X2014094Y2306618D3*
X1813386Y3164374D3*
X1059646Y2761485D3*
Y2667524D3*
X1021520Y2003583D3*
Y1884697D3*
X1348153Y1441933D3*
X2356500D3*
Y2114217D3*
X3003311D3*
Y3534315D3*
X2609492Y3599138D3*
X2405354Y3299138D3*
X2124606Y3267520D3*
X1776299Y3464370D3*
X2312638Y2864374D3*
X2020012Y3864374D3*
X1059646D3*
X1870012Y2964374D3*
X1313386D3*
X3518701Y3829611D3*
X3214098Y2999138D3*
X3213386Y2552878D3*
Y2412796D3*
X1258941Y2163662D3*
X2213386Y1948548D3*
X3332362Y3499138D3*
X3894413Y3467524D3*
Y2037087D3*
X2848153Y2052878D3*
Y1824571D3*
X970012Y2164374D3*
X2056500Y883347D3*
X3413386Y974225D3*
X3794417Y1968819D3*
X1118701Y2068272D3*
Y2404059D3*
X3594409Y3264374D3*
X2745712Y1928862D3*
X1074724Y2118111D3*
X2262795Y3967520D3*
X2388228Y3917677D3*
X2765398Y2358193D3*
X2948862Y1934055D3*
X3713386D3*
M02*
