%TF.GenerationSoftware,Novarm,DipTrace,4.3.0.5*%
%TF.CreationDate,2023-08-31T12:43:08+01:00*%
%FSLAX26Y26*%
%MOIN*%
%TF.FileFunction,Drawing,Top*%
%TF.Part,Single*%
%ADD15C,0.005906*%
%ADD16C,0.003937*%
G75*
G01*
%LPD*%
X2463386Y4070472D2*
D16*
Y2465748D1*
X3163386D1*
X2523425Y4028740D2*
X2562795Y4068110D1*
X2523425Y2468110D2*
Y4028740D1*
X2562795Y4068110D2*
X3103346D1*
Y2468110D1*
X2523425D1*
X3163386Y4070472D2*
X2463386D1*
X3163386Y2465748D2*
Y4070472D1*
X1663386Y2065748D2*
Y4070472D1*
X963386D1*
X1603346Y2107480D2*
X1563976Y2068110D1*
X1603346Y4068110D2*
Y2107480D1*
X1563976Y2068110D2*
X1023425D1*
Y4068110D1*
X1603346D1*
X963386Y2065748D2*
X1663386D1*
X963386Y4070472D2*
Y2065748D1*
X4314961Y518110D2*
D15*
G02X4314961Y518110I98425J0D01*
G01*
X468504Y721260D2*
D16*
X610236D1*
X468504D2*
X413386Y772441D1*
X610236Y721260D2*
X688976Y780315D1*
X610236Y721260D2*
Y902362D1*
X943307Y767323D2*
X897638Y805906D1*
X2881890Y767323D2*
X943307D1*
X413386Y772441D2*
Y851181D1*
X688976Y780315D2*
Y843307D1*
X929528Y780315D2*
X688976D1*
X897638Y805906D2*
Y1668898D1*
X688976Y843307D2*
X897638D1*
X413386Y851181D2*
X468504Y902362D1*
Y721260D1*
X610236Y902362D2*
X688976Y843307D1*
X610236Y902362D2*
X468504D1*
X897638Y1668898D2*
X2881890D1*
Y767323D1*
X3461024Y1518110D2*
X4465748D1*
Y1918110D1*
X3502756Y1593110D2*
X3463386Y1632480D1*
X4463386Y1593110D2*
X3502756D1*
X3463386Y1632480D2*
Y1843110D1*
X4463386D1*
Y1593110D1*
X3461024Y1918110D2*
Y1518110D1*
X4465748Y1918110D2*
X3461024D1*
X3503346Y1749213D2*
Y1686220D1*
X4413189D1*
Y1749213D2*
X3503346D1*
X4413189Y1686220D2*
Y1749213D1*
X2032283Y1908071D2*
X2095276D1*
Y2817913D1*
X2032283D2*
Y1908071D1*
X2095276Y2817913D2*
X2032283D1*
X3005906Y468110D2*
Y942520D1*
Y468110D2*
X3795276D1*
X3031496Y968110D2*
X3795276D1*
X3045276Y507480D2*
Y914961D1*
Y507480D2*
X3767717D1*
X3059055Y928740D2*
X3767717D1*
X3781496Y521260D2*
Y914961D1*
X3820866Y942520D2*
Y493701D1*
X3031496Y968110D2*
G02X3031496Y968110I0J0D01*
G01*
X3059055Y928740D2*
G02X3059055Y928740I0J0D01*
G01*
X3781496Y914961D2*
G02X3781496Y914961I0J0D01*
G01*
X3767717Y507480D2*
G02X3767717Y507480I0J0D01*
G01*
X3820866Y942520D2*
G02X3820866Y942520I0J0D01*
G01*
X3795276Y468110D2*
G02X3795276Y468110I0J0D01*
G01*
X3858110Y1422185D2*
X3882913D1*
X3870512Y1434587D2*
Y1409783D1*
X3840157Y1368110D2*
G02X3840157Y1368110I124016J0D01*
G01*
X3988976Y740945D2*
X3949606Y780315D1*
X4520472Y740945D2*
X3988976D1*
X3949606Y1095276D2*
Y780315D1*
Y1095276D2*
X4520472D1*
Y740945D1*
X614961Y518110D2*
D15*
G02X614961Y518110I98425J0D01*
G01*
X4463386Y2593110D2*
D16*
X4438386Y2568110D1*
X4463386Y3768110D2*
Y2593110D1*
X4438386Y2568110D2*
X4363386D1*
Y3768110D1*
X4463386D1*
X4063386Y2065748D2*
Y4070472D1*
X3363386D1*
X4003346Y2107480D2*
X3963976Y2068110D1*
X4003346Y4068110D2*
Y2107480D1*
X3963976Y2068110D2*
X3423425D1*
Y4068110D1*
X4003346D1*
X3363386Y2065748D2*
X4063386D1*
X3363386Y4070472D2*
Y2065748D1*
X833071Y1887008D2*
X695276D1*
X763386Y1720472D2*
G02X763386Y1720472I0J0D01*
G01*
X694345Y1887151D2*
G02X694345Y1887151I0J0D01*
G01*
X714173Y2267323D2*
X812598D1*
Y2868898D1*
X714173Y2368110D2*
X812598D1*
X714173Y2868898D2*
Y2267323D1*
X812598Y2868898D2*
X714173D1*
X2844882Y3818110D2*
X2781890D1*
Y2768110D1*
X2844882D2*
Y3818110D1*
X2781890Y2768110D2*
X2844882D1*
X2263386Y1865748D2*
Y2870472D1*
X1863386D1*
X2188386Y1907480D2*
X2149016Y1868110D1*
X2188386Y2868110D2*
Y1907480D1*
X2149016Y1868110D2*
X1938386D1*
Y2868110D1*
X2188386D1*
X1863386Y1865748D2*
X2263386D1*
X1863386Y2870472D2*
Y1865748D1*
X3061024Y1018110D2*
X3765748D1*
Y1418110D1*
X3102756Y1093110D2*
X3063386Y1132480D1*
X3763386Y1093110D2*
X3102756D1*
X3063386Y1132480D2*
Y1343110D1*
X3763386D1*
Y1093110D1*
X3061024Y1418110D2*
Y1018110D1*
X3765748Y1418110D2*
X3061024D1*
X2461024Y1868110D2*
X3165748D1*
Y2268110D1*
X2502756Y1943110D2*
X2463386Y1982480D1*
X3163386Y1943110D2*
X2502756D1*
X2463386Y1982480D2*
Y2193110D1*
X3163386D1*
Y1943110D1*
X2461024Y2268110D2*
Y1868110D1*
X3165748Y2268110D2*
X2461024D1*
X1281890Y2868110D2*
X1344882D1*
Y3918110D1*
X1281890D2*
Y2868110D1*
X1344882Y3918110D2*
X1281890D1*
X2263386Y3065748D2*
Y4070472D1*
X1863386D1*
X2188386Y3107480D2*
X2149016Y3068110D1*
X2188386Y4068110D2*
Y3107480D1*
X2149016Y3068110D2*
X1938386D1*
Y4068110D1*
X2188386D1*
X1863386Y3065748D2*
X2263386D1*
X1863386Y4070472D2*
Y3065748D1*
X4116535Y1392126D2*
Y1218898D1*
Y1342126D2*
X4510236D1*
X4116535Y1218898D2*
X4510236D1*
X4240551Y1392126D2*
Y1342126D1*
X4386220Y1392126D2*
Y1342126D1*
X4510236Y1392126D2*
X4116535D1*
X4510236Y1218898D2*
Y1392126D1*
X2032283Y3108071D2*
X2095276D1*
Y4017913D1*
X2032283D2*
Y3108071D1*
X2095276Y4017913D2*
X2032283D1*
X1653543Y4143110D2*
X2353543D1*
X653543Y4318110D2*
Y1955906D1*
X4511811D1*
Y4318110D1*
X653543D1*
X3744882Y3618110D2*
X3681890D1*
Y2568110D1*
X3744882D2*
Y3618110D1*
X3681890Y2568110D2*
X3744882D1*
X844882Y1126378D2*
X781890D1*
Y1008268D1*
X844882D2*
Y1126378D1*
X781890Y1008268D2*
X844882D1*
X1065588Y4096804D2*
X1061786Y4094903D1*
X1057939Y4091056D1*
X1056038Y4087254D1*
Y4079604D1*
X1057939Y4075758D1*
X1061786Y4071955D1*
X1065588Y4070010D1*
X1071336Y4068108D1*
X1080931D1*
X1086635Y4070010D1*
X1090482Y4071955D1*
X1094284Y4075758D1*
X1096230Y4079604D1*
Y4087254D1*
X1094284Y4091056D1*
X1090482Y4094903D1*
X1086635Y4096804D1*
X1080931D1*
Y4087254D1*
X1056038Y4131473D2*
X1096230D1*
X1056038Y4104678D1*
X1096230D1*
X1056038Y4139347D2*
X1096230D1*
Y4152744D1*
X1094284Y4158492D1*
X1090482Y4162339D1*
X1086635Y4164240D1*
X1080931Y4166142D1*
X1071336D1*
X1065588Y4164240D1*
X1061786Y4162339D1*
X1057939Y4158492D1*
X1056038Y4152744D1*
Y4139347D1*
X1375183Y4104678D2*
Y4121878D1*
X1373237Y4127626D1*
X1371336Y4129572D1*
X1367534Y4131473D1*
X1363687D1*
X1359884Y4129572D1*
X1357939Y4127626D1*
X1356038Y4121878D1*
Y4104678D1*
X1396230D1*
X1375183Y4118076D2*
X1396230Y4131473D1*
X1361786Y4166142D2*
X1357939Y4162339D1*
X1356038Y4156591D1*
Y4148942D1*
X1357939Y4143194D1*
X1361786Y4139347D1*
X1365588D1*
X1369435Y4141293D1*
X1371336Y4143194D1*
X1373237Y4146996D1*
X1377084Y4158492D1*
X1378985Y4162339D1*
X1380931Y4164240D1*
X1384733Y4166142D1*
X1390482D1*
X1394284Y4162339D1*
X1396230Y4156591D1*
Y4148942D1*
X1394284Y4143194D1*
X1390482Y4139347D1*
X1882951Y4090616D2*
Y4050424D1*
X1896348D1*
X1902096Y4052369D1*
X1905943Y4056172D1*
X1907844Y4060019D1*
X1909746Y4065723D1*
Y4075317D1*
X1907844Y4081065D1*
X1905943Y4084868D1*
X1902096Y4088715D1*
X1896348Y4090616D1*
X1882951D1*
X1917620Y4043792D2*
X1953965D1*
X1971389Y4101095D2*
X1967587Y4099194D1*
X1965641Y4097293D1*
X1963740Y4093446D1*
Y4089599D1*
X1965641Y4085796D1*
X1967587Y4083895D1*
X1969488Y4080048D1*
Y4076246D1*
X1965641Y4072399D1*
X1961839Y4070498D1*
X1965641Y4068597D1*
X1969488Y4064750D1*
Y4060947D1*
X1967587Y4057101D1*
X1965641Y4055199D1*
X1963740Y4051353D1*
Y4047550D1*
X1965641Y4043703D1*
X1967587Y4041802D1*
X1971389Y4039901D1*
X1992661Y4101095D2*
X1979263D1*
Y4039901D1*
X1992661D1*
X2012031Y4090572D2*
X2006283Y4088671D1*
X2002436Y4082922D1*
X2000535Y4073372D1*
Y4067624D1*
X2002436Y4058073D1*
X2006283Y4052325D1*
X2012031Y4050424D1*
X2015833D1*
X2021581Y4052325D1*
X2025384Y4058073D1*
X2027329Y4067624D1*
Y4073372D1*
X2025384Y4082922D1*
X2021581Y4088671D1*
X2015833Y4090572D1*
X2012031D1*
X2025384Y4082922D2*
X2002436Y4058073D1*
X2037105Y4054271D2*
X2035204Y4052325D1*
X2037105Y4050424D1*
X2039050Y4052325D1*
X2037105Y4054271D1*
X2048826D2*
X2046924Y4052325D1*
X2048826Y4050424D1*
X2050771Y4052325D1*
X2048826Y4054271D1*
X2066294Y4050424D2*
X2085440Y4090572D1*
X2058645D1*
X2093314Y4101095D2*
X2106711D1*
Y4039901D1*
X2093314D1*
X2114585Y4101095D2*
X2118432Y4099194D1*
X2120333Y4097293D1*
X2122234Y4093446D1*
Y4089599D1*
X2120333Y4085796D1*
X2118432Y4083895D1*
X2116486Y4080048D1*
Y4076246D1*
X2120333Y4072399D1*
X2124136Y4070498D1*
X2120333Y4068597D1*
X2116486Y4064750D1*
Y4060947D1*
X2118432Y4057101D1*
X2120333Y4055199D1*
X2122234Y4051353D1*
Y4047550D1*
X2120333Y4043703D1*
X2118432Y4041802D1*
X2114585Y4039901D1*
X1156038Y4073901D2*
X1196230Y4089199D1*
X1156038Y4104498D1*
Y4135320D2*
X1196230D1*
X1175183D2*
X1171336Y4131517D1*
X1169435Y4127671D1*
Y4121922D1*
X1171336Y4118120D1*
X1175183Y4114273D1*
X1180931Y4112372D1*
X1184733D1*
X1190482Y4114273D1*
X1194284Y4118120D1*
X1196230Y4121922D1*
Y4127671D1*
X1194284Y4131517D1*
X1190482Y4135320D1*
X1156038Y4166142D2*
X1196230D1*
X1175183D2*
X1171336Y4162339D1*
X1169435Y4158492D1*
Y4152744D1*
X1171336Y4148942D1*
X1175183Y4145095D1*
X1180931Y4143194D1*
X1184733D1*
X1190482Y4145095D1*
X1194284Y4148942D1*
X1196230Y4152744D1*
Y4158492D1*
X1194284Y4162339D1*
X1190482Y4166142D1*
X1556038D2*
Y4141293D1*
X1596230D1*
Y4166142D1*
X1575183Y4141293D2*
Y4156591D1*
X1475183Y4058333D2*
Y4075533D1*
X1473237Y4081281D1*
X1471336Y4083227D1*
X1467534Y4085128D1*
X1463687D1*
X1459884Y4083227D1*
X1457939Y4081281D1*
X1456038Y4075533D1*
Y4058333D1*
X1496230D1*
X1475183Y4071730D2*
X1496230Y4085128D1*
X1445558Y4102552D2*
X1447460Y4098750D1*
X1449361Y4096804D1*
X1453208Y4094903D1*
X1457055D1*
X1460857Y4096804D1*
X1462758Y4098750D1*
X1466605Y4100651D1*
X1470408D1*
X1474254Y4096804D1*
X1476156Y4093002D1*
X1478057Y4096804D1*
X1481904Y4100651D1*
X1485706D1*
X1489553Y4098750D1*
X1491454Y4096804D1*
X1495301Y4094903D1*
X1499104D1*
X1502950Y4096804D1*
X1504852Y4098750D1*
X1506753Y4102552D1*
X1456038Y4110426D2*
X1496230Y4120021D1*
X1456038Y4129572D1*
X1496230Y4139122D1*
X1456038Y4148717D1*
X1445558Y4156591D2*
X1447460Y4160438D1*
X1449361Y4162339D1*
X1453208Y4164240D1*
X1457055D1*
X1460857Y4162339D1*
X1462758Y4160438D1*
X1466605Y4158492D1*
X1470408D1*
X1474254Y4162339D1*
X1476156Y4166142D1*
X1478057Y4162339D1*
X1481904Y4158492D1*
X1485706D1*
X1489553Y4160438D1*
X1491454Y4162339D1*
X1495301Y4164240D1*
X1499104D1*
X1502950Y4162339D1*
X1504852Y4160438D1*
X1506753Y4156591D1*
X1445558Y4093002D2*
Y4174016D1*
M02*
