%TF.GenerationSoftware,KiCad,Pcbnew,7.0.6*%
%TF.CreationDate,2023-08-31T12:46:52+03:00*%
%TF.ProjectId,main,6d61696e-2e6b-4696-9361-645f70636258,rev?*%
%TF.SameCoordinates,Original*%
%TF.FileFunction,Legend,Top*%
%TF.FilePolarity,Positive*%
%FSLAX46Y46*%
G04 Gerber Fmt 4.6, Leading zero omitted, Abs format (unit mm)*
G04 Created by KiCad (PCBNEW 7.0.6) date 2023-08-31 12:46:52*
%MOMM*%
%LPD*%
G01*
G04 APERTURE LIST*
%ADD10C,0.150000*%
%ADD11C,0.600000*%
%ADD12C,0.120000*%
G04 APERTURE END LIST*
D10*
X42865000Y17130000D02*
X73980000Y17130000D01*
X73980000Y12050000D01*
X42865000Y12050000D01*
X42865000Y17130000D01*
X22545000Y17130000D02*
X42865000Y17130000D01*
X42865000Y12050000D01*
X22545000Y12050000D01*
X22545000Y17130000D01*
X60981779Y15060180D02*
X60981779Y16060180D01*
X60981779Y15679228D02*
X61077017Y15726847D01*
X61077017Y15726847D02*
X61267493Y15726847D01*
X61267493Y15726847D02*
X61362731Y15679228D01*
X61362731Y15679228D02*
X61410350Y15631609D01*
X61410350Y15631609D02*
X61457969Y15536371D01*
X61457969Y15536371D02*
X61457969Y15250657D01*
X61457969Y15250657D02*
X61410350Y15155419D01*
X61410350Y15155419D02*
X61362731Y15107800D01*
X61362731Y15107800D02*
X61267493Y15060180D01*
X61267493Y15060180D02*
X61077017Y15060180D01*
X61077017Y15060180D02*
X60981779Y15107800D01*
X61791303Y15726847D02*
X62029398Y15060180D01*
X62267493Y15726847D02*
X62029398Y15060180D01*
X62029398Y15060180D02*
X61934160Y14822085D01*
X61934160Y14822085D02*
X61886541Y14774466D01*
X61886541Y14774466D02*
X61791303Y14726847D01*
X63362732Y15345895D02*
X63838922Y15345895D01*
X63267494Y15060180D02*
X63600827Y16060180D01*
X63600827Y16060180D02*
X63934160Y15060180D01*
X64267494Y15726847D02*
X64267494Y15060180D01*
X64267494Y15631609D02*
X64315113Y15679228D01*
X64315113Y15679228D02*
X64410351Y15726847D01*
X64410351Y15726847D02*
X64553208Y15726847D01*
X64553208Y15726847D02*
X64648446Y15679228D01*
X64648446Y15679228D02*
X64696065Y15583990D01*
X64696065Y15583990D02*
X64696065Y15060180D01*
X65600827Y15060180D02*
X65600827Y16060180D01*
X65600827Y15107800D02*
X65505589Y15060180D01*
X65505589Y15060180D02*
X65315113Y15060180D01*
X65315113Y15060180D02*
X65219875Y15107800D01*
X65219875Y15107800D02*
X65172256Y15155419D01*
X65172256Y15155419D02*
X65124637Y15250657D01*
X65124637Y15250657D02*
X65124637Y15536371D01*
X65124637Y15536371D02*
X65172256Y15631609D01*
X65172256Y15631609D02*
X65219875Y15679228D01*
X65219875Y15679228D02*
X65315113Y15726847D01*
X65315113Y15726847D02*
X65505589Y15726847D01*
X65505589Y15726847D02*
X65600827Y15679228D01*
X66077018Y15060180D02*
X66077018Y15726847D01*
X66077018Y15536371D02*
X66124637Y15631609D01*
X66124637Y15631609D02*
X66172256Y15679228D01*
X66172256Y15679228D02*
X66267494Y15726847D01*
X66267494Y15726847D02*
X66362732Y15726847D01*
X67077018Y15107800D02*
X66981780Y15060180D01*
X66981780Y15060180D02*
X66791304Y15060180D01*
X66791304Y15060180D02*
X66696066Y15107800D01*
X66696066Y15107800D02*
X66648447Y15203038D01*
X66648447Y15203038D02*
X66648447Y15583990D01*
X66648447Y15583990D02*
X66696066Y15679228D01*
X66696066Y15679228D02*
X66791304Y15726847D01*
X66791304Y15726847D02*
X66981780Y15726847D01*
X66981780Y15726847D02*
X67077018Y15679228D01*
X67077018Y15679228D02*
X67124637Y15583990D01*
X67124637Y15583990D02*
X67124637Y15488752D01*
X67124637Y15488752D02*
X66648447Y15393514D01*
X67457971Y15726847D02*
X67648447Y15060180D01*
X67648447Y15060180D02*
X67838923Y15536371D01*
X67838923Y15536371D02*
X68029399Y15060180D01*
X68029399Y15060180D02*
X68219875Y15726847D01*
X69362733Y15060180D02*
X69362733Y16060180D01*
X69362733Y16060180D02*
X69600828Y16060180D01*
X69600828Y16060180D02*
X69743685Y16012561D01*
X69743685Y16012561D02*
X69838923Y15917323D01*
X69838923Y15917323D02*
X69886542Y15822085D01*
X69886542Y15822085D02*
X69934161Y15631609D01*
X69934161Y15631609D02*
X69934161Y15488752D01*
X69934161Y15488752D02*
X69886542Y15298276D01*
X69886542Y15298276D02*
X69838923Y15203038D01*
X69838923Y15203038D02*
X69743685Y15107800D01*
X69743685Y15107800D02*
X69600828Y15060180D01*
X69600828Y15060180D02*
X69362733Y15060180D01*
X70791304Y15726847D02*
X70791304Y15060180D01*
X70362733Y15726847D02*
X70362733Y15203038D01*
X70362733Y15203038D02*
X70410352Y15107800D01*
X70410352Y15107800D02*
X70505590Y15060180D01*
X70505590Y15060180D02*
X70648447Y15060180D01*
X70648447Y15060180D02*
X70743685Y15107800D01*
X70743685Y15107800D02*
X70791304Y15155419D01*
X71267495Y15726847D02*
X71267495Y15060180D01*
X71267495Y15631609D02*
X71315114Y15679228D01*
X71315114Y15679228D02*
X71410352Y15726847D01*
X71410352Y15726847D02*
X71553209Y15726847D01*
X71553209Y15726847D02*
X71648447Y15679228D01*
X71648447Y15679228D02*
X71696066Y15583990D01*
X71696066Y15583990D02*
X71696066Y15060180D01*
X72600828Y15060180D02*
X72600828Y15583990D01*
X72600828Y15583990D02*
X72553209Y15679228D01*
X72553209Y15679228D02*
X72457971Y15726847D01*
X72457971Y15726847D02*
X72267495Y15726847D01*
X72267495Y15726847D02*
X72172257Y15679228D01*
X72600828Y15107800D02*
X72505590Y15060180D01*
X72505590Y15060180D02*
X72267495Y15060180D01*
X72267495Y15060180D02*
X72172257Y15107800D01*
X72172257Y15107800D02*
X72124638Y15203038D01*
X72124638Y15203038D02*
X72124638Y15298276D01*
X72124638Y15298276D02*
X72172257Y15393514D01*
X72172257Y15393514D02*
X72267495Y15441133D01*
X72267495Y15441133D02*
X72505590Y15441133D01*
X72505590Y15441133D02*
X72600828Y15488752D01*
X73077019Y15060180D02*
X73077019Y15726847D01*
X73077019Y16060180D02*
X73029400Y16012561D01*
X73029400Y16012561D02*
X73077019Y15964942D01*
X73077019Y15964942D02*
X73124638Y16012561D01*
X73124638Y16012561D02*
X73077019Y16060180D01*
X73077019Y16060180D02*
X73077019Y15964942D01*
X60886541Y14116847D02*
X61124636Y13450180D01*
X61124636Y13450180D02*
X61362731Y14116847D01*
X62267493Y13450180D02*
X61696065Y13450180D01*
X61981779Y13450180D02*
X61981779Y14450180D01*
X61981779Y14450180D02*
X61886541Y14307323D01*
X61886541Y14307323D02*
X61791303Y14212085D01*
X61791303Y14212085D02*
X61696065Y14164466D01*
X62696065Y13545419D02*
X62743684Y13497800D01*
X62743684Y13497800D02*
X62696065Y13450180D01*
X62696065Y13450180D02*
X62648446Y13497800D01*
X62648446Y13497800D02*
X62696065Y13545419D01*
X62696065Y13545419D02*
X62696065Y13450180D01*
X63362731Y14450180D02*
X63457969Y14450180D01*
X63457969Y14450180D02*
X63553207Y14402561D01*
X63553207Y14402561D02*
X63600826Y14354942D01*
X63600826Y14354942D02*
X63648445Y14259704D01*
X63648445Y14259704D02*
X63696064Y14069228D01*
X63696064Y14069228D02*
X63696064Y13831133D01*
X63696064Y13831133D02*
X63648445Y13640657D01*
X63648445Y13640657D02*
X63600826Y13545419D01*
X63600826Y13545419D02*
X63553207Y13497800D01*
X63553207Y13497800D02*
X63457969Y13450180D01*
X63457969Y13450180D02*
X63362731Y13450180D01*
X63362731Y13450180D02*
X63267493Y13497800D01*
X63267493Y13497800D02*
X63219874Y13545419D01*
X63219874Y13545419D02*
X63172255Y13640657D01*
X63172255Y13640657D02*
X63124636Y13831133D01*
X63124636Y13831133D02*
X63124636Y14069228D01*
X63124636Y14069228D02*
X63172255Y14259704D01*
X63172255Y14259704D02*
X63219874Y14354942D01*
X63219874Y14354942D02*
X63267493Y14402561D01*
X63267493Y14402561D02*
X63362731Y14450180D01*
D11*
G36*
X47169464Y13173697D02*
G01*
X47102644Y13134719D01*
X46550569Y13134719D01*
X46420472Y13210608D01*
X46340892Y13396297D01*
X46340892Y13606474D01*
X46420472Y13792162D01*
X46550569Y13868052D01*
X47169464Y13868052D01*
X47169464Y13173697D01*
G37*
G36*
X53312322Y13173697D02*
G01*
X53245502Y13134719D01*
X52693427Y13134719D01*
X52563330Y13210608D01*
X52483749Y13396297D01*
X52483749Y13606474D01*
X52563330Y13792162D01*
X52693427Y13868052D01*
X53312322Y13868052D01*
X53312322Y13173697D01*
G37*
G36*
X58740894Y14829074D02*
G01*
X58740894Y13173697D01*
X58674074Y13134719D01*
X58264856Y13134719D01*
X58092891Y13235031D01*
X58012835Y13328430D01*
X57912322Y13562963D01*
X57912322Y14439807D01*
X58012836Y14674342D01*
X58092891Y14767740D01*
X58264856Y14868052D01*
X58674075Y14868052D01*
X58740894Y14829074D01*
G37*
G36*
X59840894Y12034719D02*
G01*
X42812320Y12034719D01*
X42812320Y12834719D01*
X43312320Y12834719D01*
X43332578Y12726347D01*
X43390617Y12632610D01*
X43478598Y12566170D01*
X43584639Y12535999D01*
X43694419Y12546171D01*
X43793110Y12595314D01*
X43867385Y12676789D01*
X43907212Y12779594D01*
X43912320Y12834719D01*
X43912320Y13334719D01*
X45740892Y13334719D01*
X45746963Y13302239D01*
X45748129Y13269223D01*
X45760009Y13232448D01*
X45761150Y13226347D01*
X45762886Y13223541D01*
X45765148Y13216543D01*
X45908005Y12883211D01*
X45915035Y12872703D01*
X45918813Y12860643D01*
X45945501Y12827170D01*
X45969315Y12791581D01*
X45979665Y12784323D01*
X45987546Y12774440D01*
X46032588Y12742252D01*
X46318303Y12575585D01*
X46366568Y12558333D01*
X46414339Y12539827D01*
X46419746Y12539325D01*
X46422119Y12538478D01*
X46427397Y12538616D01*
X46469464Y12534719D01*
X47183749Y12534719D01*
X47234130Y12544136D01*
X47284721Y12552222D01*
X47289645Y12554514D01*
X47292121Y12554977D01*
X47296609Y12557755D01*
X47327711Y12572234D01*
X47335742Y12566170D01*
X47441783Y12535999D01*
X47551563Y12546171D01*
X47650254Y12595314D01*
X47724529Y12676789D01*
X47764356Y12779594D01*
X47769464Y12834719D01*
X48598035Y12834719D01*
X48618293Y12726347D01*
X48676332Y12632610D01*
X48764313Y12566170D01*
X48870354Y12535999D01*
X48980134Y12546171D01*
X49078825Y12595314D01*
X49153100Y12676789D01*
X49192927Y12779594D01*
X49198035Y12834719D01*
X49198035Y13334719D01*
X50455178Y13334719D01*
X50461249Y13302239D01*
X50462415Y13269223D01*
X50474295Y13232448D01*
X50475436Y13226347D01*
X50477172Y13223541D01*
X50479434Y13216543D01*
X50622291Y12883211D01*
X50629321Y12872703D01*
X50633099Y12860643D01*
X50659787Y12827170D01*
X50683601Y12791581D01*
X50693951Y12784323D01*
X50701832Y12774440D01*
X50746874Y12742252D01*
X51032589Y12575585D01*
X51136405Y12538478D01*
X51246618Y12541380D01*
X51348338Y12583899D01*
X51427830Y12660293D01*
X51474359Y12760244D01*
X51481638Y12870253D01*
X51448686Y12975463D01*
X51379953Y13061665D01*
X51334911Y13093853D01*
X51134758Y13210608D01*
X51081568Y13334719D01*
X51883750Y13334719D01*
X51889821Y13302239D01*
X51890987Y13269223D01*
X51902867Y13232448D01*
X51904008Y13226347D01*
X51905744Y13223541D01*
X51908006Y13216543D01*
X52050863Y12883211D01*
X52057893Y12872703D01*
X52061671Y12860643D01*
X52088359Y12827170D01*
X52112173Y12791581D01*
X52122523Y12784323D01*
X52130404Y12774440D01*
X52175446Y12742252D01*
X52461161Y12575585D01*
X52509426Y12558333D01*
X52557197Y12539827D01*
X52562604Y12539325D01*
X52564977Y12538478D01*
X52570255Y12538616D01*
X52612322Y12534719D01*
X53326607Y12534719D01*
X53376988Y12544136D01*
X53427579Y12552222D01*
X53432503Y12554514D01*
X53434979Y12554977D01*
X53439467Y12557755D01*
X53470569Y12572234D01*
X53478600Y12566170D01*
X53584641Y12535999D01*
X53694421Y12546171D01*
X53793112Y12595314D01*
X53867387Y12676789D01*
X53907214Y12779594D01*
X53912322Y12834719D01*
X54740893Y12834719D01*
X54761151Y12726347D01*
X54819190Y12632610D01*
X54907171Y12566170D01*
X55013212Y12535999D01*
X55122992Y12546171D01*
X55221683Y12595314D01*
X55295958Y12676789D01*
X55335785Y12779594D01*
X55340893Y12834719D01*
X55340893Y14723742D01*
X55378605Y14767740D01*
X55550570Y14868052D01*
X55816931Y14868052D01*
X55947027Y14792162D01*
X56026608Y14606475D01*
X56026608Y12834719D01*
X56046866Y12726347D01*
X56104905Y12632610D01*
X56192886Y12566170D01*
X56298927Y12535999D01*
X56408707Y12546171D01*
X56507398Y12595314D01*
X56581673Y12676789D01*
X56621500Y12779594D01*
X56626608Y12834719D01*
X56626608Y13501386D01*
X57312322Y13501386D01*
X57318393Y13468906D01*
X57319559Y13435891D01*
X57331438Y13399118D01*
X57332580Y13393014D01*
X57334317Y13390207D01*
X57336578Y13383211D01*
X57479435Y13049877D01*
X57489429Y13034939D01*
X57495406Y13017992D01*
X57527402Y12972814D01*
X57670259Y12806149D01*
X57687798Y12792041D01*
X57701833Y12774440D01*
X57746875Y12742252D01*
X58032590Y12575585D01*
X58080855Y12558333D01*
X58128626Y12539827D01*
X58134033Y12539325D01*
X58136406Y12538478D01*
X58141684Y12538616D01*
X58183751Y12534719D01*
X58755179Y12534719D01*
X58805560Y12544136D01*
X58856151Y12552222D01*
X58861075Y12554514D01*
X58863551Y12554977D01*
X58868039Y12557755D01*
X58899141Y12572234D01*
X58907172Y12566170D01*
X59013213Y12535999D01*
X59122993Y12546171D01*
X59221684Y12595314D01*
X59295959Y12676789D01*
X59335786Y12779594D01*
X59340894Y12834719D01*
X59340894Y16334719D01*
X59320636Y16443091D01*
X59262597Y16536828D01*
X59174616Y16603268D01*
X59068575Y16633439D01*
X58958795Y16623267D01*
X58860104Y16574124D01*
X58785829Y16492649D01*
X58746002Y16389844D01*
X58740894Y16334719D01*
X58740894Y15468052D01*
X58183751Y15468052D01*
X58133383Y15458636D01*
X58082780Y15450550D01*
X58077853Y15448256D01*
X58075379Y15447794D01*
X58070892Y15445016D01*
X58032591Y15427186D01*
X57746875Y15260520D01*
X57729845Y15245797D01*
X57710012Y15235153D01*
X57670259Y15196623D01*
X57527402Y15029956D01*
X57518413Y15014395D01*
X57505845Y15001550D01*
X57479435Y14952894D01*
X57336578Y14619562D01*
X57329364Y14587317D01*
X57317430Y14556511D01*
X57313864Y14518030D01*
X57312509Y14511972D01*
X57313000Y14508708D01*
X57312322Y14501386D01*
X57312322Y13501386D01*
X56626608Y13501386D01*
X56626608Y14668052D01*
X56620537Y14700529D01*
X56619371Y14733548D01*
X56607491Y14770316D01*
X56606350Y14776424D01*
X56604611Y14779232D01*
X56602351Y14786228D01*
X56459493Y15119562D01*
X56452464Y15130066D01*
X56448686Y15142130D01*
X56421992Y15175607D01*
X56398183Y15211192D01*
X56387833Y15218448D01*
X56379953Y15228332D01*
X56334911Y15260520D01*
X56049197Y15427186D01*
X56000936Y15444435D01*
X55953161Y15462944D01*
X55947751Y15463445D01*
X55945380Y15464293D01*
X55940102Y15464154D01*
X55898036Y15468052D01*
X55469465Y15468052D01*
X55419097Y15458636D01*
X55368494Y15450550D01*
X55363567Y15448256D01*
X55361093Y15447794D01*
X55356606Y15445016D01*
X55318305Y15427186D01*
X55244270Y15383999D01*
X55174615Y15436601D01*
X55068574Y15466772D01*
X54958794Y15456600D01*
X54860103Y15407457D01*
X54785828Y15325982D01*
X54746001Y15223177D01*
X54740893Y15168052D01*
X54740893Y12834719D01*
X53912322Y12834719D01*
X53912322Y14668052D01*
X53906251Y14700529D01*
X53905085Y14733548D01*
X53893205Y14770316D01*
X53892064Y14776424D01*
X53890325Y14779232D01*
X53888065Y14786228D01*
X53745207Y15119562D01*
X53738178Y15130066D01*
X53734400Y15142130D01*
X53707706Y15175607D01*
X53683897Y15211192D01*
X53673547Y15218448D01*
X53665667Y15228332D01*
X53620625Y15260520D01*
X53334911Y15427186D01*
X53286650Y15444435D01*
X53238875Y15462944D01*
X53233465Y15463445D01*
X53231094Y15464293D01*
X53225816Y15464154D01*
X53183750Y15468052D01*
X52612322Y15468052D01*
X52561954Y15458636D01*
X52511351Y15450550D01*
X52506424Y15448256D01*
X52503950Y15447794D01*
X52499463Y15445016D01*
X52461162Y15427186D01*
X52175446Y15260520D01*
X52092044Y15188416D01*
X52040320Y15091052D01*
X52027261Y14981579D01*
X52054631Y14874781D01*
X52118732Y14785080D01*
X52210908Y14724594D01*
X52318709Y14701490D01*
X52427578Y14718888D01*
X52477768Y14742252D01*
X52693427Y14868052D01*
X53102645Y14868052D01*
X53232741Y14792162D01*
X53312322Y14606475D01*
X53312322Y14507030D01*
X53245502Y14468052D01*
X52612322Y14468052D01*
X52561954Y14458636D01*
X52511351Y14450550D01*
X52506424Y14448256D01*
X52503950Y14447794D01*
X52499463Y14445016D01*
X52461162Y14427186D01*
X52175446Y14260520D01*
X52165881Y14252251D01*
X52154377Y14247021D01*
X52124437Y14216421D01*
X52092044Y14188416D01*
X52086113Y14177252D01*
X52077273Y14168217D01*
X52050863Y14119561D01*
X51908006Y13786227D01*
X51900792Y13753984D01*
X51888858Y13723177D01*
X51885292Y13684696D01*
X51883937Y13678638D01*
X51884428Y13675374D01*
X51883750Y13668052D01*
X51883750Y13334719D01*
X51081568Y13334719D01*
X51055178Y13396297D01*
X51055178Y16334719D01*
X51034920Y16443091D01*
X50976881Y16536828D01*
X50888900Y16603268D01*
X50782859Y16633439D01*
X50673079Y16623267D01*
X50574388Y16574124D01*
X50500113Y16492649D01*
X50460286Y16389844D01*
X50455178Y16334719D01*
X50455178Y13334719D01*
X49198035Y13334719D01*
X49198035Y14439807D01*
X49298547Y14674339D01*
X49378606Y14767741D01*
X49550569Y14868052D01*
X49755178Y14868052D01*
X49863550Y14888310D01*
X49957287Y14946349D01*
X50023727Y15034330D01*
X50053898Y15140371D01*
X50043726Y15250151D01*
X49994583Y15348842D01*
X49913108Y15423117D01*
X49810303Y15462944D01*
X49755178Y15468052D01*
X49469464Y15468052D01*
X49419098Y15458637D01*
X49368493Y15450550D01*
X49363566Y15448256D01*
X49361092Y15447794D01*
X49356606Y15445016D01*
X49318303Y15427186D01*
X49146486Y15326960D01*
X49119738Y15370161D01*
X49031757Y15436601D01*
X48925716Y15466772D01*
X48815936Y15456600D01*
X48717245Y15407457D01*
X48642970Y15325982D01*
X48603143Y15223177D01*
X48598035Y15168052D01*
X48598035Y12834719D01*
X47769464Y12834719D01*
X47769464Y14668052D01*
X47763393Y14700529D01*
X47762227Y14733548D01*
X47750347Y14770316D01*
X47749206Y14776424D01*
X47747467Y14779232D01*
X47745207Y14786228D01*
X47602349Y15119562D01*
X47595320Y15130066D01*
X47591542Y15142130D01*
X47564848Y15175607D01*
X47541039Y15211192D01*
X47530689Y15218448D01*
X47522809Y15228332D01*
X47477767Y15260520D01*
X47192053Y15427186D01*
X47143792Y15444435D01*
X47096017Y15462944D01*
X47090607Y15463445D01*
X47088236Y15464293D01*
X47082958Y15464154D01*
X47040892Y15468052D01*
X46469464Y15468052D01*
X46419096Y15458636D01*
X46368493Y15450550D01*
X46363566Y15448256D01*
X46361092Y15447794D01*
X46356605Y15445016D01*
X46318304Y15427186D01*
X46032588Y15260520D01*
X45949186Y15188416D01*
X45897462Y15091052D01*
X45884403Y14981579D01*
X45911773Y14874781D01*
X45975874Y14785080D01*
X46068050Y14724594D01*
X46175851Y14701490D01*
X46284720Y14718888D01*
X46334910Y14742252D01*
X46550569Y14868052D01*
X46959787Y14868052D01*
X47089883Y14792162D01*
X47169464Y14606475D01*
X47169464Y14507030D01*
X47102644Y14468052D01*
X46469464Y14468052D01*
X46419096Y14458636D01*
X46368493Y14450550D01*
X46363566Y14448256D01*
X46361092Y14447794D01*
X46356605Y14445016D01*
X46318304Y14427186D01*
X46032588Y14260520D01*
X46023023Y14252251D01*
X46011519Y14247021D01*
X45981579Y14216421D01*
X45949186Y14188416D01*
X45943255Y14177252D01*
X45934415Y14168217D01*
X45908005Y14119561D01*
X45765148Y13786227D01*
X45757934Y13753984D01*
X45746000Y13723177D01*
X45742434Y13684696D01*
X45741079Y13678638D01*
X45741570Y13675374D01*
X45740892Y13668052D01*
X45740892Y13334719D01*
X43912320Y13334719D01*
X43912320Y14368052D01*
X44612320Y14368052D01*
X44720692Y14388310D01*
X44814429Y14446349D01*
X44880869Y14534330D01*
X44911040Y14640371D01*
X44900868Y14750151D01*
X44851725Y14848842D01*
X44770250Y14923117D01*
X44667445Y14962944D01*
X44612320Y14968052D01*
X43912320Y14968052D01*
X43912320Y16034719D01*
X45040892Y16034719D01*
X45149264Y16054977D01*
X45243001Y16113016D01*
X45309441Y16200997D01*
X45339612Y16307038D01*
X45329440Y16416818D01*
X45280297Y16515509D01*
X45198822Y16589784D01*
X45096017Y16629611D01*
X45040892Y16634719D01*
X43612320Y16634719D01*
X43571535Y16627095D01*
X43530221Y16623267D01*
X43517698Y16617031D01*
X43503948Y16614461D01*
X43468668Y16592617D01*
X43431530Y16574124D01*
X43422107Y16563787D01*
X43410211Y16556422D01*
X43385203Y16523307D01*
X43357255Y16492649D01*
X43352201Y16479605D01*
X43343771Y16468441D01*
X43332416Y16428533D01*
X43317428Y16389844D01*
X43315505Y16369097D01*
X43313600Y16362400D01*
X43314242Y16355466D01*
X43312320Y16334719D01*
X43312320Y12834719D01*
X42812320Y12834719D01*
X42812320Y17134719D01*
X59840894Y17134719D01*
X59840894Y12034719D01*
G37*
D10*
X24612017Y15572561D02*
X24231064Y15572561D01*
X24231064Y15572561D02*
X24040588Y15477323D01*
X24040588Y15477323D02*
X23945350Y15382085D01*
X23945350Y15382085D02*
X23754874Y15096371D01*
X23754874Y15096371D02*
X23659636Y14715419D01*
X23659636Y14715419D02*
X23659636Y13953514D01*
X23659636Y13953514D02*
X23754874Y13763038D01*
X23754874Y13763038D02*
X23850112Y13667800D01*
X23850112Y13667800D02*
X24040588Y13572561D01*
X24040588Y13572561D02*
X24421541Y13572561D01*
X24421541Y13572561D02*
X24612017Y13667800D01*
X24612017Y13667800D02*
X24707255Y13763038D01*
X24707255Y13763038D02*
X24802493Y13953514D01*
X24802493Y13953514D02*
X24802493Y14429704D01*
X24802493Y14429704D02*
X24707255Y14620180D01*
X24707255Y14620180D02*
X24612017Y14715419D01*
X24612017Y14715419D02*
X24421541Y14810657D01*
X24421541Y14810657D02*
X24040588Y14810657D01*
X24040588Y14810657D02*
X23850112Y14715419D01*
X23850112Y14715419D02*
X23754874Y14620180D01*
X23754874Y14620180D02*
X23659636Y14429704D01*
X26612017Y15572561D02*
X25659636Y15572561D01*
X25659636Y15572561D02*
X25564398Y14620180D01*
X25564398Y14620180D02*
X25659636Y14715419D01*
X25659636Y14715419D02*
X25850112Y14810657D01*
X25850112Y14810657D02*
X26326303Y14810657D01*
X26326303Y14810657D02*
X26516779Y14715419D01*
X26516779Y14715419D02*
X26612017Y14620180D01*
X26612017Y14620180D02*
X26707255Y14429704D01*
X26707255Y14429704D02*
X26707255Y13953514D01*
X26707255Y13953514D02*
X26612017Y13763038D01*
X26612017Y13763038D02*
X26516779Y13667800D01*
X26516779Y13667800D02*
X26326303Y13572561D01*
X26326303Y13572561D02*
X25850112Y13572561D01*
X25850112Y13572561D02*
X25659636Y13667800D01*
X25659636Y13667800D02*
X25564398Y13763038D01*
X28421541Y13667800D02*
X28231065Y13572561D01*
X28231065Y13572561D02*
X27850112Y13572561D01*
X27850112Y13572561D02*
X27659636Y13667800D01*
X27659636Y13667800D02*
X27564398Y13763038D01*
X27564398Y13763038D02*
X27469160Y13953514D01*
X27469160Y13953514D02*
X27469160Y14524942D01*
X27469160Y14524942D02*
X27564398Y14715419D01*
X27564398Y14715419D02*
X27659636Y14810657D01*
X27659636Y14810657D02*
X27850112Y14905895D01*
X27850112Y14905895D02*
X28231065Y14905895D01*
X28231065Y14905895D02*
X28421541Y14810657D01*
X29564398Y14715419D02*
X29373922Y14810657D01*
X29373922Y14810657D02*
X29278684Y14905895D01*
X29278684Y14905895D02*
X29183446Y15096371D01*
X29183446Y15096371D02*
X29183446Y15191609D01*
X29183446Y15191609D02*
X29278684Y15382085D01*
X29278684Y15382085D02*
X29373922Y15477323D01*
X29373922Y15477323D02*
X29564398Y15572561D01*
X29564398Y15572561D02*
X29945351Y15572561D01*
X29945351Y15572561D02*
X30135827Y15477323D01*
X30135827Y15477323D02*
X30231065Y15382085D01*
X30231065Y15382085D02*
X30326303Y15191609D01*
X30326303Y15191609D02*
X30326303Y15096371D01*
X30326303Y15096371D02*
X30231065Y14905895D01*
X30231065Y14905895D02*
X30135827Y14810657D01*
X30135827Y14810657D02*
X29945351Y14715419D01*
X29945351Y14715419D02*
X29564398Y14715419D01*
X29564398Y14715419D02*
X29373922Y14620180D01*
X29373922Y14620180D02*
X29278684Y14524942D01*
X29278684Y14524942D02*
X29183446Y14334466D01*
X29183446Y14334466D02*
X29183446Y13953514D01*
X29183446Y13953514D02*
X29278684Y13763038D01*
X29278684Y13763038D02*
X29373922Y13667800D01*
X29373922Y13667800D02*
X29564398Y13572561D01*
X29564398Y13572561D02*
X29945351Y13572561D01*
X29945351Y13572561D02*
X30135827Y13667800D01*
X30135827Y13667800D02*
X30231065Y13763038D01*
X30231065Y13763038D02*
X30326303Y13953514D01*
X30326303Y13953514D02*
X30326303Y14334466D01*
X30326303Y14334466D02*
X30231065Y14524942D01*
X30231065Y14524942D02*
X30135827Y14620180D01*
X30135827Y14620180D02*
X29945351Y14715419D01*
X32231065Y13572561D02*
X31088208Y13572561D01*
X31659636Y13572561D02*
X31659636Y15572561D01*
X31659636Y15572561D02*
X31469160Y15286847D01*
X31469160Y15286847D02*
X31278684Y15096371D01*
X31278684Y15096371D02*
X31088208Y15001133D01*
X33945351Y15572561D02*
X33564398Y15572561D01*
X33564398Y15572561D02*
X33373922Y15477323D01*
X33373922Y15477323D02*
X33278684Y15382085D01*
X33278684Y15382085D02*
X33088208Y15096371D01*
X33088208Y15096371D02*
X32992970Y14715419D01*
X32992970Y14715419D02*
X32992970Y13953514D01*
X32992970Y13953514D02*
X33088208Y13763038D01*
X33088208Y13763038D02*
X33183446Y13667800D01*
X33183446Y13667800D02*
X33373922Y13572561D01*
X33373922Y13572561D02*
X33754875Y13572561D01*
X33754875Y13572561D02*
X33945351Y13667800D01*
X33945351Y13667800D02*
X34040589Y13763038D01*
X34040589Y13763038D02*
X34135827Y13953514D01*
X34135827Y13953514D02*
X34135827Y14429704D01*
X34135827Y14429704D02*
X34040589Y14620180D01*
X34040589Y14620180D02*
X33945351Y14715419D01*
X33945351Y14715419D02*
X33754875Y14810657D01*
X33754875Y14810657D02*
X33373922Y14810657D01*
X33373922Y14810657D02*
X33183446Y14715419D01*
X33183446Y14715419D02*
X33088208Y14620180D01*
X33088208Y14620180D02*
X32992970Y14429704D01*
X36421542Y13667800D02*
X36707256Y13572561D01*
X36707256Y13572561D02*
X37183447Y13572561D01*
X37183447Y13572561D02*
X37373923Y13667800D01*
X37373923Y13667800D02*
X37469161Y13763038D01*
X37469161Y13763038D02*
X37564399Y13953514D01*
X37564399Y13953514D02*
X37564399Y14143990D01*
X37564399Y14143990D02*
X37469161Y14334466D01*
X37469161Y14334466D02*
X37373923Y14429704D01*
X37373923Y14429704D02*
X37183447Y14524942D01*
X37183447Y14524942D02*
X36802494Y14620180D01*
X36802494Y14620180D02*
X36612018Y14715419D01*
X36612018Y14715419D02*
X36516780Y14810657D01*
X36516780Y14810657D02*
X36421542Y15001133D01*
X36421542Y15001133D02*
X36421542Y15191609D01*
X36421542Y15191609D02*
X36516780Y15382085D01*
X36516780Y15382085D02*
X36612018Y15477323D01*
X36612018Y15477323D02*
X36802494Y15572561D01*
X36802494Y15572561D02*
X37278685Y15572561D01*
X37278685Y15572561D02*
X37564399Y15477323D01*
X39088209Y14620180D02*
X39373923Y14524942D01*
X39373923Y14524942D02*
X39469161Y14429704D01*
X39469161Y14429704D02*
X39564399Y14239228D01*
X39564399Y14239228D02*
X39564399Y13953514D01*
X39564399Y13953514D02*
X39469161Y13763038D01*
X39469161Y13763038D02*
X39373923Y13667800D01*
X39373923Y13667800D02*
X39183447Y13572561D01*
X39183447Y13572561D02*
X38421542Y13572561D01*
X38421542Y13572561D02*
X38421542Y15572561D01*
X38421542Y15572561D02*
X39088209Y15572561D01*
X39088209Y15572561D02*
X39278685Y15477323D01*
X39278685Y15477323D02*
X39373923Y15382085D01*
X39373923Y15382085D02*
X39469161Y15191609D01*
X39469161Y15191609D02*
X39469161Y15001133D01*
X39469161Y15001133D02*
X39373923Y14810657D01*
X39373923Y14810657D02*
X39278685Y14715419D01*
X39278685Y14715419D02*
X39088209Y14620180D01*
X39088209Y14620180D02*
X38421542Y14620180D01*
X41564399Y13763038D02*
X41469161Y13667800D01*
X41469161Y13667800D02*
X41183447Y13572561D01*
X41183447Y13572561D02*
X40992971Y13572561D01*
X40992971Y13572561D02*
X40707256Y13667800D01*
X40707256Y13667800D02*
X40516780Y13858276D01*
X40516780Y13858276D02*
X40421542Y14048752D01*
X40421542Y14048752D02*
X40326304Y14429704D01*
X40326304Y14429704D02*
X40326304Y14715419D01*
X40326304Y14715419D02*
X40421542Y15096371D01*
X40421542Y15096371D02*
X40516780Y15286847D01*
X40516780Y15286847D02*
X40707256Y15477323D01*
X40707256Y15477323D02*
X40992971Y15572561D01*
X40992971Y15572561D02*
X41183447Y15572561D01*
X41183447Y15572561D02*
X41469161Y15477323D01*
X41469161Y15477323D02*
X41564399Y15382085D01*
X70678095Y105095180D02*
X70678095Y104285657D01*
X70678095Y104285657D02*
X70725714Y104190419D01*
X70725714Y104190419D02*
X70773333Y104142800D01*
X70773333Y104142800D02*
X70868571Y104095180D01*
X70868571Y104095180D02*
X71059047Y104095180D01*
X71059047Y104095180D02*
X71154285Y104142800D01*
X71154285Y104142800D02*
X71201904Y104190419D01*
X71201904Y104190419D02*
X71249523Y104285657D01*
X71249523Y104285657D02*
X71249523Y105095180D01*
X71678095Y104999942D02*
X71725714Y105047561D01*
X71725714Y105047561D02*
X71820952Y105095180D01*
X71820952Y105095180D02*
X72059047Y105095180D01*
X72059047Y105095180D02*
X72154285Y105047561D01*
X72154285Y105047561D02*
X72201904Y104999942D01*
X72201904Y104999942D02*
X72249523Y104904704D01*
X72249523Y104904704D02*
X72249523Y104809466D01*
X72249523Y104809466D02*
X72201904Y104666609D01*
X72201904Y104666609D02*
X71630476Y104095180D01*
X71630476Y104095180D02*
X72249523Y104095180D01*
X64749524Y61620895D02*
X65225714Y61620895D01*
X64654286Y61335180D02*
X64987619Y62335180D01*
X64987619Y62335180D02*
X65320952Y61335180D01*
X65606667Y61382800D02*
X65749524Y61335180D01*
X65749524Y61335180D02*
X65987619Y61335180D01*
X65987619Y61335180D02*
X66082857Y61382800D01*
X66082857Y61382800D02*
X66130476Y61430419D01*
X66130476Y61430419D02*
X66178095Y61525657D01*
X66178095Y61525657D02*
X66178095Y61620895D01*
X66178095Y61620895D02*
X66130476Y61716133D01*
X66130476Y61716133D02*
X66082857Y61763752D01*
X66082857Y61763752D02*
X65987619Y61811371D01*
X65987619Y61811371D02*
X65797143Y61858990D01*
X65797143Y61858990D02*
X65701905Y61906609D01*
X65701905Y61906609D02*
X65654286Y61954228D01*
X65654286Y61954228D02*
X65606667Y62049466D01*
X65606667Y62049466D02*
X65606667Y62144704D01*
X65606667Y62144704D02*
X65654286Y62239942D01*
X65654286Y62239942D02*
X65701905Y62287561D01*
X65701905Y62287561D02*
X65797143Y62335180D01*
X65797143Y62335180D02*
X66035238Y62335180D01*
X66035238Y62335180D02*
X66178095Y62287561D01*
X67035238Y62335180D02*
X66844762Y62335180D01*
X66844762Y62335180D02*
X66749524Y62287561D01*
X66749524Y62287561D02*
X66701905Y62239942D01*
X66701905Y62239942D02*
X66606667Y62097085D01*
X66606667Y62097085D02*
X66559048Y61906609D01*
X66559048Y61906609D02*
X66559048Y61525657D01*
X66559048Y61525657D02*
X66606667Y61430419D01*
X66606667Y61430419D02*
X66654286Y61382800D01*
X66654286Y61382800D02*
X66749524Y61335180D01*
X66749524Y61335180D02*
X66940000Y61335180D01*
X66940000Y61335180D02*
X67035238Y61382800D01*
X67035238Y61382800D02*
X67082857Y61430419D01*
X67082857Y61430419D02*
X67130476Y61525657D01*
X67130476Y61525657D02*
X67130476Y61763752D01*
X67130476Y61763752D02*
X67082857Y61858990D01*
X67082857Y61858990D02*
X67035238Y61906609D01*
X67035238Y61906609D02*
X66940000Y61954228D01*
X66940000Y61954228D02*
X66749524Y61954228D01*
X66749524Y61954228D02*
X66654286Y61906609D01*
X66654286Y61906609D02*
X66606667Y61858990D01*
X66606667Y61858990D02*
X66559048Y61763752D01*
X68130476Y61430419D02*
X68082857Y61382800D01*
X68082857Y61382800D02*
X67940000Y61335180D01*
X67940000Y61335180D02*
X67844762Y61335180D01*
X67844762Y61335180D02*
X67701905Y61382800D01*
X67701905Y61382800D02*
X67606667Y61478038D01*
X67606667Y61478038D02*
X67559048Y61573276D01*
X67559048Y61573276D02*
X67511429Y61763752D01*
X67511429Y61763752D02*
X67511429Y61906609D01*
X67511429Y61906609D02*
X67559048Y62097085D01*
X67559048Y62097085D02*
X67606667Y62192323D01*
X67606667Y62192323D02*
X67701905Y62287561D01*
X67701905Y62287561D02*
X67844762Y62335180D01*
X67844762Y62335180D02*
X67940000Y62335180D01*
X67940000Y62335180D02*
X68082857Y62287561D01*
X68082857Y62287561D02*
X68130476Y62239942D01*
X68987619Y62001847D02*
X68987619Y61335180D01*
X68749524Y62382800D02*
X68511429Y61668514D01*
X68511429Y61668514D02*
X69130476Y61668514D01*
X69701905Y62335180D02*
X69797143Y62335180D01*
X69797143Y62335180D02*
X69892381Y62287561D01*
X69892381Y62287561D02*
X69940000Y62239942D01*
X69940000Y62239942D02*
X69987619Y62144704D01*
X69987619Y62144704D02*
X70035238Y61954228D01*
X70035238Y61954228D02*
X70035238Y61716133D01*
X70035238Y61716133D02*
X69987619Y61525657D01*
X69987619Y61525657D02*
X69940000Y61430419D01*
X69940000Y61430419D02*
X69892381Y61382800D01*
X69892381Y61382800D02*
X69797143Y61335180D01*
X69797143Y61335180D02*
X69701905Y61335180D01*
X69701905Y61335180D02*
X69606667Y61382800D01*
X69606667Y61382800D02*
X69559048Y61430419D01*
X69559048Y61430419D02*
X69511429Y61525657D01*
X69511429Y61525657D02*
X69463810Y61716133D01*
X69463810Y61716133D02*
X69463810Y61954228D01*
X69463810Y61954228D02*
X69511429Y62144704D01*
X69511429Y62144704D02*
X69559048Y62239942D01*
X69559048Y62239942D02*
X69606667Y62287561D01*
X69606667Y62287561D02*
X69701905Y62335180D01*
X70654286Y62335180D02*
X70749524Y62335180D01*
X70749524Y62335180D02*
X70844762Y62287561D01*
X70844762Y62287561D02*
X70892381Y62239942D01*
X70892381Y62239942D02*
X70940000Y62144704D01*
X70940000Y62144704D02*
X70987619Y61954228D01*
X70987619Y61954228D02*
X70987619Y61716133D01*
X70987619Y61716133D02*
X70940000Y61525657D01*
X70940000Y61525657D02*
X70892381Y61430419D01*
X70892381Y61430419D02*
X70844762Y61382800D01*
X70844762Y61382800D02*
X70749524Y61335180D01*
X70749524Y61335180D02*
X70654286Y61335180D01*
X70654286Y61335180D02*
X70559048Y61382800D01*
X70559048Y61382800D02*
X70511429Y61430419D01*
X70511429Y61430419D02*
X70463810Y61525657D01*
X70463810Y61525657D02*
X70416191Y61716133D01*
X70416191Y61716133D02*
X70416191Y61954228D01*
X70416191Y61954228D02*
X70463810Y62144704D01*
X70463810Y62144704D02*
X70511429Y62239942D01*
X70511429Y62239942D02*
X70559048Y62287561D01*
X70559048Y62287561D02*
X70654286Y62335180D01*
X71559048Y61906609D02*
X71463810Y61954228D01*
X71463810Y61954228D02*
X71416191Y62001847D01*
X71416191Y62001847D02*
X71368572Y62097085D01*
X71368572Y62097085D02*
X71368572Y62144704D01*
X71368572Y62144704D02*
X71416191Y62239942D01*
X71416191Y62239942D02*
X71463810Y62287561D01*
X71463810Y62287561D02*
X71559048Y62335180D01*
X71559048Y62335180D02*
X71749524Y62335180D01*
X71749524Y62335180D02*
X71844762Y62287561D01*
X71844762Y62287561D02*
X71892381Y62239942D01*
X71892381Y62239942D02*
X71940000Y62144704D01*
X71940000Y62144704D02*
X71940000Y62097085D01*
X71940000Y62097085D02*
X71892381Y62001847D01*
X71892381Y62001847D02*
X71844762Y61954228D01*
X71844762Y61954228D02*
X71749524Y61906609D01*
X71749524Y61906609D02*
X71559048Y61906609D01*
X71559048Y61906609D02*
X71463810Y61858990D01*
X71463810Y61858990D02*
X71416191Y61811371D01*
X71416191Y61811371D02*
X71368572Y61716133D01*
X71368572Y61716133D02*
X71368572Y61525657D01*
X71368572Y61525657D02*
X71416191Y61430419D01*
X71416191Y61430419D02*
X71463810Y61382800D01*
X71463810Y61382800D02*
X71559048Y61335180D01*
X71559048Y61335180D02*
X71749524Y61335180D01*
X71749524Y61335180D02*
X71844762Y61382800D01*
X71844762Y61382800D02*
X71892381Y61430419D01*
X71892381Y61430419D02*
X71940000Y61525657D01*
X71940000Y61525657D02*
X71940000Y61716133D01*
X71940000Y61716133D02*
X71892381Y61811371D01*
X71892381Y61811371D02*
X71844762Y61858990D01*
X71844762Y61858990D02*
X71749524Y61906609D01*
X72368572Y61716133D02*
X73130477Y61716133D01*
X74082857Y62335180D02*
X73606667Y62335180D01*
X73606667Y62335180D02*
X73559048Y61858990D01*
X73559048Y61858990D02*
X73606667Y61906609D01*
X73606667Y61906609D02*
X73701905Y61954228D01*
X73701905Y61954228D02*
X73940000Y61954228D01*
X73940000Y61954228D02*
X74035238Y61906609D01*
X74035238Y61906609D02*
X74082857Y61858990D01*
X74082857Y61858990D02*
X74130476Y61763752D01*
X74130476Y61763752D02*
X74130476Y61525657D01*
X74130476Y61525657D02*
X74082857Y61430419D01*
X74082857Y61430419D02*
X74035238Y61382800D01*
X74035238Y61382800D02*
X73940000Y61335180D01*
X73940000Y61335180D02*
X73701905Y61335180D01*
X73701905Y61335180D02*
X73606667Y61382800D01*
X73606667Y61382800D02*
X73559048Y61430419D01*
X75035238Y62335180D02*
X74559048Y62335180D01*
X74559048Y62335180D02*
X74511429Y61858990D01*
X74511429Y61858990D02*
X74559048Y61906609D01*
X74559048Y61906609D02*
X74654286Y61954228D01*
X74654286Y61954228D02*
X74892381Y61954228D01*
X74892381Y61954228D02*
X74987619Y61906609D01*
X74987619Y61906609D02*
X75035238Y61858990D01*
X75035238Y61858990D02*
X75082857Y61763752D01*
X75082857Y61763752D02*
X75082857Y61525657D01*
X75082857Y61525657D02*
X75035238Y61430419D01*
X75035238Y61430419D02*
X74987619Y61382800D01*
X74987619Y61382800D02*
X74892381Y61335180D01*
X74892381Y61335180D02*
X74654286Y61335180D01*
X74654286Y61335180D02*
X74559048Y61382800D01*
X74559048Y61382800D02*
X74511429Y61430419D01*
X75511429Y61335180D02*
X75511429Y62335180D01*
X75511429Y62335180D02*
X75892381Y62335180D01*
X75892381Y62335180D02*
X75987619Y62287561D01*
X75987619Y62287561D02*
X76035238Y62239942D01*
X76035238Y62239942D02*
X76082857Y62144704D01*
X76082857Y62144704D02*
X76082857Y62001847D01*
X76082857Y62001847D02*
X76035238Y61906609D01*
X76035238Y61906609D02*
X75987619Y61858990D01*
X75987619Y61858990D02*
X75892381Y61811371D01*
X75892381Y61811371D02*
X75511429Y61811371D01*
X77082857Y61430419D02*
X77035238Y61382800D01*
X77035238Y61382800D02*
X76892381Y61335180D01*
X76892381Y61335180D02*
X76797143Y61335180D01*
X76797143Y61335180D02*
X76654286Y61382800D01*
X76654286Y61382800D02*
X76559048Y61478038D01*
X76559048Y61478038D02*
X76511429Y61573276D01*
X76511429Y61573276D02*
X76463810Y61763752D01*
X76463810Y61763752D02*
X76463810Y61906609D01*
X76463810Y61906609D02*
X76511429Y62097085D01*
X76511429Y62097085D02*
X76559048Y62192323D01*
X76559048Y62192323D02*
X76654286Y62287561D01*
X76654286Y62287561D02*
X76797143Y62335180D01*
X76797143Y62335180D02*
X76892381Y62335180D01*
X76892381Y62335180D02*
X77035238Y62287561D01*
X77035238Y62287561D02*
X77082857Y62239942D01*
X77511429Y61335180D02*
X77511429Y62335180D01*
X77511429Y62335180D02*
X78082857Y61335180D01*
X78082857Y61335180D02*
X78082857Y62335180D01*
X32578095Y52175180D02*
X32578095Y51365657D01*
X32578095Y51365657D02*
X32625714Y51270419D01*
X32625714Y51270419D02*
X32673333Y51222800D01*
X32673333Y51222800D02*
X32768571Y51175180D01*
X32768571Y51175180D02*
X32959047Y51175180D01*
X32959047Y51175180D02*
X33054285Y51222800D01*
X33054285Y51222800D02*
X33101904Y51270419D01*
X33101904Y51270419D02*
X33149523Y51365657D01*
X33149523Y51365657D02*
X33149523Y52175180D01*
X34149523Y51175180D02*
X33578095Y51175180D01*
X33863809Y51175180D02*
X33863809Y52175180D01*
X33863809Y52175180D02*
X33768571Y52032323D01*
X33768571Y52032323D02*
X33673333Y51937085D01*
X33673333Y51937085D02*
X33578095Y51889466D01*
X28649524Y105095180D02*
X28887619Y104095180D01*
X28887619Y104095180D02*
X29078095Y104809466D01*
X29078095Y104809466D02*
X29268571Y104095180D01*
X29268571Y104095180D02*
X29506667Y105095180D01*
X30316190Y105095180D02*
X30125714Y105095180D01*
X30125714Y105095180D02*
X30030476Y105047561D01*
X30030476Y105047561D02*
X29982857Y104999942D01*
X29982857Y104999942D02*
X29887619Y104857085D01*
X29887619Y104857085D02*
X29840000Y104666609D01*
X29840000Y104666609D02*
X29840000Y104285657D01*
X29840000Y104285657D02*
X29887619Y104190419D01*
X29887619Y104190419D02*
X29935238Y104142800D01*
X29935238Y104142800D02*
X30030476Y104095180D01*
X30030476Y104095180D02*
X30220952Y104095180D01*
X30220952Y104095180D02*
X30316190Y104142800D01*
X30316190Y104142800D02*
X30363809Y104190419D01*
X30363809Y104190419D02*
X30411428Y104285657D01*
X30411428Y104285657D02*
X30411428Y104523752D01*
X30411428Y104523752D02*
X30363809Y104618990D01*
X30363809Y104618990D02*
X30316190Y104666609D01*
X30316190Y104666609D02*
X30220952Y104714228D01*
X30220952Y104714228D02*
X30030476Y104714228D01*
X30030476Y104714228D02*
X29935238Y104666609D01*
X29935238Y104666609D02*
X29887619Y104618990D01*
X29887619Y104618990D02*
X29840000Y104523752D01*
X31316190Y105095180D02*
X30840000Y105095180D01*
X30840000Y105095180D02*
X30792381Y104618990D01*
X30792381Y104618990D02*
X30840000Y104666609D01*
X30840000Y104666609D02*
X30935238Y104714228D01*
X30935238Y104714228D02*
X31173333Y104714228D01*
X31173333Y104714228D02*
X31268571Y104666609D01*
X31268571Y104666609D02*
X31316190Y104618990D01*
X31316190Y104618990D02*
X31363809Y104523752D01*
X31363809Y104523752D02*
X31363809Y104285657D01*
X31363809Y104285657D02*
X31316190Y104190419D01*
X31316190Y104190419D02*
X31268571Y104142800D01*
X31268571Y104142800D02*
X31173333Y104095180D01*
X31173333Y104095180D02*
X30935238Y104095180D01*
X30935238Y104095180D02*
X30840000Y104142800D01*
X30840000Y104142800D02*
X30792381Y104190419D01*
X32363809Y104190419D02*
X32316190Y104142800D01*
X32316190Y104142800D02*
X32173333Y104095180D01*
X32173333Y104095180D02*
X32078095Y104095180D01*
X32078095Y104095180D02*
X31935238Y104142800D01*
X31935238Y104142800D02*
X31840000Y104238038D01*
X31840000Y104238038D02*
X31792381Y104333276D01*
X31792381Y104333276D02*
X31744762Y104523752D01*
X31744762Y104523752D02*
X31744762Y104666609D01*
X31744762Y104666609D02*
X31792381Y104857085D01*
X31792381Y104857085D02*
X31840000Y104952323D01*
X31840000Y104952323D02*
X31935238Y105047561D01*
X31935238Y105047561D02*
X32078095Y105095180D01*
X32078095Y105095180D02*
X32173333Y105095180D01*
X32173333Y105095180D02*
X32316190Y105047561D01*
X32316190Y105047561D02*
X32363809Y104999942D01*
X32935238Y104666609D02*
X32840000Y104714228D01*
X32840000Y104714228D02*
X32792381Y104761847D01*
X32792381Y104761847D02*
X32744762Y104857085D01*
X32744762Y104857085D02*
X32744762Y104904704D01*
X32744762Y104904704D02*
X32792381Y104999942D01*
X32792381Y104999942D02*
X32840000Y105047561D01*
X32840000Y105047561D02*
X32935238Y105095180D01*
X32935238Y105095180D02*
X33125714Y105095180D01*
X33125714Y105095180D02*
X33220952Y105047561D01*
X33220952Y105047561D02*
X33268571Y104999942D01*
X33268571Y104999942D02*
X33316190Y104904704D01*
X33316190Y104904704D02*
X33316190Y104857085D01*
X33316190Y104857085D02*
X33268571Y104761847D01*
X33268571Y104761847D02*
X33220952Y104714228D01*
X33220952Y104714228D02*
X33125714Y104666609D01*
X33125714Y104666609D02*
X32935238Y104666609D01*
X32935238Y104666609D02*
X32840000Y104618990D01*
X32840000Y104618990D02*
X32792381Y104571371D01*
X32792381Y104571371D02*
X32744762Y104476133D01*
X32744762Y104476133D02*
X32744762Y104285657D01*
X32744762Y104285657D02*
X32792381Y104190419D01*
X32792381Y104190419D02*
X32840000Y104142800D01*
X32840000Y104142800D02*
X32935238Y104095180D01*
X32935238Y104095180D02*
X33125714Y104095180D01*
X33125714Y104095180D02*
X33220952Y104142800D01*
X33220952Y104142800D02*
X33268571Y104190419D01*
X33268571Y104190419D02*
X33316190Y104285657D01*
X33316190Y104285657D02*
X33316190Y104476133D01*
X33316190Y104476133D02*
X33268571Y104571371D01*
X33268571Y104571371D02*
X33220952Y104618990D01*
X33220952Y104618990D02*
X33125714Y104666609D01*
X34268571Y104095180D02*
X33697143Y104095180D01*
X33982857Y104095180D02*
X33982857Y105095180D01*
X33982857Y105095180D02*
X33887619Y104952323D01*
X33887619Y104952323D02*
X33792381Y104857085D01*
X33792381Y104857085D02*
X33697143Y104809466D01*
X35125714Y105095180D02*
X34935238Y105095180D01*
X34935238Y105095180D02*
X34840000Y105047561D01*
X34840000Y105047561D02*
X34792381Y104999942D01*
X34792381Y104999942D02*
X34697143Y104857085D01*
X34697143Y104857085D02*
X34649524Y104666609D01*
X34649524Y104666609D02*
X34649524Y104285657D01*
X34649524Y104285657D02*
X34697143Y104190419D01*
X34697143Y104190419D02*
X34744762Y104142800D01*
X34744762Y104142800D02*
X34840000Y104095180D01*
X34840000Y104095180D02*
X35030476Y104095180D01*
X35030476Y104095180D02*
X35125714Y104142800D01*
X35125714Y104142800D02*
X35173333Y104190419D01*
X35173333Y104190419D02*
X35220952Y104285657D01*
X35220952Y104285657D02*
X35220952Y104523752D01*
X35220952Y104523752D02*
X35173333Y104618990D01*
X35173333Y104618990D02*
X35125714Y104666609D01*
X35125714Y104666609D02*
X35030476Y104714228D01*
X35030476Y104714228D02*
X34840000Y104714228D01*
X34840000Y104714228D02*
X34744762Y104666609D01*
X34744762Y104666609D02*
X34697143Y104618990D01*
X34697143Y104618990D02*
X34649524Y104523752D01*
X35601905Y104142800D02*
X35744762Y104095180D01*
X35744762Y104095180D02*
X35982857Y104095180D01*
X35982857Y104095180D02*
X36078095Y104142800D01*
X36078095Y104142800D02*
X36125714Y104190419D01*
X36125714Y104190419D02*
X36173333Y104285657D01*
X36173333Y104285657D02*
X36173333Y104380895D01*
X36173333Y104380895D02*
X36125714Y104476133D01*
X36125714Y104476133D02*
X36078095Y104523752D01*
X36078095Y104523752D02*
X35982857Y104571371D01*
X35982857Y104571371D02*
X35792381Y104618990D01*
X35792381Y104618990D02*
X35697143Y104666609D01*
X35697143Y104666609D02*
X35649524Y104714228D01*
X35649524Y104714228D02*
X35601905Y104809466D01*
X35601905Y104809466D02*
X35601905Y104904704D01*
X35601905Y104904704D02*
X35649524Y104999942D01*
X35649524Y104999942D02*
X35697143Y105047561D01*
X35697143Y105047561D02*
X35792381Y105095180D01*
X35792381Y105095180D02*
X36030476Y105095180D01*
X36030476Y105095180D02*
X36173333Y105047561D01*
X36506667Y104095180D02*
X37030476Y104761847D01*
X36506667Y104761847D02*
X37030476Y104095180D01*
X37411429Y104095180D02*
X37411429Y105095180D01*
X37411429Y105095180D02*
X37792381Y105095180D01*
X37792381Y105095180D02*
X37887619Y105047561D01*
X37887619Y105047561D02*
X37935238Y104999942D01*
X37935238Y104999942D02*
X37982857Y104904704D01*
X37982857Y104904704D02*
X37982857Y104761847D01*
X37982857Y104761847D02*
X37935238Y104666609D01*
X37935238Y104666609D02*
X37887619Y104618990D01*
X37887619Y104618990D02*
X37792381Y104571371D01*
X37792381Y104571371D02*
X37411429Y104571371D01*
X21234819Y30338095D02*
X22044342Y30338095D01*
X22044342Y30338095D02*
X22139580Y30385714D01*
X22139580Y30385714D02*
X22187200Y30433333D01*
X22187200Y30433333D02*
X22234819Y30528571D01*
X22234819Y30528571D02*
X22234819Y30719047D01*
X22234819Y30719047D02*
X22187200Y30814285D01*
X22187200Y30814285D02*
X22139580Y30861904D01*
X22139580Y30861904D02*
X22044342Y30909523D01*
X22044342Y30909523D02*
X21234819Y30909523D01*
X21234819Y31290476D02*
X21234819Y31909523D01*
X21234819Y31909523D02*
X21615771Y31576190D01*
X21615771Y31576190D02*
X21615771Y31719047D01*
X21615771Y31719047D02*
X21663390Y31814285D01*
X21663390Y31814285D02*
X21711009Y31861904D01*
X21711009Y31861904D02*
X21806247Y31909523D01*
X21806247Y31909523D02*
X22044342Y31909523D01*
X22044342Y31909523D02*
X22139580Y31861904D01*
X22139580Y31861904D02*
X22187200Y31814285D01*
X22187200Y31814285D02*
X22234819Y31719047D01*
X22234819Y31719047D02*
X22234819Y31433333D01*
X22234819Y31433333D02*
X22187200Y31338095D01*
X22187200Y31338095D02*
X22139580Y31290476D01*
X73730057Y28409524D02*
X73682438Y28457143D01*
X73682438Y28457143D02*
X73634819Y28552381D01*
X73634819Y28552381D02*
X73634819Y28790476D01*
X73634819Y28790476D02*
X73682438Y28885714D01*
X73682438Y28885714D02*
X73730057Y28933333D01*
X73730057Y28933333D02*
X73825295Y28980952D01*
X73825295Y28980952D02*
X73920533Y28980952D01*
X73920533Y28980952D02*
X74063390Y28933333D01*
X74063390Y28933333D02*
X74634819Y28361905D01*
X74634819Y28361905D02*
X74634819Y28980952D01*
X73634819Y29314286D02*
X73634819Y29980952D01*
X73634819Y29980952D02*
X74634819Y29552381D01*
X74539580Y30933333D02*
X74587200Y30885714D01*
X74587200Y30885714D02*
X74634819Y30742857D01*
X74634819Y30742857D02*
X74634819Y30647619D01*
X74634819Y30647619D02*
X74587200Y30504762D01*
X74587200Y30504762D02*
X74491961Y30409524D01*
X74491961Y30409524D02*
X74396723Y30361905D01*
X74396723Y30361905D02*
X74206247Y30314286D01*
X74206247Y30314286D02*
X74063390Y30314286D01*
X74063390Y30314286D02*
X73872914Y30361905D01*
X73872914Y30361905D02*
X73777676Y30409524D01*
X73777676Y30409524D02*
X73682438Y30504762D01*
X73682438Y30504762D02*
X73634819Y30647619D01*
X73634819Y30647619D02*
X73634819Y30742857D01*
X73634819Y30742857D02*
X73682438Y30885714D01*
X73682438Y30885714D02*
X73730057Y30933333D01*
X73634819Y31838095D02*
X73634819Y31361905D01*
X73634819Y31361905D02*
X74111009Y31314286D01*
X74111009Y31314286D02*
X74063390Y31361905D01*
X74063390Y31361905D02*
X74015771Y31457143D01*
X74015771Y31457143D02*
X74015771Y31695238D01*
X74015771Y31695238D02*
X74063390Y31790476D01*
X74063390Y31790476D02*
X74111009Y31838095D01*
X74111009Y31838095D02*
X74206247Y31885714D01*
X74206247Y31885714D02*
X74444342Y31885714D01*
X74444342Y31885714D02*
X74539580Y31838095D01*
X74539580Y31838095D02*
X74587200Y31790476D01*
X74587200Y31790476D02*
X74634819Y31695238D01*
X74634819Y31695238D02*
X74634819Y31457143D01*
X74634819Y31457143D02*
X74587200Y31361905D01*
X74587200Y31361905D02*
X74539580Y31314286D01*
X74634819Y32838095D02*
X74634819Y32266667D01*
X74634819Y32552381D02*
X73634819Y32552381D01*
X73634819Y32552381D02*
X73777676Y32457143D01*
X73777676Y32457143D02*
X73872914Y32361905D01*
X73872914Y32361905D02*
X73920533Y32266667D01*
X73730057Y33219048D02*
X73682438Y33266667D01*
X73682438Y33266667D02*
X73634819Y33361905D01*
X73634819Y33361905D02*
X73634819Y33600000D01*
X73634819Y33600000D02*
X73682438Y33695238D01*
X73682438Y33695238D02*
X73730057Y33742857D01*
X73730057Y33742857D02*
X73825295Y33790476D01*
X73825295Y33790476D02*
X73920533Y33790476D01*
X73920533Y33790476D02*
X74063390Y33742857D01*
X74063390Y33742857D02*
X74634819Y33171429D01*
X74634819Y33171429D02*
X74634819Y33790476D01*
X86344819Y43038095D02*
X87154342Y43038095D01*
X87154342Y43038095D02*
X87249580Y43085714D01*
X87249580Y43085714D02*
X87297200Y43133333D01*
X87297200Y43133333D02*
X87344819Y43228571D01*
X87344819Y43228571D02*
X87344819Y43419047D01*
X87344819Y43419047D02*
X87297200Y43514285D01*
X87297200Y43514285D02*
X87249580Y43561904D01*
X87249580Y43561904D02*
X87154342Y43609523D01*
X87154342Y43609523D02*
X86344819Y43609523D01*
X86344819Y44561904D02*
X86344819Y44085714D01*
X86344819Y44085714D02*
X86821009Y44038095D01*
X86821009Y44038095D02*
X86773390Y44085714D01*
X86773390Y44085714D02*
X86725771Y44180952D01*
X86725771Y44180952D02*
X86725771Y44419047D01*
X86725771Y44419047D02*
X86773390Y44514285D01*
X86773390Y44514285D02*
X86821009Y44561904D01*
X86821009Y44561904D02*
X86916247Y44609523D01*
X86916247Y44609523D02*
X87154342Y44609523D01*
X87154342Y44609523D02*
X87249580Y44561904D01*
X87249580Y44561904D02*
X87297200Y44514285D01*
X87297200Y44514285D02*
X87344819Y44419047D01*
X87344819Y44419047D02*
X87344819Y44180952D01*
X87344819Y44180952D02*
X87297200Y44085714D01*
X87297200Y44085714D02*
X87249580Y44038095D01*
X114579104Y40895238D02*
X114579104Y41371428D01*
X114864819Y40800000D02*
X113864819Y41133333D01*
X113864819Y41133333D02*
X114864819Y41466666D01*
X113864819Y41657143D02*
X113864819Y42228571D01*
X114864819Y41942857D02*
X113864819Y41942857D01*
X114341009Y42895238D02*
X114341009Y42561905D01*
X114864819Y42561905D02*
X113864819Y42561905D01*
X113864819Y42561905D02*
X113864819Y43038095D01*
X114864819Y43942857D02*
X114864819Y43371429D01*
X114864819Y43657143D02*
X113864819Y43657143D01*
X113864819Y43657143D02*
X114007676Y43561905D01*
X114007676Y43561905D02*
X114102914Y43466667D01*
X114102914Y43466667D02*
X114150533Y43371429D01*
X113864819Y44800000D02*
X113864819Y44609524D01*
X113864819Y44609524D02*
X113912438Y44514286D01*
X113912438Y44514286D02*
X113960057Y44466667D01*
X113960057Y44466667D02*
X114102914Y44371429D01*
X114102914Y44371429D02*
X114293390Y44323810D01*
X114293390Y44323810D02*
X114674342Y44323810D01*
X114674342Y44323810D02*
X114769580Y44371429D01*
X114769580Y44371429D02*
X114817200Y44419048D01*
X114817200Y44419048D02*
X114864819Y44514286D01*
X114864819Y44514286D02*
X114864819Y44704762D01*
X114864819Y44704762D02*
X114817200Y44800000D01*
X114817200Y44800000D02*
X114769580Y44847619D01*
X114769580Y44847619D02*
X114674342Y44895238D01*
X114674342Y44895238D02*
X114436247Y44895238D01*
X114436247Y44895238D02*
X114341009Y44847619D01*
X114341009Y44847619D02*
X114293390Y44800000D01*
X114293390Y44800000D02*
X114245771Y44704762D01*
X114245771Y44704762D02*
X114245771Y44514286D01*
X114245771Y44514286D02*
X114293390Y44419048D01*
X114293390Y44419048D02*
X114341009Y44371429D01*
X114341009Y44371429D02*
X114436247Y44323810D01*
X113864819Y45180953D02*
X114864819Y45514286D01*
X114864819Y45514286D02*
X113864819Y45847619D01*
X114293390Y46323810D02*
X114245771Y46228572D01*
X114245771Y46228572D02*
X114198152Y46180953D01*
X114198152Y46180953D02*
X114102914Y46133334D01*
X114102914Y46133334D02*
X114055295Y46133334D01*
X114055295Y46133334D02*
X113960057Y46180953D01*
X113960057Y46180953D02*
X113912438Y46228572D01*
X113912438Y46228572D02*
X113864819Y46323810D01*
X113864819Y46323810D02*
X113864819Y46514286D01*
X113864819Y46514286D02*
X113912438Y46609524D01*
X113912438Y46609524D02*
X113960057Y46657143D01*
X113960057Y46657143D02*
X114055295Y46704762D01*
X114055295Y46704762D02*
X114102914Y46704762D01*
X114102914Y46704762D02*
X114198152Y46657143D01*
X114198152Y46657143D02*
X114245771Y46609524D01*
X114245771Y46609524D02*
X114293390Y46514286D01*
X114293390Y46514286D02*
X114293390Y46323810D01*
X114293390Y46323810D02*
X114341009Y46228572D01*
X114341009Y46228572D02*
X114388628Y46180953D01*
X114388628Y46180953D02*
X114483866Y46133334D01*
X114483866Y46133334D02*
X114674342Y46133334D01*
X114674342Y46133334D02*
X114769580Y46180953D01*
X114769580Y46180953D02*
X114817200Y46228572D01*
X114817200Y46228572D02*
X114864819Y46323810D01*
X114864819Y46323810D02*
X114864819Y46514286D01*
X114864819Y46514286D02*
X114817200Y46609524D01*
X114817200Y46609524D02*
X114769580Y46657143D01*
X114769580Y46657143D02*
X114674342Y46704762D01*
X114674342Y46704762D02*
X114483866Y46704762D01*
X114483866Y46704762D02*
X114388628Y46657143D01*
X114388628Y46657143D02*
X114341009Y46609524D01*
X114341009Y46609524D02*
X114293390Y46514286D01*
X95398333Y43430419D02*
X95350714Y43382800D01*
X95350714Y43382800D02*
X95207857Y43335180D01*
X95207857Y43335180D02*
X95112619Y43335180D01*
X95112619Y43335180D02*
X94969762Y43382800D01*
X94969762Y43382800D02*
X94874524Y43478038D01*
X94874524Y43478038D02*
X94826905Y43573276D01*
X94826905Y43573276D02*
X94779286Y43763752D01*
X94779286Y43763752D02*
X94779286Y43906609D01*
X94779286Y43906609D02*
X94826905Y44097085D01*
X94826905Y44097085D02*
X94874524Y44192323D01*
X94874524Y44192323D02*
X94969762Y44287561D01*
X94969762Y44287561D02*
X95112619Y44335180D01*
X95112619Y44335180D02*
X95207857Y44335180D01*
X95207857Y44335180D02*
X95350714Y44287561D01*
X95350714Y44287561D02*
X95398333Y44239942D01*
X96255476Y44335180D02*
X96065000Y44335180D01*
X96065000Y44335180D02*
X95969762Y44287561D01*
X95969762Y44287561D02*
X95922143Y44239942D01*
X95922143Y44239942D02*
X95826905Y44097085D01*
X95826905Y44097085D02*
X95779286Y43906609D01*
X95779286Y43906609D02*
X95779286Y43525657D01*
X95779286Y43525657D02*
X95826905Y43430419D01*
X95826905Y43430419D02*
X95874524Y43382800D01*
X95874524Y43382800D02*
X95969762Y43335180D01*
X95969762Y43335180D02*
X96160238Y43335180D01*
X96160238Y43335180D02*
X96255476Y43382800D01*
X96255476Y43382800D02*
X96303095Y43430419D01*
X96303095Y43430419D02*
X96350714Y43525657D01*
X96350714Y43525657D02*
X96350714Y43763752D01*
X96350714Y43763752D02*
X96303095Y43858990D01*
X96303095Y43858990D02*
X96255476Y43906609D01*
X96255476Y43906609D02*
X96160238Y43954228D01*
X96160238Y43954228D02*
X95969762Y43954228D01*
X95969762Y43954228D02*
X95874524Y43906609D01*
X95874524Y43906609D02*
X95826905Y43858990D01*
X95826905Y43858990D02*
X95779286Y43763752D01*
X52759580Y55058333D02*
X52807200Y55010714D01*
X52807200Y55010714D02*
X52854819Y54867857D01*
X52854819Y54867857D02*
X52854819Y54772619D01*
X52854819Y54772619D02*
X52807200Y54629762D01*
X52807200Y54629762D02*
X52711961Y54534524D01*
X52711961Y54534524D02*
X52616723Y54486905D01*
X52616723Y54486905D02*
X52426247Y54439286D01*
X52426247Y54439286D02*
X52283390Y54439286D01*
X52283390Y54439286D02*
X52092914Y54486905D01*
X52092914Y54486905D02*
X51997676Y54534524D01*
X51997676Y54534524D02*
X51902438Y54629762D01*
X51902438Y54629762D02*
X51854819Y54772619D01*
X51854819Y54772619D02*
X51854819Y54867857D01*
X51854819Y54867857D02*
X51902438Y55010714D01*
X51902438Y55010714D02*
X51950057Y55058333D01*
X51854819Y55391667D02*
X51854819Y56058333D01*
X51854819Y56058333D02*
X52854819Y55629762D01*
X85870476Y18945180D02*
X86537142Y17945180D01*
X86537142Y18945180D02*
X85870476Y17945180D01*
X87441904Y17945180D02*
X86870476Y17945180D01*
X87156190Y17945180D02*
X87156190Y18945180D01*
X87156190Y18945180D02*
X87060952Y18802323D01*
X87060952Y18802323D02*
X86965714Y18707085D01*
X86965714Y18707085D02*
X86870476Y18659466D01*
X83418095Y10490419D02*
X83370476Y10442800D01*
X83370476Y10442800D02*
X83227619Y10395180D01*
X83227619Y10395180D02*
X83132381Y10395180D01*
X83132381Y10395180D02*
X82989524Y10442800D01*
X82989524Y10442800D02*
X82894286Y10538038D01*
X82894286Y10538038D02*
X82846667Y10633276D01*
X82846667Y10633276D02*
X82799048Y10823752D01*
X82799048Y10823752D02*
X82799048Y10966609D01*
X82799048Y10966609D02*
X82846667Y11157085D01*
X82846667Y11157085D02*
X82894286Y11252323D01*
X82894286Y11252323D02*
X82989524Y11347561D01*
X82989524Y11347561D02*
X83132381Y11395180D01*
X83132381Y11395180D02*
X83227619Y11395180D01*
X83227619Y11395180D02*
X83370476Y11347561D01*
X83370476Y11347561D02*
X83418095Y11299942D01*
X83751429Y11395180D02*
X84418095Y10395180D01*
X84418095Y11395180D02*
X83751429Y10395180D01*
X84989524Y11395180D02*
X85180000Y11395180D01*
X85180000Y11395180D02*
X85275238Y11347561D01*
X85275238Y11347561D02*
X85370476Y11252323D01*
X85370476Y11252323D02*
X85418095Y11061847D01*
X85418095Y11061847D02*
X85418095Y10728514D01*
X85418095Y10728514D02*
X85370476Y10538038D01*
X85370476Y10538038D02*
X85275238Y10442800D01*
X85275238Y10442800D02*
X85180000Y10395180D01*
X85180000Y10395180D02*
X84989524Y10395180D01*
X84989524Y10395180D02*
X84894286Y10442800D01*
X84894286Y10442800D02*
X84799048Y10538038D01*
X84799048Y10538038D02*
X84751429Y10728514D01*
X84751429Y10728514D02*
X84751429Y11061847D01*
X84751429Y11061847D02*
X84799048Y11252323D01*
X84799048Y11252323D02*
X84894286Y11347561D01*
X84894286Y11347561D02*
X84989524Y11395180D01*
X85608572Y10299942D02*
X86370476Y10299942D01*
X86608572Y10395180D02*
X86608572Y11395180D01*
X86608572Y11395180D02*
X86846667Y11395180D01*
X86846667Y11395180D02*
X86989524Y11347561D01*
X86989524Y11347561D02*
X87084762Y11252323D01*
X87084762Y11252323D02*
X87132381Y11157085D01*
X87132381Y11157085D02*
X87180000Y10966609D01*
X87180000Y10966609D02*
X87180000Y10823752D01*
X87180000Y10823752D02*
X87132381Y10633276D01*
X87132381Y10633276D02*
X87084762Y10538038D01*
X87084762Y10538038D02*
X86989524Y10442800D01*
X86989524Y10442800D02*
X86846667Y10395180D01*
X86846667Y10395180D02*
X86608572Y10395180D01*
X87608572Y10395180D02*
X87608572Y11395180D01*
X88084762Y10395180D02*
X88084762Y11395180D01*
X88084762Y11395180D02*
X88465714Y11395180D01*
X88465714Y11395180D02*
X88560952Y11347561D01*
X88560952Y11347561D02*
X88608571Y11299942D01*
X88608571Y11299942D02*
X88656190Y11204704D01*
X88656190Y11204704D02*
X88656190Y11061847D01*
X88656190Y11061847D02*
X88608571Y10966609D01*
X88608571Y10966609D02*
X88560952Y10918990D01*
X88560952Y10918990D02*
X88465714Y10871371D01*
X88465714Y10871371D02*
X88084762Y10871371D01*
X89608571Y10395180D02*
X89037143Y10395180D01*
X89322857Y10395180D02*
X89322857Y11395180D01*
X89322857Y11395180D02*
X89227619Y11252323D01*
X89227619Y11252323D02*
X89132381Y11157085D01*
X89132381Y11157085D02*
X89037143Y11109466D01*
X90465714Y11061847D02*
X90465714Y10395180D01*
X90227619Y11442800D02*
X89989524Y10728514D01*
X89989524Y10728514D02*
X90608571Y10728514D01*
X104293333Y37090419D02*
X104245714Y37042800D01*
X104245714Y37042800D02*
X104102857Y36995180D01*
X104102857Y36995180D02*
X104007619Y36995180D01*
X104007619Y36995180D02*
X103864762Y37042800D01*
X103864762Y37042800D02*
X103769524Y37138038D01*
X103769524Y37138038D02*
X103721905Y37233276D01*
X103721905Y37233276D02*
X103674286Y37423752D01*
X103674286Y37423752D02*
X103674286Y37566609D01*
X103674286Y37566609D02*
X103721905Y37757085D01*
X103721905Y37757085D02*
X103769524Y37852323D01*
X103769524Y37852323D02*
X103864762Y37947561D01*
X103864762Y37947561D02*
X104007619Y37995180D01*
X104007619Y37995180D02*
X104102857Y37995180D01*
X104102857Y37995180D02*
X104245714Y37947561D01*
X104245714Y37947561D02*
X104293333Y37899942D01*
X104864762Y37566609D02*
X104769524Y37614228D01*
X104769524Y37614228D02*
X104721905Y37661847D01*
X104721905Y37661847D02*
X104674286Y37757085D01*
X104674286Y37757085D02*
X104674286Y37804704D01*
X104674286Y37804704D02*
X104721905Y37899942D01*
X104721905Y37899942D02*
X104769524Y37947561D01*
X104769524Y37947561D02*
X104864762Y37995180D01*
X104864762Y37995180D02*
X105055238Y37995180D01*
X105055238Y37995180D02*
X105150476Y37947561D01*
X105150476Y37947561D02*
X105198095Y37899942D01*
X105198095Y37899942D02*
X105245714Y37804704D01*
X105245714Y37804704D02*
X105245714Y37757085D01*
X105245714Y37757085D02*
X105198095Y37661847D01*
X105198095Y37661847D02*
X105150476Y37614228D01*
X105150476Y37614228D02*
X105055238Y37566609D01*
X105055238Y37566609D02*
X104864762Y37566609D01*
X104864762Y37566609D02*
X104769524Y37518990D01*
X104769524Y37518990D02*
X104721905Y37471371D01*
X104721905Y37471371D02*
X104674286Y37376133D01*
X104674286Y37376133D02*
X104674286Y37185657D01*
X104674286Y37185657D02*
X104721905Y37090419D01*
X104721905Y37090419D02*
X104769524Y37042800D01*
X104769524Y37042800D02*
X104864762Y36995180D01*
X104864762Y36995180D02*
X105055238Y36995180D01*
X105055238Y36995180D02*
X105150476Y37042800D01*
X105150476Y37042800D02*
X105198095Y37090419D01*
X105198095Y37090419D02*
X105245714Y37185657D01*
X105245714Y37185657D02*
X105245714Y37376133D01*
X105245714Y37376133D02*
X105198095Y37471371D01*
X105198095Y37471371D02*
X105150476Y37518990D01*
X105150476Y37518990D02*
X105055238Y37566609D01*
X99598571Y30055180D02*
X99027143Y30055180D01*
X99312857Y30055180D02*
X99312857Y31055180D01*
X99312857Y31055180D02*
X99217619Y30912323D01*
X99217619Y30912323D02*
X99122381Y30817085D01*
X99122381Y30817085D02*
X99027143Y30769466D01*
X100217619Y31055180D02*
X100312857Y31055180D01*
X100312857Y31055180D02*
X100408095Y31007561D01*
X100408095Y31007561D02*
X100455714Y30959942D01*
X100455714Y30959942D02*
X100503333Y30864704D01*
X100503333Y30864704D02*
X100550952Y30674228D01*
X100550952Y30674228D02*
X100550952Y30436133D01*
X100550952Y30436133D02*
X100503333Y30245657D01*
X100503333Y30245657D02*
X100455714Y30150419D01*
X100455714Y30150419D02*
X100408095Y30102800D01*
X100408095Y30102800D02*
X100312857Y30055180D01*
X100312857Y30055180D02*
X100217619Y30055180D01*
X100217619Y30055180D02*
X100122381Y30102800D01*
X100122381Y30102800D02*
X100074762Y30150419D01*
X100074762Y30150419D02*
X100027143Y30245657D01*
X100027143Y30245657D02*
X99979524Y30436133D01*
X99979524Y30436133D02*
X99979524Y30674228D01*
X99979524Y30674228D02*
X100027143Y30864704D01*
X100027143Y30864704D02*
X100074762Y30959942D01*
X100074762Y30959942D02*
X100122381Y31007561D01*
X100122381Y31007561D02*
X100217619Y31055180D01*
X101408095Y30721847D02*
X101408095Y30055180D01*
X100979524Y30721847D02*
X100979524Y30198038D01*
X100979524Y30198038D02*
X101027143Y30102800D01*
X101027143Y30102800D02*
X101122381Y30055180D01*
X101122381Y30055180D02*
X101265238Y30055180D01*
X101265238Y30055180D02*
X101360476Y30102800D01*
X101360476Y30102800D02*
X101408095Y30150419D01*
X102217619Y30578990D02*
X101884286Y30578990D01*
X101884286Y30055180D02*
X101884286Y31055180D01*
X101884286Y31055180D02*
X102360476Y31055180D01*
X98154819Y23146666D02*
X98869104Y23146666D01*
X98869104Y23146666D02*
X99011961Y23099047D01*
X99011961Y23099047D02*
X99107200Y23003809D01*
X99107200Y23003809D02*
X99154819Y22860952D01*
X99154819Y22860952D02*
X99154819Y22765714D01*
X99154819Y24146666D02*
X99154819Y23575238D01*
X99154819Y23860952D02*
X98154819Y23860952D01*
X98154819Y23860952D02*
X98297676Y23765714D01*
X98297676Y23765714D02*
X98392914Y23670476D01*
X98392914Y23670476D02*
X98440533Y23575238D01*
X111746666Y64875180D02*
X111746666Y64160895D01*
X111746666Y64160895D02*
X111699047Y64018038D01*
X111699047Y64018038D02*
X111603809Y63922800D01*
X111603809Y63922800D02*
X111460952Y63875180D01*
X111460952Y63875180D02*
X111365714Y63875180D01*
X112127619Y64875180D02*
X112746666Y64875180D01*
X112746666Y64875180D02*
X112413333Y64494228D01*
X112413333Y64494228D02*
X112556190Y64494228D01*
X112556190Y64494228D02*
X112651428Y64446609D01*
X112651428Y64446609D02*
X112699047Y64398990D01*
X112699047Y64398990D02*
X112746666Y64303752D01*
X112746666Y64303752D02*
X112746666Y64065657D01*
X112746666Y64065657D02*
X112699047Y63970419D01*
X112699047Y63970419D02*
X112651428Y63922800D01*
X112651428Y63922800D02*
X112556190Y63875180D01*
X112556190Y63875180D02*
X112270476Y63875180D01*
X112270476Y63875180D02*
X112175238Y63922800D01*
X112175238Y63922800D02*
X112127619Y63970419D01*
X110603810Y97475180D02*
X110937143Y96475180D01*
X110937143Y96475180D02*
X111270476Y97475180D01*
X111603810Y96475180D02*
X111603810Y97475180D01*
X112032381Y96760895D02*
X112508571Y96760895D01*
X111937143Y96475180D02*
X112270476Y97475180D01*
X112270476Y97475180D02*
X112603809Y96475180D01*
X113460952Y96475180D02*
X112889524Y96475180D01*
X113175238Y96475180D02*
X113175238Y97475180D01*
X113175238Y97475180D02*
X113080000Y97332323D01*
X113080000Y97332323D02*
X112984762Y97237085D01*
X112984762Y97237085D02*
X112889524Y97189466D01*
X93538095Y52175180D02*
X93538095Y51365657D01*
X93538095Y51365657D02*
X93585714Y51270419D01*
X93585714Y51270419D02*
X93633333Y51222800D01*
X93633333Y51222800D02*
X93728571Y51175180D01*
X93728571Y51175180D02*
X93919047Y51175180D01*
X93919047Y51175180D02*
X94014285Y51222800D01*
X94014285Y51222800D02*
X94061904Y51270419D01*
X94061904Y51270419D02*
X94109523Y51365657D01*
X94109523Y51365657D02*
X94109523Y52175180D01*
X95014285Y51841847D02*
X95014285Y51175180D01*
X94776190Y52222800D02*
X94538095Y51508514D01*
X94538095Y51508514D02*
X95157142Y51508514D01*
X90038095Y105095180D02*
X90276190Y104095180D01*
X90276190Y104095180D02*
X90466666Y104809466D01*
X90466666Y104809466D02*
X90657142Y104095180D01*
X90657142Y104095180D02*
X90895238Y105095180D01*
X91704761Y105095180D02*
X91514285Y105095180D01*
X91514285Y105095180D02*
X91419047Y105047561D01*
X91419047Y105047561D02*
X91371428Y104999942D01*
X91371428Y104999942D02*
X91276190Y104857085D01*
X91276190Y104857085D02*
X91228571Y104666609D01*
X91228571Y104666609D02*
X91228571Y104285657D01*
X91228571Y104285657D02*
X91276190Y104190419D01*
X91276190Y104190419D02*
X91323809Y104142800D01*
X91323809Y104142800D02*
X91419047Y104095180D01*
X91419047Y104095180D02*
X91609523Y104095180D01*
X91609523Y104095180D02*
X91704761Y104142800D01*
X91704761Y104142800D02*
X91752380Y104190419D01*
X91752380Y104190419D02*
X91799999Y104285657D01*
X91799999Y104285657D02*
X91799999Y104523752D01*
X91799999Y104523752D02*
X91752380Y104618990D01*
X91752380Y104618990D02*
X91704761Y104666609D01*
X91704761Y104666609D02*
X91609523Y104714228D01*
X91609523Y104714228D02*
X91419047Y104714228D01*
X91419047Y104714228D02*
X91323809Y104666609D01*
X91323809Y104666609D02*
X91276190Y104618990D01*
X91276190Y104618990D02*
X91228571Y104523752D01*
X92704761Y105095180D02*
X92228571Y105095180D01*
X92228571Y105095180D02*
X92180952Y104618990D01*
X92180952Y104618990D02*
X92228571Y104666609D01*
X92228571Y104666609D02*
X92323809Y104714228D01*
X92323809Y104714228D02*
X92561904Y104714228D01*
X92561904Y104714228D02*
X92657142Y104666609D01*
X92657142Y104666609D02*
X92704761Y104618990D01*
X92704761Y104618990D02*
X92752380Y104523752D01*
X92752380Y104523752D02*
X92752380Y104285657D01*
X92752380Y104285657D02*
X92704761Y104190419D01*
X92704761Y104190419D02*
X92657142Y104142800D01*
X92657142Y104142800D02*
X92561904Y104095180D01*
X92561904Y104095180D02*
X92323809Y104095180D01*
X92323809Y104095180D02*
X92228571Y104142800D01*
X92228571Y104142800D02*
X92180952Y104190419D01*
X93752380Y104190419D02*
X93704761Y104142800D01*
X93704761Y104142800D02*
X93561904Y104095180D01*
X93561904Y104095180D02*
X93466666Y104095180D01*
X93466666Y104095180D02*
X93323809Y104142800D01*
X93323809Y104142800D02*
X93228571Y104238038D01*
X93228571Y104238038D02*
X93180952Y104333276D01*
X93180952Y104333276D02*
X93133333Y104523752D01*
X93133333Y104523752D02*
X93133333Y104666609D01*
X93133333Y104666609D02*
X93180952Y104857085D01*
X93180952Y104857085D02*
X93228571Y104952323D01*
X93228571Y104952323D02*
X93323809Y105047561D01*
X93323809Y105047561D02*
X93466666Y105095180D01*
X93466666Y105095180D02*
X93561904Y105095180D01*
X93561904Y105095180D02*
X93704761Y105047561D01*
X93704761Y105047561D02*
X93752380Y104999942D01*
X94133333Y104999942D02*
X94180952Y105047561D01*
X94180952Y105047561D02*
X94276190Y105095180D01*
X94276190Y105095180D02*
X94514285Y105095180D01*
X94514285Y105095180D02*
X94609523Y105047561D01*
X94609523Y105047561D02*
X94657142Y104999942D01*
X94657142Y104999942D02*
X94704761Y104904704D01*
X94704761Y104904704D02*
X94704761Y104809466D01*
X94704761Y104809466D02*
X94657142Y104666609D01*
X94657142Y104666609D02*
X94085714Y104095180D01*
X94085714Y104095180D02*
X94704761Y104095180D01*
X95085714Y104999942D02*
X95133333Y105047561D01*
X95133333Y105047561D02*
X95228571Y105095180D01*
X95228571Y105095180D02*
X95466666Y105095180D01*
X95466666Y105095180D02*
X95561904Y105047561D01*
X95561904Y105047561D02*
X95609523Y104999942D01*
X95609523Y104999942D02*
X95657142Y104904704D01*
X95657142Y104904704D02*
X95657142Y104809466D01*
X95657142Y104809466D02*
X95609523Y104666609D01*
X95609523Y104666609D02*
X95038095Y104095180D01*
X95038095Y104095180D02*
X95657142Y104095180D01*
X96085714Y104095180D02*
X96085714Y105095180D01*
X96085714Y105095180D02*
X96657142Y104095180D01*
X96657142Y104095180D02*
X96657142Y105095180D01*
X97038095Y104095180D02*
X97561904Y104761847D01*
X97038095Y104761847D02*
X97561904Y104095180D01*
X97942857Y104095180D02*
X97942857Y105095180D01*
X97942857Y105095180D02*
X98323809Y105095180D01*
X98323809Y105095180D02*
X98419047Y105047561D01*
X98419047Y105047561D02*
X98466666Y104999942D01*
X98466666Y104999942D02*
X98514285Y104904704D01*
X98514285Y104904704D02*
X98514285Y104761847D01*
X98514285Y104761847D02*
X98466666Y104666609D01*
X98466666Y104666609D02*
X98419047Y104618990D01*
X98419047Y104618990D02*
X98323809Y104571371D01*
X98323809Y104571371D02*
X97942857Y104571371D01*
X18608095Y43075180D02*
X18608095Y42265657D01*
X18608095Y42265657D02*
X18655714Y42170419D01*
X18655714Y42170419D02*
X18703333Y42122800D01*
X18703333Y42122800D02*
X18798571Y42075180D01*
X18798571Y42075180D02*
X18989047Y42075180D01*
X18989047Y42075180D02*
X19084285Y42122800D01*
X19084285Y42122800D02*
X19131904Y42170419D01*
X19131904Y42170419D02*
X19179523Y42265657D01*
X19179523Y42265657D02*
X19179523Y43075180D01*
X19703333Y42075180D02*
X19893809Y42075180D01*
X19893809Y42075180D02*
X19989047Y42122800D01*
X19989047Y42122800D02*
X20036666Y42170419D01*
X20036666Y42170419D02*
X20131904Y42313276D01*
X20131904Y42313276D02*
X20179523Y42503752D01*
X20179523Y42503752D02*
X20179523Y42884704D01*
X20179523Y42884704D02*
X20131904Y42979942D01*
X20131904Y42979942D02*
X20084285Y43027561D01*
X20084285Y43027561D02*
X19989047Y43075180D01*
X19989047Y43075180D02*
X19798571Y43075180D01*
X19798571Y43075180D02*
X19703333Y43027561D01*
X19703333Y43027561D02*
X19655714Y42979942D01*
X19655714Y42979942D02*
X19608095Y42884704D01*
X19608095Y42884704D02*
X19608095Y42646609D01*
X19608095Y42646609D02*
X19655714Y42551371D01*
X19655714Y42551371D02*
X19703333Y42503752D01*
X19703333Y42503752D02*
X19798571Y42456133D01*
X19798571Y42456133D02*
X19989047Y42456133D01*
X19989047Y42456133D02*
X20084285Y42503752D01*
X20084285Y42503752D02*
X20131904Y42551371D01*
X20131904Y42551371D02*
X20179523Y42646609D01*
X22632857Y45885180D02*
X22632857Y46885180D01*
X22632857Y46885180D02*
X22870952Y46885180D01*
X22870952Y46885180D02*
X23013809Y46837561D01*
X23013809Y46837561D02*
X23109047Y46742323D01*
X23109047Y46742323D02*
X23156666Y46647085D01*
X23156666Y46647085D02*
X23204285Y46456609D01*
X23204285Y46456609D02*
X23204285Y46313752D01*
X23204285Y46313752D02*
X23156666Y46123276D01*
X23156666Y46123276D02*
X23109047Y46028038D01*
X23109047Y46028038D02*
X23013809Y45932800D01*
X23013809Y45932800D02*
X22870952Y45885180D01*
X22870952Y45885180D02*
X22632857Y45885180D01*
X23585238Y45932800D02*
X23728095Y45885180D01*
X23728095Y45885180D02*
X23966190Y45885180D01*
X23966190Y45885180D02*
X24061428Y45932800D01*
X24061428Y45932800D02*
X24109047Y45980419D01*
X24109047Y45980419D02*
X24156666Y46075657D01*
X24156666Y46075657D02*
X24156666Y46170895D01*
X24156666Y46170895D02*
X24109047Y46266133D01*
X24109047Y46266133D02*
X24061428Y46313752D01*
X24061428Y46313752D02*
X23966190Y46361371D01*
X23966190Y46361371D02*
X23775714Y46408990D01*
X23775714Y46408990D02*
X23680476Y46456609D01*
X23680476Y46456609D02*
X23632857Y46504228D01*
X23632857Y46504228D02*
X23585238Y46599466D01*
X23585238Y46599466D02*
X23585238Y46694704D01*
X23585238Y46694704D02*
X23632857Y46789942D01*
X23632857Y46789942D02*
X23680476Y46837561D01*
X23680476Y46837561D02*
X23775714Y46885180D01*
X23775714Y46885180D02*
X24013809Y46885180D01*
X24013809Y46885180D02*
X24156666Y46837561D01*
X25109047Y45885180D02*
X24537619Y45885180D01*
X24823333Y45885180D02*
X24823333Y46885180D01*
X24823333Y46885180D02*
X24728095Y46742323D01*
X24728095Y46742323D02*
X24632857Y46647085D01*
X24632857Y46647085D02*
X24537619Y46599466D01*
X25680476Y46456609D02*
X25585238Y46504228D01*
X25585238Y46504228D02*
X25537619Y46551847D01*
X25537619Y46551847D02*
X25490000Y46647085D01*
X25490000Y46647085D02*
X25490000Y46694704D01*
X25490000Y46694704D02*
X25537619Y46789942D01*
X25537619Y46789942D02*
X25585238Y46837561D01*
X25585238Y46837561D02*
X25680476Y46885180D01*
X25680476Y46885180D02*
X25870952Y46885180D01*
X25870952Y46885180D02*
X25966190Y46837561D01*
X25966190Y46837561D02*
X26013809Y46789942D01*
X26013809Y46789942D02*
X26061428Y46694704D01*
X26061428Y46694704D02*
X26061428Y46647085D01*
X26061428Y46647085D02*
X26013809Y46551847D01*
X26013809Y46551847D02*
X25966190Y46504228D01*
X25966190Y46504228D02*
X25870952Y46456609D01*
X25870952Y46456609D02*
X25680476Y46456609D01*
X25680476Y46456609D02*
X25585238Y46408990D01*
X25585238Y46408990D02*
X25537619Y46361371D01*
X25537619Y46361371D02*
X25490000Y46266133D01*
X25490000Y46266133D02*
X25490000Y46075657D01*
X25490000Y46075657D02*
X25537619Y45980419D01*
X25537619Y45980419D02*
X25585238Y45932800D01*
X25585238Y45932800D02*
X25680476Y45885180D01*
X25680476Y45885180D02*
X25870952Y45885180D01*
X25870952Y45885180D02*
X25966190Y45932800D01*
X25966190Y45932800D02*
X26013809Y45980419D01*
X26013809Y45980419D02*
X26061428Y46075657D01*
X26061428Y46075657D02*
X26061428Y46266133D01*
X26061428Y46266133D02*
X26013809Y46361371D01*
X26013809Y46361371D02*
X25966190Y46408990D01*
X25966190Y46408990D02*
X25870952Y46456609D01*
X27013809Y45885180D02*
X26442381Y45885180D01*
X26728095Y45885180D02*
X26728095Y46885180D01*
X26728095Y46885180D02*
X26632857Y46742323D01*
X26632857Y46742323D02*
X26537619Y46647085D01*
X26537619Y46647085D02*
X26442381Y46599466D01*
X27347143Y46885180D02*
X27966190Y46885180D01*
X27966190Y46885180D02*
X27632857Y46504228D01*
X27632857Y46504228D02*
X27775714Y46504228D01*
X27775714Y46504228D02*
X27870952Y46456609D01*
X27870952Y46456609D02*
X27918571Y46408990D01*
X27918571Y46408990D02*
X27966190Y46313752D01*
X27966190Y46313752D02*
X27966190Y46075657D01*
X27966190Y46075657D02*
X27918571Y45980419D01*
X27918571Y45980419D02*
X27870952Y45932800D01*
X27870952Y45932800D02*
X27775714Y45885180D01*
X27775714Y45885180D02*
X27490000Y45885180D01*
X27490000Y45885180D02*
X27394762Y45932800D01*
X27394762Y45932800D02*
X27347143Y45980419D01*
X28394762Y46266133D02*
X29156667Y46266133D01*
X30109047Y46885180D02*
X29632857Y46885180D01*
X29632857Y46885180D02*
X29585238Y46408990D01*
X29585238Y46408990D02*
X29632857Y46456609D01*
X29632857Y46456609D02*
X29728095Y46504228D01*
X29728095Y46504228D02*
X29966190Y46504228D01*
X29966190Y46504228D02*
X30061428Y46456609D01*
X30061428Y46456609D02*
X30109047Y46408990D01*
X30109047Y46408990D02*
X30156666Y46313752D01*
X30156666Y46313752D02*
X30156666Y46075657D01*
X30156666Y46075657D02*
X30109047Y45980419D01*
X30109047Y45980419D02*
X30061428Y45932800D01*
X30061428Y45932800D02*
X29966190Y45885180D01*
X29966190Y45885180D02*
X29728095Y45885180D01*
X29728095Y45885180D02*
X29632857Y45932800D01*
X29632857Y45932800D02*
X29585238Y45980419D01*
X30585238Y46266133D02*
X31347143Y46266133D01*
X30966190Y45885180D02*
X30966190Y46647085D01*
X17284819Y58349523D02*
X16808628Y58016190D01*
X17284819Y57778095D02*
X16284819Y57778095D01*
X16284819Y57778095D02*
X16284819Y58159047D01*
X16284819Y58159047D02*
X16332438Y58254285D01*
X16332438Y58254285D02*
X16380057Y58301904D01*
X16380057Y58301904D02*
X16475295Y58349523D01*
X16475295Y58349523D02*
X16618152Y58349523D01*
X16618152Y58349523D02*
X16713390Y58301904D01*
X16713390Y58301904D02*
X16761009Y58254285D01*
X16761009Y58254285D02*
X16808628Y58159047D01*
X16808628Y58159047D02*
X16808628Y57778095D01*
X17284819Y58778095D02*
X16284819Y58778095D01*
X16284819Y58778095D02*
X17284819Y59349523D01*
X17284819Y59349523D02*
X16284819Y59349523D01*
X17284819Y60349523D02*
X17284819Y59778095D01*
X17284819Y60063809D02*
X16284819Y60063809D01*
X16284819Y60063809D02*
X16427676Y59968571D01*
X16427676Y59968571D02*
X16522914Y59873333D01*
X16522914Y59873333D02*
X16570533Y59778095D01*
X47818095Y46885180D02*
X47818095Y46075657D01*
X47818095Y46075657D02*
X47865714Y45980419D01*
X47865714Y45980419D02*
X47913333Y45932800D01*
X47913333Y45932800D02*
X48008571Y45885180D01*
X48008571Y45885180D02*
X48199047Y45885180D01*
X48199047Y45885180D02*
X48294285Y45932800D01*
X48294285Y45932800D02*
X48341904Y45980419D01*
X48341904Y45980419D02*
X48389523Y46075657D01*
X48389523Y46075657D02*
X48389523Y46885180D01*
X48770476Y46885180D02*
X49437142Y46885180D01*
X49437142Y46885180D02*
X49008571Y45885180D01*
X50398095Y46885180D02*
X51064761Y46885180D01*
X51064761Y46885180D02*
X50636190Y45885180D01*
X51874285Y46551847D02*
X51874285Y45885180D01*
X51636190Y46932800D02*
X51398095Y46218514D01*
X51398095Y46218514D02*
X52017142Y46218514D01*
X52398095Y45885180D02*
X52398095Y46885180D01*
X52398095Y46408990D02*
X52969523Y46408990D01*
X52969523Y45885180D02*
X52969523Y46885180D01*
X54017142Y45980419D02*
X53969523Y45932800D01*
X53969523Y45932800D02*
X53826666Y45885180D01*
X53826666Y45885180D02*
X53731428Y45885180D01*
X53731428Y45885180D02*
X53588571Y45932800D01*
X53588571Y45932800D02*
X53493333Y46028038D01*
X53493333Y46028038D02*
X53445714Y46123276D01*
X53445714Y46123276D02*
X53398095Y46313752D01*
X53398095Y46313752D02*
X53398095Y46456609D01*
X53398095Y46456609D02*
X53445714Y46647085D01*
X53445714Y46647085D02*
X53493333Y46742323D01*
X53493333Y46742323D02*
X53588571Y46837561D01*
X53588571Y46837561D02*
X53731428Y46885180D01*
X53731428Y46885180D02*
X53826666Y46885180D01*
X53826666Y46885180D02*
X53969523Y46837561D01*
X53969523Y46837561D02*
X54017142Y46789942D01*
X54398095Y46789942D02*
X54445714Y46837561D01*
X54445714Y46837561D02*
X54540952Y46885180D01*
X54540952Y46885180D02*
X54779047Y46885180D01*
X54779047Y46885180D02*
X54874285Y46837561D01*
X54874285Y46837561D02*
X54921904Y46789942D01*
X54921904Y46789942D02*
X54969523Y46694704D01*
X54969523Y46694704D02*
X54969523Y46599466D01*
X54969523Y46599466D02*
X54921904Y46456609D01*
X54921904Y46456609D02*
X54350476Y45885180D01*
X54350476Y45885180D02*
X54969523Y45885180D01*
X55826666Y46551847D02*
X55826666Y45885180D01*
X55588571Y46932800D02*
X55350476Y46218514D01*
X55350476Y46218514D02*
X55969523Y46218514D01*
X56826666Y46885180D02*
X56350476Y46885180D01*
X56350476Y46885180D02*
X56302857Y46408990D01*
X56302857Y46408990D02*
X56350476Y46456609D01*
X56350476Y46456609D02*
X56445714Y46504228D01*
X56445714Y46504228D02*
X56683809Y46504228D01*
X56683809Y46504228D02*
X56779047Y46456609D01*
X56779047Y46456609D02*
X56826666Y46408990D01*
X56826666Y46408990D02*
X56874285Y46313752D01*
X56874285Y46313752D02*
X56874285Y46075657D01*
X56874285Y46075657D02*
X56826666Y45980419D01*
X56826666Y45980419D02*
X56779047Y45932800D01*
X56779047Y45932800D02*
X56683809Y45885180D01*
X56683809Y45885180D02*
X56445714Y45885180D01*
X56445714Y45885180D02*
X56350476Y45932800D01*
X56350476Y45932800D02*
X56302857Y45980419D01*
X76184819Y29861905D02*
X76994342Y29861905D01*
X76994342Y29861905D02*
X77089580Y29909524D01*
X77089580Y29909524D02*
X77137200Y29957143D01*
X77137200Y29957143D02*
X77184819Y30052381D01*
X77184819Y30052381D02*
X77184819Y30242857D01*
X77184819Y30242857D02*
X77137200Y30338095D01*
X77137200Y30338095D02*
X77089580Y30385714D01*
X77089580Y30385714D02*
X76994342Y30433333D01*
X76994342Y30433333D02*
X76184819Y30433333D01*
X77184819Y31433333D02*
X77184819Y30861905D01*
X77184819Y31147619D02*
X76184819Y31147619D01*
X76184819Y31147619D02*
X76327676Y31052381D01*
X76327676Y31052381D02*
X76422914Y30957143D01*
X76422914Y30957143D02*
X76470533Y30861905D01*
X76184819Y32052381D02*
X76184819Y32147619D01*
X76184819Y32147619D02*
X76232438Y32242857D01*
X76232438Y32242857D02*
X76280057Y32290476D01*
X76280057Y32290476D02*
X76375295Y32338095D01*
X76375295Y32338095D02*
X76565771Y32385714D01*
X76565771Y32385714D02*
X76803866Y32385714D01*
X76803866Y32385714D02*
X76994342Y32338095D01*
X76994342Y32338095D02*
X77089580Y32290476D01*
X77089580Y32290476D02*
X77137200Y32242857D01*
X77137200Y32242857D02*
X77184819Y32147619D01*
X77184819Y32147619D02*
X77184819Y32052381D01*
X77184819Y32052381D02*
X77137200Y31957143D01*
X77137200Y31957143D02*
X77089580Y31909524D01*
X77089580Y31909524D02*
X76994342Y31861905D01*
X76994342Y31861905D02*
X76803866Y31814286D01*
X76803866Y31814286D02*
X76565771Y31814286D01*
X76565771Y31814286D02*
X76375295Y31861905D01*
X76375295Y31861905D02*
X76280057Y31909524D01*
X76280057Y31909524D02*
X76232438Y31957143D01*
X76232438Y31957143D02*
X76184819Y32052381D01*
X60944819Y51451905D02*
X61754342Y51451905D01*
X61754342Y51451905D02*
X61849580Y51499524D01*
X61849580Y51499524D02*
X61897200Y51547143D01*
X61897200Y51547143D02*
X61944819Y51642381D01*
X61944819Y51642381D02*
X61944819Y51832857D01*
X61944819Y51832857D02*
X61897200Y51928095D01*
X61897200Y51928095D02*
X61849580Y51975714D01*
X61849580Y51975714D02*
X61754342Y52023333D01*
X61754342Y52023333D02*
X60944819Y52023333D01*
X61944819Y53023333D02*
X61944819Y52451905D01*
X61944819Y52737619D02*
X60944819Y52737619D01*
X60944819Y52737619D02*
X61087676Y52642381D01*
X61087676Y52642381D02*
X61182914Y52547143D01*
X61182914Y52547143D02*
X61230533Y52451905D01*
X61944819Y53975714D02*
X61944819Y53404286D01*
X61944819Y53690000D02*
X60944819Y53690000D01*
X60944819Y53690000D02*
X61087676Y53594762D01*
X61087676Y53594762D02*
X61182914Y53499524D01*
X61182914Y53499524D02*
X61230533Y53404286D01*
X55438095Y105305180D02*
X55438095Y104495657D01*
X55438095Y104495657D02*
X55485714Y104400419D01*
X55485714Y104400419D02*
X55533333Y104352800D01*
X55533333Y104352800D02*
X55628571Y104305180D01*
X55628571Y104305180D02*
X55819047Y104305180D01*
X55819047Y104305180D02*
X55914285Y104352800D01*
X55914285Y104352800D02*
X55961904Y104400419D01*
X55961904Y104400419D02*
X56009523Y104495657D01*
X56009523Y104495657D02*
X56009523Y105305180D01*
X56914285Y105305180D02*
X56723809Y105305180D01*
X56723809Y105305180D02*
X56628571Y105257561D01*
X56628571Y105257561D02*
X56580952Y105209942D01*
X56580952Y105209942D02*
X56485714Y105067085D01*
X56485714Y105067085D02*
X56438095Y104876609D01*
X56438095Y104876609D02*
X56438095Y104495657D01*
X56438095Y104495657D02*
X56485714Y104400419D01*
X56485714Y104400419D02*
X56533333Y104352800D01*
X56533333Y104352800D02*
X56628571Y104305180D01*
X56628571Y104305180D02*
X56819047Y104305180D01*
X56819047Y104305180D02*
X56914285Y104352800D01*
X56914285Y104352800D02*
X56961904Y104400419D01*
X56961904Y104400419D02*
X57009523Y104495657D01*
X57009523Y104495657D02*
X57009523Y104733752D01*
X57009523Y104733752D02*
X56961904Y104828990D01*
X56961904Y104828990D02*
X56914285Y104876609D01*
X56914285Y104876609D02*
X56819047Y104924228D01*
X56819047Y104924228D02*
X56628571Y104924228D01*
X56628571Y104924228D02*
X56533333Y104876609D01*
X56533333Y104876609D02*
X56485714Y104828990D01*
X56485714Y104828990D02*
X56438095Y104733752D01*
X47858095Y105305180D02*
X48524761Y105305180D01*
X48524761Y105305180D02*
X48096190Y104305180D01*
X49334285Y104971847D02*
X49334285Y104305180D01*
X49096190Y105352800D02*
X48858095Y104638514D01*
X48858095Y104638514D02*
X49477142Y104638514D01*
X49858095Y104305180D02*
X49858095Y105305180D01*
X49858095Y104828990D02*
X50429523Y104828990D01*
X50429523Y104305180D02*
X50429523Y105305180D01*
X51477142Y104400419D02*
X51429523Y104352800D01*
X51429523Y104352800D02*
X51286666Y104305180D01*
X51286666Y104305180D02*
X51191428Y104305180D01*
X51191428Y104305180D02*
X51048571Y104352800D01*
X51048571Y104352800D02*
X50953333Y104448038D01*
X50953333Y104448038D02*
X50905714Y104543276D01*
X50905714Y104543276D02*
X50858095Y104733752D01*
X50858095Y104733752D02*
X50858095Y104876609D01*
X50858095Y104876609D02*
X50905714Y105067085D01*
X50905714Y105067085D02*
X50953333Y105162323D01*
X50953333Y105162323D02*
X51048571Y105257561D01*
X51048571Y105257561D02*
X51191428Y105305180D01*
X51191428Y105305180D02*
X51286666Y105305180D01*
X51286666Y105305180D02*
X51429523Y105257561D01*
X51429523Y105257561D02*
X51477142Y105209942D01*
X52381904Y105305180D02*
X51905714Y105305180D01*
X51905714Y105305180D02*
X51858095Y104828990D01*
X51858095Y104828990D02*
X51905714Y104876609D01*
X51905714Y104876609D02*
X52000952Y104924228D01*
X52000952Y104924228D02*
X52239047Y104924228D01*
X52239047Y104924228D02*
X52334285Y104876609D01*
X52334285Y104876609D02*
X52381904Y104828990D01*
X52381904Y104828990D02*
X52429523Y104733752D01*
X52429523Y104733752D02*
X52429523Y104495657D01*
X52429523Y104495657D02*
X52381904Y104400419D01*
X52381904Y104400419D02*
X52334285Y104352800D01*
X52334285Y104352800D02*
X52239047Y104305180D01*
X52239047Y104305180D02*
X52000952Y104305180D01*
X52000952Y104305180D02*
X51905714Y104352800D01*
X51905714Y104352800D02*
X51858095Y104400419D01*
X52762857Y105305180D02*
X53429523Y105305180D01*
X53429523Y105305180D02*
X53000952Y104305180D01*
X53715238Y105305180D02*
X54334285Y105305180D01*
X54334285Y105305180D02*
X54000952Y104924228D01*
X54000952Y104924228D02*
X54143809Y104924228D01*
X54143809Y104924228D02*
X54239047Y104876609D01*
X54239047Y104876609D02*
X54286666Y104828990D01*
X54286666Y104828990D02*
X54334285Y104733752D01*
X54334285Y104733752D02*
X54334285Y104495657D01*
X54334285Y104495657D02*
X54286666Y104400419D01*
X54286666Y104400419D02*
X54239047Y104352800D01*
X54239047Y104352800D02*
X54143809Y104305180D01*
X54143809Y104305180D02*
X53858095Y104305180D01*
X53858095Y104305180D02*
X53762857Y104352800D01*
X53762857Y104352800D02*
X53715238Y104400419D01*
X108778095Y37185180D02*
X108778095Y36375657D01*
X108778095Y36375657D02*
X108825714Y36280419D01*
X108825714Y36280419D02*
X108873333Y36232800D01*
X108873333Y36232800D02*
X108968571Y36185180D01*
X108968571Y36185180D02*
X109159047Y36185180D01*
X109159047Y36185180D02*
X109254285Y36232800D01*
X109254285Y36232800D02*
X109301904Y36280419D01*
X109301904Y36280419D02*
X109349523Y36375657D01*
X109349523Y36375657D02*
X109349523Y37185180D01*
X109968571Y36756609D02*
X109873333Y36804228D01*
X109873333Y36804228D02*
X109825714Y36851847D01*
X109825714Y36851847D02*
X109778095Y36947085D01*
X109778095Y36947085D02*
X109778095Y36994704D01*
X109778095Y36994704D02*
X109825714Y37089942D01*
X109825714Y37089942D02*
X109873333Y37137561D01*
X109873333Y37137561D02*
X109968571Y37185180D01*
X109968571Y37185180D02*
X110159047Y37185180D01*
X110159047Y37185180D02*
X110254285Y37137561D01*
X110254285Y37137561D02*
X110301904Y37089942D01*
X110301904Y37089942D02*
X110349523Y36994704D01*
X110349523Y36994704D02*
X110349523Y36947085D01*
X110349523Y36947085D02*
X110301904Y36851847D01*
X110301904Y36851847D02*
X110254285Y36804228D01*
X110254285Y36804228D02*
X110159047Y36756609D01*
X110159047Y36756609D02*
X109968571Y36756609D01*
X109968571Y36756609D02*
X109873333Y36708990D01*
X109873333Y36708990D02*
X109825714Y36661371D01*
X109825714Y36661371D02*
X109778095Y36566133D01*
X109778095Y36566133D02*
X109778095Y36375657D01*
X109778095Y36375657D02*
X109825714Y36280419D01*
X109825714Y36280419D02*
X109873333Y36232800D01*
X109873333Y36232800D02*
X109968571Y36185180D01*
X109968571Y36185180D02*
X110159047Y36185180D01*
X110159047Y36185180D02*
X110254285Y36232800D01*
X110254285Y36232800D02*
X110301904Y36280419D01*
X110301904Y36280419D02*
X110349523Y36375657D01*
X110349523Y36375657D02*
X110349523Y36566133D01*
X110349523Y36566133D02*
X110301904Y36661371D01*
X110301904Y36661371D02*
X110254285Y36708990D01*
X110254285Y36708990D02*
X110159047Y36756609D01*
X107944761Y29415180D02*
X107468571Y29415180D01*
X107468571Y29415180D02*
X107468571Y30415180D01*
X108182857Y30415180D02*
X108849523Y30415180D01*
X108849523Y30415180D02*
X108420952Y29415180D01*
X109373333Y29986609D02*
X109278095Y30034228D01*
X109278095Y30034228D02*
X109230476Y30081847D01*
X109230476Y30081847D02*
X109182857Y30177085D01*
X109182857Y30177085D02*
X109182857Y30224704D01*
X109182857Y30224704D02*
X109230476Y30319942D01*
X109230476Y30319942D02*
X109278095Y30367561D01*
X109278095Y30367561D02*
X109373333Y30415180D01*
X109373333Y30415180D02*
X109563809Y30415180D01*
X109563809Y30415180D02*
X109659047Y30367561D01*
X109659047Y30367561D02*
X109706666Y30319942D01*
X109706666Y30319942D02*
X109754285Y30224704D01*
X109754285Y30224704D02*
X109754285Y30177085D01*
X109754285Y30177085D02*
X109706666Y30081847D01*
X109706666Y30081847D02*
X109659047Y30034228D01*
X109659047Y30034228D02*
X109563809Y29986609D01*
X109563809Y29986609D02*
X109373333Y29986609D01*
X109373333Y29986609D02*
X109278095Y29938990D01*
X109278095Y29938990D02*
X109230476Y29891371D01*
X109230476Y29891371D02*
X109182857Y29796133D01*
X109182857Y29796133D02*
X109182857Y29605657D01*
X109182857Y29605657D02*
X109230476Y29510419D01*
X109230476Y29510419D02*
X109278095Y29462800D01*
X109278095Y29462800D02*
X109373333Y29415180D01*
X109373333Y29415180D02*
X109563809Y29415180D01*
X109563809Y29415180D02*
X109659047Y29462800D01*
X109659047Y29462800D02*
X109706666Y29510419D01*
X109706666Y29510419D02*
X109754285Y29605657D01*
X109754285Y29605657D02*
X109754285Y29796133D01*
X109754285Y29796133D02*
X109706666Y29891371D01*
X109706666Y29891371D02*
X109659047Y29938990D01*
X109659047Y29938990D02*
X109563809Y29986609D01*
X110373333Y30415180D02*
X110468571Y30415180D01*
X110468571Y30415180D02*
X110563809Y30367561D01*
X110563809Y30367561D02*
X110611428Y30319942D01*
X110611428Y30319942D02*
X110659047Y30224704D01*
X110659047Y30224704D02*
X110706666Y30034228D01*
X110706666Y30034228D02*
X110706666Y29796133D01*
X110706666Y29796133D02*
X110659047Y29605657D01*
X110659047Y29605657D02*
X110611428Y29510419D01*
X110611428Y29510419D02*
X110563809Y29462800D01*
X110563809Y29462800D02*
X110468571Y29415180D01*
X110468571Y29415180D02*
X110373333Y29415180D01*
X110373333Y29415180D02*
X110278095Y29462800D01*
X110278095Y29462800D02*
X110230476Y29510419D01*
X110230476Y29510419D02*
X110182857Y29605657D01*
X110182857Y29605657D02*
X110135238Y29796133D01*
X110135238Y29796133D02*
X110135238Y30034228D01*
X110135238Y30034228D02*
X110182857Y30224704D01*
X110182857Y30224704D02*
X110230476Y30319942D01*
X110230476Y30319942D02*
X110278095Y30367561D01*
X110278095Y30367561D02*
X110373333Y30415180D01*
X111611428Y30415180D02*
X111135238Y30415180D01*
X111135238Y30415180D02*
X111087619Y29938990D01*
X111087619Y29938990D02*
X111135238Y29986609D01*
X111135238Y29986609D02*
X111230476Y30034228D01*
X111230476Y30034228D02*
X111468571Y30034228D01*
X111468571Y30034228D02*
X111563809Y29986609D01*
X111563809Y29986609D02*
X111611428Y29938990D01*
X111611428Y29938990D02*
X111659047Y29843752D01*
X111659047Y29843752D02*
X111659047Y29605657D01*
X111659047Y29605657D02*
X111611428Y29510419D01*
X111611428Y29510419D02*
X111563809Y29462800D01*
X111563809Y29462800D02*
X111468571Y29415180D01*
X111468571Y29415180D02*
X111230476Y29415180D01*
X111230476Y29415180D02*
X111135238Y29462800D01*
X111135238Y29462800D02*
X111087619Y29510419D01*
X52759580Y85538333D02*
X52807200Y85490714D01*
X52807200Y85490714D02*
X52854819Y85347857D01*
X52854819Y85347857D02*
X52854819Y85252619D01*
X52854819Y85252619D02*
X52807200Y85109762D01*
X52807200Y85109762D02*
X52711961Y85014524D01*
X52711961Y85014524D02*
X52616723Y84966905D01*
X52616723Y84966905D02*
X52426247Y84919286D01*
X52426247Y84919286D02*
X52283390Y84919286D01*
X52283390Y84919286D02*
X52092914Y84966905D01*
X52092914Y84966905D02*
X51997676Y85014524D01*
X51997676Y85014524D02*
X51902438Y85109762D01*
X51902438Y85109762D02*
X51854819Y85252619D01*
X51854819Y85252619D02*
X51854819Y85347857D01*
X51854819Y85347857D02*
X51902438Y85490714D01*
X51902438Y85490714D02*
X51950057Y85538333D01*
X51854819Y86443095D02*
X51854819Y85966905D01*
X51854819Y85966905D02*
X52331009Y85919286D01*
X52331009Y85919286D02*
X52283390Y85966905D01*
X52283390Y85966905D02*
X52235771Y86062143D01*
X52235771Y86062143D02*
X52235771Y86300238D01*
X52235771Y86300238D02*
X52283390Y86395476D01*
X52283390Y86395476D02*
X52331009Y86443095D01*
X52331009Y86443095D02*
X52426247Y86490714D01*
X52426247Y86490714D02*
X52664342Y86490714D01*
X52664342Y86490714D02*
X52759580Y86443095D01*
X52759580Y86443095D02*
X52807200Y86395476D01*
X52807200Y86395476D02*
X52854819Y86300238D01*
X52854819Y86300238D02*
X52854819Y86062143D01*
X52854819Y86062143D02*
X52807200Y85966905D01*
X52807200Y85966905D02*
X52759580Y85919286D01*
X18459580Y27123333D02*
X18507200Y27075714D01*
X18507200Y27075714D02*
X18554819Y26932857D01*
X18554819Y26932857D02*
X18554819Y26837619D01*
X18554819Y26837619D02*
X18507200Y26694762D01*
X18507200Y26694762D02*
X18411961Y26599524D01*
X18411961Y26599524D02*
X18316723Y26551905D01*
X18316723Y26551905D02*
X18126247Y26504286D01*
X18126247Y26504286D02*
X17983390Y26504286D01*
X17983390Y26504286D02*
X17792914Y26551905D01*
X17792914Y26551905D02*
X17697676Y26599524D01*
X17697676Y26599524D02*
X17602438Y26694762D01*
X17602438Y26694762D02*
X17554819Y26837619D01*
X17554819Y26837619D02*
X17554819Y26932857D01*
X17554819Y26932857D02*
X17602438Y27075714D01*
X17602438Y27075714D02*
X17650057Y27123333D01*
X18554819Y28075714D02*
X18554819Y27504286D01*
X18554819Y27790000D02*
X17554819Y27790000D01*
X17554819Y27790000D02*
X17697676Y27694762D01*
X17697676Y27694762D02*
X17792914Y27599524D01*
X17792914Y27599524D02*
X17840533Y27504286D01*
D12*
%TO.C,U2*%
X62490000Y103610000D02*
X62490000Y62730000D01*
X62490000Y62730000D02*
X80390000Y62730000D01*
X64980000Y103550000D02*
X64980000Y62790000D01*
X64980000Y62790000D02*
X77900000Y62790000D01*
X70440000Y103550000D02*
X64980000Y103550000D01*
X77900000Y103550000D02*
X72440000Y103550000D01*
X77900000Y62790000D02*
X77900000Y103550000D01*
X80390000Y103610000D02*
X62490000Y103610000D01*
X80390000Y62730000D02*
X80390000Y103610000D01*
X70440000Y103550000D02*
G75*
G03*
X72440000Y103550000I1000000J0D01*
G01*
%TO.C,U1*%
X42290000Y52570000D02*
X42290000Y103610000D01*
X42290000Y103610000D02*
X24390000Y103610000D01*
X39800000Y52630000D02*
X39800000Y103550000D01*
X39800000Y103550000D02*
X26880000Y103550000D01*
X34340000Y52630000D02*
X39800000Y52630000D01*
X26880000Y52630000D02*
X32340000Y52630000D01*
X26880000Y103550000D02*
X26880000Y52630000D01*
X24390000Y52570000D02*
X42290000Y52570000D01*
X24390000Y103610000D02*
X24390000Y52570000D01*
X34340000Y52630000D02*
G75*
G03*
X32340000Y52630000I-1000000J0D01*
G01*
%TO.C,U3*%
X34610000Y18530000D02*
X32070000Y18530000D01*
X22680000Y19550000D02*
X24540000Y19550000D01*
X29440000Y19550000D02*
X73280000Y19550000D01*
X73280000Y19550000D02*
X73280000Y42650000D01*
X22680000Y21830000D02*
X24940000Y21830000D01*
X22680000Y42650000D02*
X22680000Y19550000D01*
X73280000Y42650000D02*
X22680000Y42650000D01*
X27890000Y20280000D02*
G75*
G03*
X27890000Y20280000I-900000J0D01*
G01*
X29540000Y20280000D02*
G75*
G03*
X29540000Y20280000I-2550000J0D01*
G01*
%TO.C,U5*%
X87830000Y38660000D02*
X113470000Y38660000D01*
X113470000Y38660000D02*
X113470000Y48940000D01*
X87890000Y41150000D02*
X113410000Y41150000D01*
X113410000Y41150000D02*
X113410000Y46450000D01*
X87890000Y42800000D02*
X87890000Y41150000D01*
X87890000Y46450000D02*
X87890000Y44800000D01*
X113410000Y46450000D02*
X87890000Y46450000D01*
X87830000Y48940000D02*
X87830000Y38660000D01*
X113470000Y48940000D02*
X87830000Y48940000D01*
X87890000Y42800000D02*
G75*
G03*
X87890000Y44800000I0J1000000D01*
G01*
%TO.C,C6*%
X90215000Y44710000D02*
X110805000Y44710000D01*
X90215000Y42870000D02*
X110805000Y42870000D01*
%TO.C,C7*%
X51480000Y49875000D02*
X51480000Y70465000D01*
X53320000Y49875000D02*
X53320000Y70465000D01*
%TO.C,X1*%
X76230000Y24100000D02*
X76230000Y11950000D01*
X76230000Y11950000D02*
X96380000Y11950000D01*
X96380000Y24850000D02*
X76980000Y24850000D01*
X97130000Y12700000D02*
X97130000Y24100000D01*
X76980000Y24850000D02*
G75*
G03*
X76230000Y24100000I0J-750000D01*
G01*
X97130000Y24100000D02*
G75*
G03*
X96380000Y24850000I-750000J0D01*
G01*
X96380000Y11950000D02*
G75*
G03*
X97130000Y12700000I0J750000D01*
G01*
%TO.C,C8*%
X97169759Y36749000D02*
X97799759Y36749000D01*
X97484759Y37064000D02*
X97484759Y36434000D01*
X100670000Y38140000D02*
X100670000Y31680000D01*
X100710000Y38140000D02*
X100710000Y31680000D01*
X100750000Y38140000D02*
X100750000Y31680000D01*
X100790000Y38138000D02*
X100790000Y31682000D01*
X100830000Y38137000D02*
X100830000Y31683000D01*
X100870000Y38134000D02*
X100870000Y31686000D01*
X100910000Y38132000D02*
X100910000Y35950000D01*
X100910000Y33870000D02*
X100910000Y31688000D01*
X100950000Y38128000D02*
X100950000Y35950000D01*
X100950000Y33870000D02*
X100950000Y31692000D01*
X100990000Y38125000D02*
X100990000Y35950000D01*
X100990000Y33870000D02*
X100990000Y31695000D01*
X101030000Y38121000D02*
X101030000Y35950000D01*
X101030000Y33870000D02*
X101030000Y31699000D01*
X101070000Y38116000D02*
X101070000Y35950000D01*
X101070000Y33870000D02*
X101070000Y31704000D01*
X101110000Y38111000D02*
X101110000Y35950000D01*
X101110000Y33870000D02*
X101110000Y31709000D01*
X101150000Y38105000D02*
X101150000Y35950000D01*
X101150000Y33870000D02*
X101150000Y31715000D01*
X101190000Y38099000D02*
X101190000Y35950000D01*
X101190000Y33870000D02*
X101190000Y31721000D01*
X101230000Y38092000D02*
X101230000Y35950000D01*
X101230000Y33870000D02*
X101230000Y31728000D01*
X101270000Y38085000D02*
X101270000Y35950000D01*
X101270000Y33870000D02*
X101270000Y31735000D01*
X101310000Y38077000D02*
X101310000Y35950000D01*
X101310000Y33870000D02*
X101310000Y31743000D01*
X101350000Y38069000D02*
X101350000Y35950000D01*
X101350000Y33870000D02*
X101350000Y31751000D01*
X101391000Y38060000D02*
X101391000Y35950000D01*
X101391000Y33870000D02*
X101391000Y31760000D01*
X101431000Y38051000D02*
X101431000Y35950000D01*
X101431000Y33870000D02*
X101431000Y31769000D01*
X101471000Y38041000D02*
X101471000Y35950000D01*
X101471000Y33870000D02*
X101471000Y31779000D01*
X101511000Y38031000D02*
X101511000Y35950000D01*
X101511000Y33870000D02*
X101511000Y31789000D01*
X101551000Y38020000D02*
X101551000Y35950000D01*
X101551000Y33870000D02*
X101551000Y31800000D01*
X101591000Y38008000D02*
X101591000Y35950000D01*
X101591000Y33870000D02*
X101591000Y31812000D01*
X101631000Y37996000D02*
X101631000Y35950000D01*
X101631000Y33870000D02*
X101631000Y31824000D01*
X101671000Y37984000D02*
X101671000Y35950000D01*
X101671000Y33870000D02*
X101671000Y31836000D01*
X101711000Y37971000D02*
X101711000Y35950000D01*
X101711000Y33870000D02*
X101711000Y31849000D01*
X101751000Y37957000D02*
X101751000Y35950000D01*
X101751000Y33870000D02*
X101751000Y31863000D01*
X101791000Y37943000D02*
X101791000Y35950000D01*
X101791000Y33870000D02*
X101791000Y31877000D01*
X101831000Y37928000D02*
X101831000Y35950000D01*
X101831000Y33870000D02*
X101831000Y31892000D01*
X101871000Y37912000D02*
X101871000Y35950000D01*
X101871000Y33870000D02*
X101871000Y31908000D01*
X101911000Y37896000D02*
X101911000Y35950000D01*
X101911000Y33870000D02*
X101911000Y31924000D01*
X101951000Y37880000D02*
X101951000Y35950000D01*
X101951000Y33870000D02*
X101951000Y31940000D01*
X101991000Y37862000D02*
X101991000Y35950000D01*
X101991000Y33870000D02*
X101991000Y31958000D01*
X102031000Y37844000D02*
X102031000Y35950000D01*
X102031000Y33870000D02*
X102031000Y31976000D01*
X102071000Y37826000D02*
X102071000Y35950000D01*
X102071000Y33870000D02*
X102071000Y31994000D01*
X102111000Y37806000D02*
X102111000Y35950000D01*
X102111000Y33870000D02*
X102111000Y32014000D01*
X102151000Y37786000D02*
X102151000Y35950000D01*
X102151000Y33870000D02*
X102151000Y32034000D01*
X102191000Y37766000D02*
X102191000Y35950000D01*
X102191000Y33870000D02*
X102191000Y32054000D01*
X102231000Y37744000D02*
X102231000Y35950000D01*
X102231000Y33870000D02*
X102231000Y32076000D01*
X102271000Y37722000D02*
X102271000Y35950000D01*
X102271000Y33870000D02*
X102271000Y32098000D01*
X102311000Y37700000D02*
X102311000Y35950000D01*
X102311000Y33870000D02*
X102311000Y32120000D01*
X102351000Y37676000D02*
X102351000Y35950000D01*
X102351000Y33870000D02*
X102351000Y32144000D01*
X102391000Y37652000D02*
X102391000Y35950000D01*
X102391000Y33870000D02*
X102391000Y32168000D01*
X102431000Y37626000D02*
X102431000Y35950000D01*
X102431000Y33870000D02*
X102431000Y32194000D01*
X102471000Y37600000D02*
X102471000Y35950000D01*
X102471000Y33870000D02*
X102471000Y32220000D01*
X102511000Y37574000D02*
X102511000Y35950000D01*
X102511000Y33870000D02*
X102511000Y32246000D01*
X102551000Y37546000D02*
X102551000Y35950000D01*
X102551000Y33870000D02*
X102551000Y32274000D01*
X102591000Y37517000D02*
X102591000Y35950000D01*
X102591000Y33870000D02*
X102591000Y32303000D01*
X102631000Y37488000D02*
X102631000Y35950000D01*
X102631000Y33870000D02*
X102631000Y32332000D01*
X102671000Y37458000D02*
X102671000Y35950000D01*
X102671000Y33870000D02*
X102671000Y32362000D01*
X102711000Y37426000D02*
X102711000Y35950000D01*
X102711000Y33870000D02*
X102711000Y32394000D01*
X102751000Y37394000D02*
X102751000Y35950000D01*
X102751000Y33870000D02*
X102751000Y32426000D01*
X102791000Y37360000D02*
X102791000Y35950000D01*
X102791000Y33870000D02*
X102791000Y32460000D01*
X102831000Y37326000D02*
X102831000Y35950000D01*
X102831000Y33870000D02*
X102831000Y32494000D01*
X102871000Y37290000D02*
X102871000Y35950000D01*
X102871000Y33870000D02*
X102871000Y32530000D01*
X102911000Y37253000D02*
X102911000Y35950000D01*
X102911000Y33870000D02*
X102911000Y32567000D01*
X102951000Y37215000D02*
X102951000Y35950000D01*
X102951000Y33870000D02*
X102951000Y32605000D01*
X102991000Y37175000D02*
X102991000Y32645000D01*
X103031000Y37134000D02*
X103031000Y32686000D01*
X103071000Y37092000D02*
X103071000Y32728000D01*
X103111000Y37047000D02*
X103111000Y32773000D01*
X103151000Y37002000D02*
X103151000Y32818000D01*
X103191000Y36954000D02*
X103191000Y32866000D01*
X103231000Y36905000D02*
X103231000Y32915000D01*
X103271000Y36854000D02*
X103271000Y32966000D01*
X103311000Y36800000D02*
X103311000Y33020000D01*
X103351000Y36744000D02*
X103351000Y33076000D01*
X103391000Y36686000D02*
X103391000Y33134000D01*
X103431000Y36624000D02*
X103431000Y33196000D01*
X103471000Y36560000D02*
X103471000Y33260000D01*
X103511000Y36491000D02*
X103511000Y33329000D01*
X103551000Y36419000D02*
X103551000Y33401000D01*
X103591000Y36342000D02*
X103591000Y33478000D01*
X103631000Y36260000D02*
X103631000Y33560000D01*
X103671000Y36172000D02*
X103671000Y33648000D01*
X103711000Y36075000D02*
X103711000Y33745000D01*
X103751000Y35969000D02*
X103751000Y33851000D01*
X103791000Y35850000D02*
X103791000Y33970000D01*
X103831000Y35712000D02*
X103831000Y34108000D01*
X103871000Y35543000D02*
X103871000Y34277000D01*
X103911000Y35312000D02*
X103911000Y34508000D01*
X103940000Y34910000D02*
G75*
G03*
X103940000Y34910000I-3270000J0D01*
G01*
%TO.C,J1*%
X99900000Y18580000D02*
X101500000Y18580000D01*
X100200000Y18880000D02*
X100200000Y20980000D01*
X114900000Y18880000D02*
X100200000Y18880000D01*
X99900000Y20280000D02*
X99900000Y18580000D01*
X100200000Y25980000D02*
X100200000Y28080000D01*
X100200000Y28080000D02*
X102000000Y28080000D01*
X106400000Y28080000D02*
X114900000Y28080000D01*
X114900000Y28080000D02*
X114900000Y18880000D01*
%TO.C,J3*%
X113410000Y65330000D02*
X112080000Y65330000D01*
X113410000Y66660000D02*
X113410000Y65330000D01*
X113410000Y67930000D02*
X113410000Y95930000D01*
X113410000Y67930000D02*
X110750000Y67930000D01*
X113410000Y95930000D02*
X110750000Y95930000D01*
X110750000Y67930000D02*
X110750000Y95930000D01*
%TO.C,U4*%
X103250000Y52570000D02*
X103250000Y103610000D01*
X103250000Y103610000D02*
X85350000Y103610000D01*
X100760000Y52630000D02*
X100760000Y103550000D01*
X100760000Y103550000D02*
X87840000Y103550000D01*
X95300000Y52630000D02*
X100760000Y52630000D01*
X87840000Y52630000D02*
X93300000Y52630000D01*
X87840000Y103550000D02*
X87840000Y52630000D01*
X85350000Y52570000D02*
X103250000Y52570000D01*
X85350000Y103610000D02*
X85350000Y52570000D01*
X95300000Y52630000D02*
G75*
G03*
X93300000Y52630000I-1000000J0D01*
G01*
%TO.C,U9*%
X21170000Y48190000D02*
X17570000Y48190000D01*
X19370000Y43740000D02*
G75*
G03*
X21208478Y48178478I0J2600000D01*
G01*
X17531522Y48178478D02*
G75*
G03*
X19370000Y43740000I1838478J-1838478D01*
G01*
%TO.C,RN1*%
X17970000Y57600000D02*
X20770000Y57600000D01*
X20770000Y57600000D02*
X20770000Y73180000D01*
X17970000Y60310000D02*
X20770000Y60310000D01*
X17970000Y73180000D02*
X17970000Y57600000D01*
X20770000Y73180000D02*
X17970000Y73180000D01*
%TO.C,C3*%
X72360000Y95870000D02*
X72360000Y71740000D01*
X70520000Y95870000D02*
X70520000Y71740000D01*
%TO.C,U7*%
X57530000Y47490000D02*
X57530000Y73130000D01*
X57530000Y73130000D02*
X47250000Y73130000D01*
X55040000Y47550000D02*
X55040000Y73070000D01*
X55040000Y73070000D02*
X49740000Y73070000D01*
X53390000Y47550000D02*
X55040000Y47550000D01*
X49740000Y47550000D02*
X51390000Y47550000D01*
X49740000Y73070000D02*
X49740000Y47550000D01*
X47250000Y47490000D02*
X57530000Y47490000D01*
X47250000Y73130000D02*
X47250000Y47490000D01*
X53390000Y47550000D02*
G75*
G03*
X51390000Y47550000I-1000000J0D01*
G01*
%TO.C,U10*%
X77670000Y25960000D02*
X95690000Y25960000D01*
X95690000Y25960000D02*
X95690000Y36240000D01*
X77730000Y28450000D02*
X95630000Y28450000D01*
X95630000Y28450000D02*
X95630000Y33750000D01*
X77730000Y30100000D02*
X77730000Y28450000D01*
X77730000Y33750000D02*
X77730000Y32100000D01*
X95630000Y33750000D02*
X77730000Y33750000D01*
X77670000Y36240000D02*
X77670000Y25960000D01*
X95690000Y36240000D02*
X77670000Y36240000D01*
X77730000Y30100000D02*
G75*
G03*
X77730000Y32100000I0J1000000D01*
G01*
%TO.C,U11*%
X62430000Y47550000D02*
X80450000Y47550000D01*
X80450000Y47550000D02*
X80450000Y57830000D01*
X62490000Y50040000D02*
X80390000Y50040000D01*
X80390000Y50040000D02*
X80390000Y55340000D01*
X62490000Y51690000D02*
X62490000Y50040000D01*
X62490000Y55340000D02*
X62490000Y53690000D01*
X80390000Y55340000D02*
X62490000Y55340000D01*
X62430000Y57830000D02*
X62430000Y47550000D01*
X80450000Y57830000D02*
X62430000Y57830000D01*
X62490000Y51690000D02*
G75*
G03*
X62490000Y53690000I0J1000000D01*
G01*
%TO.C,C2*%
X32420000Y74280000D02*
X32420000Y98410000D01*
X34260000Y74280000D02*
X34260000Y98410000D01*
%TO.C,U6*%
X57530000Y77970000D02*
X57530000Y103610000D01*
X57530000Y103610000D02*
X47250000Y103610000D01*
X55040000Y78030000D02*
X55040000Y103550000D01*
X55040000Y103550000D02*
X49740000Y103550000D01*
X53390000Y78030000D02*
X55040000Y78030000D01*
X49740000Y78030000D02*
X51390000Y78030000D01*
X49740000Y103550000D02*
X49740000Y78030000D01*
X47250000Y77970000D02*
X57530000Y77970000D01*
X47250000Y103610000D02*
X47250000Y77970000D01*
X53390000Y78030000D02*
G75*
G03*
X51390000Y78030000I-1000000J0D01*
G01*
%TO.C,U8*%
X104420000Y35640000D02*
X104420000Y30999000D01*
X104420000Y35640000D02*
X114660000Y35640000D01*
X104420000Y34130000D02*
X114660000Y34130000D01*
X104420000Y30999000D02*
X114660000Y30999000D01*
X107690000Y35640000D02*
X107690000Y34130000D01*
X111391000Y35640000D02*
X111391000Y34130000D01*
X114660000Y35640000D02*
X114660000Y30999000D01*
%TO.C,C5*%
X51480000Y80355000D02*
X51480000Y100945000D01*
X53320000Y80355000D02*
X53320000Y100945000D01*
%TO.C,C4*%
X95220000Y90790000D02*
X95220000Y66660000D01*
X93380000Y90790000D02*
X93380000Y66660000D01*
%TO.C,C1*%
X21560000Y27899000D02*
X21560000Y26641000D01*
X19720000Y27899000D02*
X19720000Y26641000D01*
%TD*%
M02*
